<svg width="22" height="22" viewBox="0 0 22 22" fill="none" xmlns="http://www.w3.org/2000/svg">
<g opacity="0.65">
<mask id="mask0" mask-type="alpha" maskUnits="userSpaceOnUse" x="4" y="0" width="14" height="22">
<path fill-rule="evenodd" clip-rule="evenodd" d="M13.2918 10.0833H11.9168V5.5H15.5835C16.1335 5.5 16.5002 5.13333 16.5002 4.58333C16.5002 4.03333 16.1335 3.66667 15.5835 3.66667H11.9168V0.916667C11.9168 0.366667 11.5502 0 11.0002 0C10.4502 0 10.0835 0.366667 10.0835 0.916667V3.66667H8.7085C6.41683 3.66667 4.5835 5.5 4.5835 7.79167C4.5835 10.0833 6.41683 11.9167 8.7085 11.9167H10.0835V16.5H5.50016C4.95016 16.5 4.5835 16.8667 4.5835 17.4167C4.5835 17.9667 4.95016 18.3333 5.50016 18.3333H10.0835V21.0833C10.0835 21.6333 10.4502 22 11.0002 22C11.5502 22 11.9168 21.6333 11.9168 21.0833V18.3333H13.2918C15.5835 18.3333 17.4168 16.5 17.4168 14.2083C17.4168 11.9167 15.5835 10.0833 13.2918 10.0833ZM8.7085 10.0833C7.42516 10.0833 6.41683 9.075 6.41683 7.79167C6.41683 6.50833 7.42516 5.5 8.7085 5.5H10.0835V10.0833H8.7085ZM11.9168 16.5H13.2918C14.5752 16.5 15.5835 15.4917 15.5835 14.2083C15.5835 12.925 14.5752 11.9167 13.2918 11.9167H11.9168V16.5Z" fill="white"/>
</mask>
<g mask="url(#mask0)">
<g filter="url(#filter0_d)">
<rect width="22" height="22" fill="white"/>
</g>
</g>
</g>
<defs>
<filter id="filter0_d" x="-25" y="-18" width="72" height="72" filterUnits="userSpaceOnUse" color-interpolation-filters="sRGB">
<feFlood flood-opacity="0" result="BackgroundImageFix"/>
<feColorMatrix in="SourceAlpha" type="matrix" values="0 0 0 0 0 0 0 0 0 0 0 0 0 0 0 0 0 0 127 0"/>
<feOffset dy="7"/>
<feGaussianBlur stdDeviation="12.5"/>
<feColorMatrix type="matrix" values="0 0 0 0 0 0 0 0 0 0 0 0 0 0 0 0 0 0 0.1 0"/>
<feBlend mode="normal" in2="BackgroundImageFix" result="effect1_dropShadow"/>
<feBlend mode="normal" in="SourceGraphic" in2="effect1_dropShadow" result="shape"/>
</filter>
</defs>
</svg>
