<svg width="16" height="16" viewBox="0 0 16 16" fill="none" xmlns="http://www.w3.org/2000/svg">
<path fill-rule="evenodd" clip-rule="evenodd" d="M1 10.6667H6.11111C6.31793 10.6667 6.51009 10.7295 6.66956 10.837C6.75231 10.8928 6.82626 10.9607 6.88889 11.0381C7.02787 11.2098 7.11111 11.4285 7.11111 11.6667V15C7.11111 15.2068 7.04832 15.399 6.94077 15.5584C6.76112 15.8248 6.45657 16 6.11111 16H1C0.447715 16 0 15.5523 0 15V11.6667C0 11.3212 0.17518 11.0167 0.441553 10.837C0.601024 10.7295 0.793178 10.6667 1 10.6667ZM6.94077 0.441553C6.76112 0.175181 6.45657 0 6.11111 0H1C0.447715 0 0 0.447715 0 1V7.88889C0 8.23435 0.17518 8.5389 0.441553 8.71855C0.601024 8.8261 0.793179 8.88889 1 8.88889H6.11111C6.31793 8.88889 6.51009 8.8261 6.66956 8.71855C6.75231 8.66274 6.82626 8.59488 6.88889 8.51748C6.98329 8.40082 7.05198 8.26249 7.08633 8.11111C7.10255 8.03964 7.11111 7.96527 7.11111 7.88889V1C7.11111 0.793179 7.04832 0.601025 6.94077 0.441553ZM9.11111 7.48252C9.01671 7.59918 8.94802 7.73751 8.91367 7.88889C8.89745 7.96036 8.88889 8.03473 8.88889 8.11111V15C8.88889 15.2068 8.95168 15.399 9.05923 15.5584C9.23888 15.8248 9.54343 16 9.88889 16H15C15.5523 16 16 15.5523 16 15V8.11111C16 7.76565 15.8248 7.4611 15.5584 7.28145C15.399 7.1739 15.2068 7.11111 15 7.11111H9.88889C9.68207 7.11111 9.48991 7.1739 9.33044 7.28145C9.24769 7.33726 9.17374 7.40512 9.11111 7.48252ZM9.05923 0.441553C8.95168 0.601024 8.88889 0.793179 8.88889 1V4.33333C8.88889 4.57148 8.97213 4.79018 9.11111 4.96193C9.17374 5.03932 9.24769 5.10718 9.33044 5.16299C9.48991 5.27055 9.68207 5.33333 9.88889 5.33333H15C15.2068 5.33333 15.399 5.27055 15.5584 5.16299C15.8248 4.98334 16 4.6788 16 4.33333V1C16 0.447716 15.5523 0 15 0H9.88889C9.54343 0 9.23888 0.17518 9.05923 0.441553ZM5.11111 6.88889H2V2H5.11111V6.88889ZM5.11111 14V12.6667H2V14H5.11111ZM14 14V9.11111H10.8889V14H14ZM10.8889 3.33333H14V2H10.8889V3.33333Z" fill="white"/>
</svg>
