<svg width="41" height="47" viewBox="0 0 41 47" fill="none" xmlns="http://www.w3.org/2000/svg">
<path d="M0.0931573 13.2206C0.114822 10.5285 2.18056 7.59075 4.70668 6.65894L21.9833 0.285146C24.5094 -0.64667 26.5384 0.780295 26.5167 3.47237L26.4235 14.8461L0 24.5942L0.0931573 13.2206Z" fill="#8A6EE6"/>
<path d="M33.5805 6.76416H6.49945C2.9099 6.76416 0 9.67406 0 13.2636V40.3447C0 43.9342 2.9099 46.8441 6.49945 46.8441H33.5805C37.1701 46.8441 40.08 43.9342 40.08 40.3447V13.2636C40.08 9.67406 37.1701 6.76416 33.5805 6.76416Z" fill="url(#paint0_linear)"/>
<mask id="mask0" mask-type="alpha" maskUnits="userSpaceOnUse" x="0" y="6" width="41" height="41">
<path d="M33.5805 6.76416H6.49945C2.9099 6.76416 0 9.67406 0 13.2636V40.3447C0 43.9342 2.9099 46.8441 6.49945 46.8441H33.5805C37.1701 46.8441 40.08 43.9342 40.08 40.3447V13.2636C40.08 9.67406 37.1701 6.76416 33.5805 6.76416Z" fill="url(#paint1_linear)" fill-opacity="0.8"/>
<path d="M33.5805 6.76416H6.49945C2.9099 6.76416 0 9.67406 0 13.2636V40.3447C0 43.9342 2.9099 46.8441 6.49945 46.8441H33.5805C37.1701 46.8441 40.08 43.9342 40.08 40.3447V13.2636C40.08 9.67406 37.1701 6.76416 33.5805 6.76416Z" fill="url(#paint2_linear)"/>
</mask>
<g mask="url(#mask0)">
<g opacity="0.75" filter="url(#filter0_f)">
<path opacity="0.75" d="M13.4646 21.9378C23.9271 21.9378 32.4087 17.8576 32.4087 12.8244C32.4087 7.79116 23.9271 3.71094 13.4646 3.71094C3.00206 3.71094 -5.47949 7.79116 -5.47949 12.8244C-5.47949 17.8576 3.00206 21.9378 13.4646 21.9378Z" fill="#1C5AF6"/>
</g>
<g style="mix-blend-mode:soft-light">
<path d="M33.5805 6.76416H6.49945C2.9099 6.76416 0 9.67406 0 13.2636V40.3447C0 43.9342 2.9099 46.8441 6.49945 46.8441H33.5805C37.1701 46.8441 40.08 43.9342 40.08 40.3447V13.2636C40.08 9.67406 37.1701 6.76416 33.5805 6.76416Z" fill="white" fill-opacity="0.07"/>
</g>
<g filter="url(#filter1_dd)">
<path d="M21.2211 13.48H21.8494C22.8146 13.5183 23.7808 13.6973 24.6756 14.0664C25.2822 14.316 25.8802 14.6326 26.3275 15.1224C26.5875 15.4066 26.7923 15.7427 26.9244 16.1049C27.075 16.5252 27.1313 16.9769 27.1096 17.4219C27.0869 17.8383 26.9959 18.2547 26.8172 18.6327C26.6764 18.9114 26.5366 19.1926 26.3535 19.4467C26.1239 19.7695 25.8303 20.0533 25.4772 20.2368C25.0547 20.4548 24.5564 20.5403 24.0896 20.4361C23.4808 20.3107 22.9587 19.8466 22.7518 19.263C22.7139 19.0838 22.7388 18.8899 22.8168 18.7244C22.8644 18.6176 22.989 18.5875 23.0941 18.574C23.3237 18.5474 23.5414 18.6425 23.7668 18.6633C23.9184 18.6832 24.043 18.563 24.1145 18.4417C24.1946 18.3199 24.2098 18.1713 24.2109 18.0294C24.2109 17.7891 24.2152 17.546 24.1643 17.3097C24.1242 17.1093 24.0181 16.9305 23.9076 16.7616C23.7364 16.5053 23.4765 16.3276 23.2111 16.1803C22.7886 15.9333 22.2979 15.8341 21.8148 15.8003C21.401 15.7671 20.9828 15.7879 20.5755 15.8733C19.8194 16.0397 19.1413 16.4771 18.6181 17.0404C18.1794 17.5005 17.8187 18.0549 17.6735 18.6798C17.5327 19.2816 17.5944 19.9322 17.8631 20.4907C18.0906 20.968 18.447 21.374 18.8608 21.6996C19.4663 22.2014 20.1227 22.6377 20.8063 23.0251C21.2168 23.2634 21.6523 23.4538 22.0801 23.6588C22.5102 23.867 22.9348 24.0856 23.3551 24.3131C23.614 24.4576 23.8794 24.5934 24.1351 24.7453C24.5077 24.9689 24.8619 25.2245 25.1912 25.5092C25.4371 25.7169 25.6549 25.9553 25.8932 26.1717C26.2127 26.4752 26.5041 26.8065 26.7738 27.1542C26.9439 27.3765 27.1107 27.6024 27.2559 27.8429C27.6296 28.4588 27.882 29.1489 27.9892 29.8619C28.0272 30.101 28.0423 30.343 28.0564 30.5846V30.9746C28.0358 31.5119 27.9882 32.05 27.8755 32.5767C27.7065 33.3997 27.4 34.1966 26.9547 34.9104C26.5691 35.5309 26.0838 36.0862 25.5335 36.5656C25.006 37.018 24.4319 37.416 23.8307 37.7652C23.0702 38.2037 22.2578 38.5547 21.4107 38.7889C20.7239 38.9836 20.0144 39.0785 19.307 39.1554C19.2193 39.2932 19.1381 39.4353 19.0557 39.5766C18.8575 39.928 18.6961 40.308 18.4199 40.6085C18.1372 40.9293 17.7439 41.1748 17.3096 41.2069C16.9532 41.237 16.5935 41.1074 16.3184 40.8815C15.9707 40.5877 15.767 40.1433 15.7204 39.6942C15.6977 39.5577 15.7876 39.4059 15.9295 39.3831C16.3411 39.3017 16.7484 39.1795 17.1243 38.9914C17.1774 38.9639 17.2337 38.9422 17.2792 38.9037C17.302 38.838 17.2229 38.8058 17.1731 38.7919C16.8329 38.7054 16.4874 38.6337 16.1505 38.5323C15.6999 38.4019 15.2579 38.2446 14.8246 38.0648C14.4964 37.927 14.1682 37.7834 13.867 37.5919C13.3741 37.226 12.9029 36.8174 12.5422 36.3171C12.188 35.8236 12.0721 35.2077 12.0244 34.614V34.2457C12.0396 34.1038 12.0591 33.9619 12.0937 33.8233C12.2367 33.2154 12.6007 32.674 13.0719 32.2701C13.7099 31.7205 14.5614 31.4107 15.4063 31.4694C16.0898 31.5134 16.7452 31.7887 17.2911 32.1958C17.8544 32.6137 18.3148 33.1597 18.6755 33.7589C19.0709 34.4186 19.358 35.144 19.5129 35.8977C19.528 35.969 19.5345 36.0428 19.5616 36.1115C19.8855 36.0411 20.1975 35.9271 20.5051 35.808C21.1702 35.5398 21.7996 35.1819 22.3575 34.7304C22.807 34.3653 23.2121 33.9409 23.5295 33.4554C23.8577 32.9526 24.0972 32.3854 24.1881 31.7898C24.2152 31.5944 24.2531 31.3979 24.2391 31.1999C24.2196 30.9683 24.173 30.7393 24.1015 30.5185C23.8946 29.89 23.4981 29.3425 23.0399 28.8731C22.4549 28.2621 21.7844 27.7359 21.0608 27.2993C19.9646 26.6672 18.8651 26.0395 17.7613 25.4212C16.6824 24.8319 15.6912 24.0734 14.8777 23.1499C14.4021 22.6256 14.0284 22.0038 13.8237 21.3248C13.5843 20.5425 13.5919 19.706 13.7197 18.9046C13.8843 17.8903 14.3426 16.9251 15.0304 16.161C15.4756 15.6603 16.0053 15.2407 16.5729 14.8867C17.2023 14.4961 17.8728 14.1694 18.5791 13.9423C19.4316 13.6622 20.3253 13.5164 21.2211 13.48ZM14.1476 33.9962C14.0468 34.1725 14.0252 34.3816 14.0317 34.5811C14.0479 34.8827 14.2061 35.1635 14.4271 35.3645C14.7271 35.6416 15.1051 35.8119 15.4843 35.9516C15.6836 36.0212 15.8797 36.1018 16.0833 36.1577C16.4224 36.2543 16.7701 36.3111 17.1157 36.3726C17.2316 36.3916 17.3453 36.4205 17.4634 36.4194C17.2478 35.6607 16.8643 34.9492 16.3487 34.3534C16.1819 34.1582 15.9967 33.9769 15.7822 33.8343C15.5417 33.6723 15.2633 33.5548 14.9708 33.5408C14.6404 33.5271 14.3176 33.7165 14.1476 33.9962Z" fill="white"/>
</g>
</g>
<defs>
<filter id="filter0_f" x="-79.4795" y="-70.2891" width="185.888" height="166.227" filterUnits="userSpaceOnUse" color-interpolation-filters="sRGB">
<feFlood flood-opacity="0" result="BackgroundImageFix"/>
<feBlend mode="normal" in="SourceGraphic" in2="BackgroundImageFix" result="shape"/>
<feGaussianBlur stdDeviation="37" result="effect1_foregroundBlur"/>
</filter>
<filter id="filter1_dd" x="-7.97559" y="3.47998" width="56.032" height="67.7312" filterUnits="userSpaceOnUse" color-interpolation-filters="sRGB">
<feFlood flood-opacity="0" result="BackgroundImageFix"/>
<feColorMatrix in="SourceAlpha" type="matrix" values="0 0 0 0 0 0 0 0 0 0 0 0 0 0 0 0 0 0 127 0"/>
<feOffset dy="10"/>
<feGaussianBlur stdDeviation="10"/>
<feColorMatrix type="matrix" values="0 0 0 0 0.415502 0 0 0 0 0.3675 0 0 0 0 0.816667 0 0 0 0.1 0"/>
<feBlend mode="normal" in2="BackgroundImageFix" result="effect1_dropShadow"/>
<feColorMatrix in="SourceAlpha" type="matrix" values="0 0 0 0 0 0 0 0 0 0 0 0 0 0 0 0 0 0 127 0"/>
<feOffset dy="10"/>
<feGaussianBlur stdDeviation="10"/>
<feColorMatrix type="matrix" values="0 0 0 0 0.415686 0 0 0 0 0.368627 0 0 0 0 0.815686 0 0 0 0.1 0"/>
<feBlend mode="normal" in2="effect1_dropShadow" result="effect2_dropShadow"/>
<feBlend mode="normal" in="SourceGraphic" in2="effect2_dropShadow" result="shape"/>
</filter>
<linearGradient id="paint0_linear" x1="1.67036" y1="1.72676" x2="52.1516" y2="24.9911" gradientUnits="userSpaceOnUse">
<stop offset="0.146779" stop-color="#545BE9"/>
<stop offset="0.832983" stop-color="#B782F8"/>
</linearGradient>
<linearGradient id="paint1_linear" x1="37.8886" y1="7.43219" x2="20.8188" y2="52.4481" gradientUnits="userSpaceOnUse">
<stop stop-color="#55C0F7"/>
<stop offset="1" stop-color="#A8E8FA"/>
</linearGradient>
<linearGradient id="paint2_linear" x1="1.25223" y1="7.33676" x2="17.9667" y2="54.3448" gradientUnits="userSpaceOnUse">
<stop stop-color="#1B5CF6"/>
<stop offset="0.503297" stop-color="#429EFF"/>
<stop offset="0.890632" stop-color="#D33BA7"/>
</linearGradient>
</defs>
</svg>
