<svg width="16" height="16" viewBox="0 0 16 16" fill="none" xmlns="http://www.w3.org/2000/svg">
<path d="M0.386039 12.8249C0.213399 12.6876 0.087389 12.4944 0.035469 12.2728C-0.011701 12.095 -0.011821 11.9064 0.035099 11.7286C0.086859 11.506 0.213359 11.312 0.386789 11.1742L3.14355 8.29857C3.52519 7.90047 4.14394 7.90047 4.52557 8.29857L4.55667 8.33097C4.9383 8.72907 4.9383 9.37457 4.55667 9.77267L3.42076 10.9575H10.9999C11.5522 10.9575 11.9999 11.404 11.9999 11.9547V12.045C11.9999 12.5958 11.5522 13.0422 10.9999 13.0422H3.42058L4.55667 14.2273C4.9383 14.6254 4.9383 15.2709 4.55667 15.669L4.52557 15.7014C4.14394 16.0995 3.52519 16.0995 3.14355 15.7014L0.386039 12.8249Z" fill="white"/>
<path d="M15.6139 3.17508C15.7865 3.31238 15.9126 3.50558 15.9645 3.72718C16.0116 3.90498 16.0118 4.09348 15.9648 4.27138C15.9131 4.49398 15.7866 4.68797 15.6131 4.82567L12.8564 7.70137C12.4748 8.09947 11.856 8.09947 11.4744 7.70137L11.4433 7.66897C11.0616 7.27087 11.0616 6.62537 11.4433 6.22727L12.5792 5.04238H5C4.44772 5.04238 4 4.59598 4 4.04518V3.95498C4 3.40418 4.44772 2.95778 5 2.95778H12.5794L11.4433 1.77268C11.0616 1.37458 11.0616 0.729075 11.4433 0.330975L11.4744 0.298575C11.856 -0.099525 12.4748 -0.099525 12.8564 0.298575L15.6139 3.17508Z" fill="white"/>
</svg>
