<svg width="240" height="1720" viewBox="0 0 240 1720" fill="none" xmlns="http://www.w3.org/2000/svg">
<g clip-path="url(#clip0)">
<rect width="240" height="1720" fill="#6357D9"/>
<rect width="240" height="1720" fill="url(#paint0_linear)"/>
<rect width="240" height="1720" fill="url(#paint1_linear)" style="mix-blend-mode:multiply"/>
<rect width="240" height="1720" fill="#181A2B"/>
<path d="M25.236 1651.17C24.312 1651.17 23.5047 1650.96 22.814 1650.54C22.1233 1650.12 21.5867 1649.53 21.204 1648.79C20.8213 1648.03 20.63 1647.15 20.63 1646.16C20.63 1645.15 20.826 1644.26 21.218 1643.5C21.6193 1642.72 22.184 1642.12 22.912 1641.69C23.6493 1641.25 24.522 1641.03 25.53 1641.03C26.678 1641.03 27.63 1641.31 28.386 1641.86C29.142 1642.41 29.632 1643.17 29.856 1644.14H27.854C27.7047 1643.68 27.434 1643.33 27.042 1643.08C26.65 1642.81 26.146 1642.68 25.53 1642.68C24.55 1642.68 23.794 1643 23.262 1643.62C22.73 1644.24 22.464 1645.09 22.464 1646.17C22.464 1647.25 22.7253 1648.09 23.248 1648.69C23.78 1649.28 24.4987 1649.57 25.404 1649.57C26.2907 1649.57 26.958 1649.33 27.406 1648.86C27.8633 1648.37 28.1387 1647.74 28.232 1646.95H25.754V1645.61H30.038V1651H28.386L28.246 1649.71C27.9287 1650.18 27.532 1650.54 27.056 1650.79C26.58 1651.04 25.9733 1651.17 25.236 1651.17ZM35.1121 1651.17C34.4121 1651.17 33.7915 1651.02 33.2501 1650.72C32.7088 1650.42 32.2841 1650 31.9761 1649.46C31.6681 1648.92 31.5141 1648.29 31.5141 1647.58C31.5141 1646.87 31.6635 1646.23 31.9621 1645.67C32.2701 1645.11 32.6901 1644.67 33.2221 1644.36C33.7635 1644.05 34.3981 1643.89 35.1261 1643.89C35.8075 1643.89 36.4095 1644.04 36.9321 1644.34C37.4548 1644.63 37.8608 1645.05 38.1501 1645.57C38.4488 1646.08 38.5981 1646.66 38.5981 1647.29C38.5981 1647.39 38.5935 1647.5 38.5841 1647.61C38.5841 1647.72 38.5795 1647.84 38.5701 1647.96H33.2921C33.3295 1648.5 33.5161 1648.93 33.8521 1649.24C34.1975 1649.54 34.6128 1649.7 35.0981 1649.7C35.4621 1649.7 35.7655 1649.62 36.0081 1649.46C36.2601 1649.29 36.4468 1649.08 36.5681 1648.82H38.3881C38.2575 1649.25 38.0381 1649.66 37.7301 1650.02C37.4315 1650.37 37.0581 1650.65 36.6101 1650.86C36.1715 1651.07 35.6721 1651.17 35.1121 1651.17ZM35.1261 1645.34C34.6875 1645.34 34.3001 1645.47 33.9641 1645.72C33.6281 1645.96 33.4135 1646.34 33.3201 1646.84H36.7781C36.7501 1646.38 36.5821 1646.02 36.2741 1645.75C35.9661 1645.48 35.5835 1645.34 35.1261 1645.34ZM43.0763 1651C42.3483 1651 41.7649 1650.82 41.3263 1650.47C40.8876 1650.11 40.6683 1649.48 40.6683 1648.58V1645.55H39.4783V1644.06H40.6683L40.8783 1642.19H42.4603V1644.06H44.3363V1645.55H42.4603V1648.59C42.4603 1648.93 42.5303 1649.16 42.6703 1649.29C42.8196 1649.41 43.0716 1649.47 43.4263 1649.47H44.2943V1651H43.0763ZM51.8148 1651.17C50.9468 1651.17 50.2748 1650.9 49.7988 1650.36C49.3321 1649.81 49.0988 1649.02 49.0988 1647.98V1644.06H50.8768V1647.81C50.8768 1648.41 50.9981 1648.86 51.2408 1649.18C51.4834 1649.5 51.8661 1649.66 52.3888 1649.66C52.8834 1649.66 53.2894 1649.48 53.6068 1649.12C53.9334 1648.77 54.0968 1648.27 54.0968 1647.64V1644.06H55.8888V1651H54.3068L54.1668 1649.82C53.9521 1650.23 53.6394 1650.56 53.2288 1650.8C52.8274 1651.05 52.3561 1651.17 51.8148 1651.17ZM57.7284 1654.08V1644.06H59.3244L59.5204 1645.05C59.7444 1644.74 60.0384 1644.47 60.4024 1644.24C60.7757 1644 61.2564 1643.89 61.8444 1643.89C62.4977 1643.89 63.081 1644.05 63.5944 1644.36C64.1077 1644.68 64.5137 1645.12 64.8124 1645.67C65.111 1646.22 65.2604 1646.84 65.2604 1647.54C65.2604 1648.24 65.111 1648.87 64.8124 1649.42C64.5137 1649.96 64.1077 1650.39 63.5944 1650.71C63.081 1651.01 62.4977 1651.17 61.8444 1651.17C61.3217 1651.17 60.8644 1651.07 60.4724 1650.87C60.0804 1650.68 59.763 1650.4 59.5204 1650.05V1654.08H57.7284ZM61.4664 1649.6C62.0357 1649.6 62.507 1649.41 62.8804 1649.03C63.2537 1648.64 63.4404 1648.15 63.4404 1647.54C63.4404 1646.94 63.2537 1646.44 62.8804 1646.04C62.507 1645.65 62.0357 1645.46 61.4664 1645.46C60.8877 1645.46 60.4117 1645.65 60.0384 1646.04C59.6744 1646.43 59.4924 1646.92 59.4924 1647.53C59.4924 1648.13 59.6744 1648.63 60.0384 1649.03C60.4117 1649.41 60.8877 1649.6 61.4664 1649.6ZM73.2911 1651C72.5631 1651 71.9798 1650.82 71.5411 1650.47C71.1024 1650.11 70.8831 1649.48 70.8831 1648.58V1645.55H69.6931V1644.06H70.8831L71.0931 1642.19H72.6751V1644.06H74.5511V1645.55H72.6751V1648.59C72.6751 1648.93 72.7451 1649.16 72.8851 1649.29C73.0344 1649.41 73.2864 1649.47 73.6411 1649.47H74.5091V1651H73.2911ZM79.244 1651.17C78.572 1651.17 77.9653 1651.01 77.424 1650.71C76.892 1650.4 76.4673 1649.97 76.15 1649.43C75.842 1648.88 75.688 1648.25 75.688 1647.53C75.688 1646.81 75.8466 1646.18 76.164 1645.64C76.4813 1645.09 76.906 1644.66 77.438 1644.35C77.9793 1644.04 78.586 1643.89 79.258 1643.89C79.9206 1643.89 80.518 1644.04 81.05 1644.35C81.5913 1644.66 82.016 1645.09 82.324 1645.64C82.6413 1646.18 82.8 1646.81 82.8 1647.53C82.8 1648.25 82.6413 1648.88 82.324 1649.43C82.016 1649.97 81.5913 1650.4 81.05 1650.71C80.5086 1651.01 79.9066 1651.17 79.244 1651.17ZM79.244 1649.61C79.7106 1649.61 80.1166 1649.44 80.462 1649.1C80.8073 1648.74 80.98 1648.22 80.98 1647.53C80.98 1646.84 80.8073 1646.32 80.462 1645.97C80.1166 1645.62 79.7153 1645.44 79.258 1645.44C78.782 1645.44 78.3713 1645.62 78.026 1645.97C77.69 1646.32 77.522 1646.84 77.522 1647.53C77.522 1648.22 77.69 1648.74 78.026 1649.1C78.3713 1649.44 78.7773 1649.61 79.244 1649.61ZM90.5241 1652.22V1651.14C89.6188 1651.04 88.8815 1650.72 88.3121 1650.19C87.7428 1649.66 87.4488 1648.94 87.4301 1648.05H89.3201C89.3388 1648.42 89.4508 1648.75 89.6561 1649.03C89.8708 1649.31 90.1601 1649.5 90.5241 1649.6V1646.65C90.4401 1646.62 90.3515 1646.59 90.2581 1646.56C90.1741 1646.53 90.0855 1646.51 89.9921 1646.48C89.2361 1646.22 88.6575 1645.88 88.2561 1645.47C87.8641 1645.06 87.6681 1644.51 87.6681 1643.83C87.6588 1643.03 87.9201 1642.39 88.4521 1641.9C88.9841 1641.41 89.6748 1641.12 90.5241 1641.05V1639.91H91.4621V1641.06C92.3021 1641.14 92.9788 1641.44 93.4921 1641.94C94.0148 1642.44 94.2901 1643.08 94.3181 1643.86H92.4001C92.3908 1643.59 92.3021 1643.34 92.1341 1643.12C91.9755 1642.88 91.7515 1642.72 91.4621 1642.63V1645.23C91.5368 1645.26 91.6115 1645.29 91.6861 1645.32C91.7608 1645.33 91.8355 1645.36 91.9101 1645.39C92.3955 1645.55 92.8388 1645.75 93.2401 1645.97C93.6415 1646.2 93.9635 1646.5 94.2061 1646.87C94.4488 1647.23 94.5701 1647.71 94.5701 1648.28C94.5701 1648.77 94.4488 1649.22 94.2061 1649.64C93.9728 1650.06 93.6228 1650.41 93.1561 1650.69C92.6988 1650.96 92.1341 1651.12 91.4621 1651.15V1652.22H90.5241ZM89.5441 1643.71C89.5441 1644 89.6328 1644.25 89.8101 1644.43C89.9875 1644.61 90.2255 1644.77 90.5241 1644.9V1642.57C90.2348 1642.63 89.9968 1642.75 89.8101 1642.95C89.6328 1643.15 89.5441 1643.4 89.5441 1643.71ZM92.6661 1648.41C92.6661 1648.04 92.5541 1647.74 92.3301 1647.53C92.1061 1647.31 91.8168 1647.13 91.4621 1646.98V1649.64C91.8355 1649.59 92.1295 1649.45 92.3441 1649.24C92.5588 1649.02 92.6661 1648.75 92.6661 1648.41ZM95.8956 1651V1649.7C96.493 1649.2 97.0716 1648.71 97.6316 1648.23C98.201 1647.74 98.705 1647.26 99.1436 1646.79C99.5916 1646.31 99.9463 1645.85 100.208 1645.4C100.478 1644.94 100.614 1644.5 100.614 1644.07C100.614 1643.67 100.502 1643.31 100.278 1643.01C100.063 1642.7 99.7036 1642.54 99.1996 1642.54C98.6863 1642.54 98.299 1642.71 98.0376 1643.05C97.7763 1643.38 97.6456 1643.79 97.6456 1644.27H95.9096C95.9283 1643.55 96.087 1642.95 96.3856 1642.47C96.6843 1641.99 97.081 1641.63 97.5756 1641.4C98.0703 1641.15 98.6256 1641.03 99.2416 1641.03C100.24 1641.03 101.015 1641.31 101.566 1641.86C102.126 1642.4 102.406 1643.1 102.406 1643.97C102.406 1644.51 102.28 1645.04 102.028 1645.55C101.785 1646.07 101.463 1646.56 101.062 1647.04C100.66 1647.51 100.226 1647.96 99.7596 1648.38C99.293 1648.79 98.8403 1649.18 98.4016 1649.53H102.644V1651H95.8956ZM107.646 1651.17C106.927 1651.17 106.306 1651.04 105.784 1650.79C105.27 1650.54 104.864 1650.19 104.566 1649.75C104.276 1649.31 104.108 1648.8 104.062 1648.24H105.812C105.896 1648.64 106.101 1648.98 106.428 1649.25C106.754 1649.51 107.16 1649.64 107.646 1649.64C108.168 1649.64 108.593 1649.45 108.92 1649.07C109.256 1648.69 109.424 1648.21 109.424 1647.64C109.424 1647.05 109.256 1646.59 108.92 1646.24C108.593 1645.89 108.178 1645.72 107.674 1645.72C107.254 1645.72 106.89 1645.82 106.582 1646.03C106.274 1646.24 106.054 1646.49 105.924 1646.8H104.202L105.042 1641.2H110.474V1642.77H106.386L105.938 1645.04C106.143 1644.81 106.423 1644.63 106.778 1644.49C107.132 1644.34 107.529 1644.27 107.968 1644.27C108.668 1644.27 109.251 1644.42 109.718 1644.74C110.184 1645.05 110.539 1645.46 110.782 1645.97C111.024 1646.48 111.146 1647.03 111.146 1647.63C111.146 1648.31 110.996 1648.91 110.698 1649.45C110.408 1649.98 109.998 1650.4 109.466 1650.71C108.943 1651.01 108.336 1651.17 107.646 1651.17ZM116.831 1651.17C115.926 1651.17 115.151 1650.96 114.507 1650.54C113.863 1650.11 113.364 1649.52 113.009 1648.76C112.664 1647.99 112.491 1647.11 112.491 1646.1C112.491 1645.1 112.664 1644.22 113.009 1643.45C113.364 1642.69 113.863 1642.1 114.507 1641.68C115.151 1641.25 115.926 1641.03 116.831 1641.03C117.737 1641.03 118.511 1641.25 119.155 1641.68C119.799 1642.1 120.294 1642.69 120.639 1643.45C120.994 1644.22 121.171 1645.1 121.171 1646.1C121.171 1647.11 120.994 1647.99 120.639 1648.76C120.294 1649.52 119.799 1650.11 119.155 1650.54C118.511 1650.96 117.737 1651.17 116.831 1651.17ZM116.831 1649.56C117.569 1649.56 118.171 1649.25 118.637 1648.63C119.104 1648.02 119.337 1647.17 119.337 1646.1C119.337 1645.03 119.104 1644.18 118.637 1643.57C118.171 1642.95 117.569 1642.64 116.831 1642.64C116.085 1642.64 115.478 1642.95 115.011 1643.57C114.554 1644.18 114.325 1645.03 114.325 1646.1C114.325 1647.17 114.554 1648.02 115.011 1648.63C115.478 1649.25 116.085 1649.56 116.831 1649.56ZM126.369 1651V1645.55H125.417V1644.06H126.369V1643.24C126.369 1642.4 126.579 1641.81 126.999 1641.45C127.428 1641.1 128.007 1640.92 128.735 1640.92H129.505V1642.45H129.015C128.707 1642.45 128.487 1642.51 128.357 1642.63C128.226 1642.75 128.161 1642.95 128.161 1643.24V1644.06H129.659V1645.55H128.161V1651H126.369ZM134.137 1651.17C133.465 1651.17 132.858 1651.01 132.317 1650.71C131.785 1650.4 131.36 1649.97 131.043 1649.43C130.735 1648.88 130.581 1648.25 130.581 1647.53C130.581 1646.81 130.739 1646.18 131.057 1645.64C131.374 1645.09 131.799 1644.66 132.331 1644.35C132.872 1644.04 133.479 1643.89 134.151 1643.89C134.813 1643.89 135.411 1644.04 135.943 1644.35C136.484 1644.66 136.909 1645.09 137.217 1645.64C137.534 1646.18 137.693 1646.81 137.693 1647.53C137.693 1648.25 137.534 1648.88 137.217 1649.43C136.909 1649.97 136.484 1650.4 135.943 1650.71C135.401 1651.01 134.799 1651.17 134.137 1651.17ZM134.137 1649.61C134.603 1649.61 135.009 1649.44 135.355 1649.1C135.7 1648.74 135.873 1648.22 135.873 1647.53C135.873 1646.84 135.7 1646.32 135.355 1645.97C135.009 1645.62 134.608 1645.44 134.151 1645.44C133.675 1645.44 133.264 1645.62 132.919 1645.97C132.583 1646.32 132.415 1646.84 132.415 1647.53C132.415 1648.22 132.583 1648.74 132.919 1649.1C133.264 1649.44 133.67 1649.61 134.137 1649.61ZM139.295 1651V1644.06H140.891L141.059 1645.36C141.311 1644.91 141.651 1644.56 142.081 1644.29C142.519 1644.02 143.033 1643.89 143.621 1643.89V1645.78H143.117C142.725 1645.78 142.375 1645.84 142.067 1645.96C141.759 1646.08 141.516 1646.29 141.339 1646.59C141.171 1646.89 141.087 1647.3 141.087 1647.84V1651H139.295ZM148.223 1651V1641.2H151.821C152.605 1641.2 153.249 1641.34 153.753 1641.61C154.267 1641.87 154.649 1642.23 154.901 1642.68C155.153 1643.13 155.279 1643.63 155.279 1644.18C155.279 1644.78 155.121 1645.33 154.803 1645.82C154.495 1646.31 154.01 1646.67 153.347 1646.9L155.377 1651H153.319L151.499 1647.14H150.015V1651H148.223ZM150.015 1645.82H151.709C152.307 1645.82 152.745 1645.68 153.025 1645.39C153.305 1645.1 153.445 1644.71 153.445 1644.24C153.445 1643.77 153.305 1643.4 153.025 1643.12C152.755 1642.84 152.311 1642.7 151.695 1642.7H150.015V1645.82ZM159.854 1651.17C159.154 1651.17 158.534 1651.02 157.992 1650.72C157.451 1650.42 157.026 1650 156.718 1649.46C156.41 1648.92 156.256 1648.29 156.256 1647.58C156.256 1646.87 156.406 1646.23 156.704 1645.67C157.012 1645.11 157.432 1644.67 157.964 1644.36C158.506 1644.05 159.14 1643.89 159.868 1643.89C160.55 1643.89 161.152 1644.04 161.674 1644.34C162.197 1644.63 162.603 1645.05 162.892 1645.57C163.191 1646.08 163.34 1646.66 163.34 1647.29C163.34 1647.39 163.336 1647.5 163.326 1647.61C163.326 1647.72 163.322 1647.84 163.312 1647.96H158.034C158.072 1648.5 158.258 1648.93 158.594 1649.24C158.94 1649.54 159.355 1649.7 159.84 1649.7C160.204 1649.7 160.508 1649.62 160.75 1649.46C161.002 1649.29 161.189 1649.08 161.31 1648.82H163.13C163 1649.25 162.78 1649.66 162.472 1650.02C162.174 1650.37 161.8 1650.65 161.352 1650.86C160.914 1651.07 160.414 1651.17 159.854 1651.17ZM159.868 1645.34C159.43 1645.34 159.042 1645.47 158.706 1645.72C158.37 1645.96 158.156 1646.34 158.062 1646.84H161.52C161.492 1646.38 161.324 1646.02 161.016 1645.75C160.708 1645.48 160.326 1645.34 159.868 1645.34ZM165.17 1651V1645.55H164.218V1644.06H165.17V1643.24C165.17 1642.4 165.38 1641.81 165.8 1641.45C166.229 1641.1 166.808 1640.92 167.535 1640.92H168.306V1642.45H167.816C167.508 1642.45 167.288 1642.51 167.158 1642.63C167.027 1642.75 166.962 1642.95 166.962 1643.24V1644.06H168.46V1645.55H166.962V1651H165.17ZM172.979 1651.17C172.279 1651.17 171.659 1651.02 171.117 1650.72C170.576 1650.42 170.151 1650 169.843 1649.46C169.535 1648.92 169.381 1648.29 169.381 1647.58C169.381 1646.87 169.531 1646.23 169.829 1645.67C170.137 1645.11 170.557 1644.67 171.089 1644.36C171.631 1644.05 172.265 1643.89 172.993 1643.89C173.675 1643.89 174.277 1644.04 174.799 1644.34C175.322 1644.63 175.728 1645.05 176.017 1645.57C176.316 1646.08 176.465 1646.66 176.465 1647.29C176.465 1647.39 176.461 1647.5 176.451 1647.61C176.451 1647.72 176.447 1647.84 176.437 1647.96H171.159C171.197 1648.5 171.383 1648.93 171.719 1649.24C172.065 1649.54 172.48 1649.7 172.965 1649.7C173.329 1649.7 173.633 1649.62 173.875 1649.46C174.127 1649.29 174.314 1649.08 174.435 1648.82H176.255C176.125 1649.25 175.905 1649.66 175.597 1650.02C175.299 1650.37 174.925 1650.65 174.477 1650.86C174.039 1651.07 173.539 1651.17 172.979 1651.17ZM172.993 1645.34C172.555 1645.34 172.167 1645.47 171.831 1645.72C171.495 1645.96 171.281 1646.34 171.187 1646.84H174.645C174.617 1646.38 174.449 1646.02 174.141 1645.75C173.833 1645.48 173.451 1645.34 172.993 1645.34ZM177.973 1651V1644.06H179.569L179.737 1645.36C179.989 1644.91 180.329 1644.56 180.758 1644.29C181.197 1644.02 181.711 1643.89 182.299 1643.89V1645.78H181.795C181.403 1645.78 181.053 1645.84 180.745 1645.96C180.437 1646.08 180.194 1646.29 180.017 1646.59C179.849 1646.89 179.765 1647.3 179.765 1647.84V1651H177.973ZM183.523 1651V1644.06H185.119L185.287 1645.36C185.539 1644.91 185.88 1644.56 186.309 1644.29C186.748 1644.02 187.261 1643.89 187.849 1643.89V1645.78H187.345C186.953 1645.78 186.603 1645.84 186.295 1645.96C185.987 1646.08 185.745 1646.29 185.567 1646.59C185.399 1646.89 185.315 1647.3 185.315 1647.84V1651H183.523ZM191.468 1651.17C190.871 1651.17 190.381 1651.07 189.998 1650.89C189.615 1650.69 189.331 1650.44 189.144 1650.12C188.957 1649.8 188.864 1649.45 188.864 1649.07C188.864 1648.42 189.116 1647.9 189.62 1647.5C190.124 1647.1 190.88 1646.9 191.888 1646.9H193.652V1646.73C193.652 1646.25 193.517 1645.9 193.246 1645.68C192.975 1645.46 192.639 1645.34 192.238 1645.34C191.874 1645.34 191.557 1645.43 191.286 1645.61C191.015 1645.78 190.847 1646.03 190.782 1646.37H189.032C189.079 1645.86 189.247 1645.42 189.536 1645.05C189.835 1644.68 190.217 1644.39 190.684 1644.2C191.151 1643.99 191.673 1643.89 192.252 1643.89C193.241 1643.89 194.021 1644.14 194.59 1644.63C195.159 1645.12 195.444 1645.82 195.444 1646.73V1651H193.918L193.75 1649.88C193.545 1650.25 193.255 1650.56 192.882 1650.8C192.518 1651.05 192.047 1651.17 191.468 1651.17ZM191.874 1649.77C192.387 1649.77 192.784 1649.6 193.064 1649.26C193.353 1648.93 193.535 1648.51 193.61 1648.02H192.084C191.608 1648.02 191.267 1648.11 191.062 1648.28C190.857 1648.45 190.754 1648.66 190.754 1648.91C190.754 1649.18 190.857 1649.39 191.062 1649.54C191.267 1649.69 191.538 1649.77 191.874 1649.77ZM197.154 1651V1640.92H198.946V1651H197.154ZM203.647 1651.17C203.031 1651.17 202.49 1651.07 202.023 1650.87C201.557 1650.67 201.183 1650.39 200.903 1650.03C200.623 1649.68 200.455 1649.27 200.399 1648.8H202.205C202.261 1649.07 202.411 1649.31 202.653 1649.5C202.905 1649.69 203.227 1649.78 203.619 1649.78C204.011 1649.78 204.296 1649.7 204.473 1649.54C204.66 1649.39 204.753 1649.2 204.753 1649C204.753 1648.7 204.623 1648.5 204.361 1648.4C204.1 1648.28 203.736 1648.18 203.269 1648.07C202.971 1648.01 202.667 1647.93 202.359 1647.84C202.051 1647.74 201.767 1647.63 201.505 1647.49C201.253 1647.34 201.048 1647.15 200.889 1646.93C200.731 1646.69 200.651 1646.41 200.651 1646.07C200.651 1645.46 200.894 1644.94 201.379 1644.52C201.874 1644.1 202.565 1643.89 203.451 1643.89C204.273 1643.89 204.926 1644.08 205.411 1644.46C205.906 1644.84 206.2 1645.37 206.293 1646.04H204.599C204.497 1645.53 204.109 1645.27 203.437 1645.27C203.101 1645.27 202.84 1645.34 202.653 1645.47C202.476 1645.6 202.387 1645.76 202.387 1645.96C202.387 1646.17 202.523 1646.33 202.793 1646.45C203.064 1646.57 203.423 1646.68 203.871 1646.79C204.357 1646.9 204.8 1647.02 205.201 1647.16C205.612 1647.29 205.939 1647.5 206.181 1647.77C206.424 1648.03 206.545 1648.41 206.545 1648.9C206.555 1649.33 206.443 1649.72 206.209 1650.06C205.976 1650.41 205.64 1650.68 205.201 1650.87C204.763 1651.07 204.245 1651.17 203.647 1651.17ZM208.903 1651.1C208.576 1651.1 208.305 1651 208.091 1650.79C207.885 1650.58 207.783 1650.34 207.783 1650.05C207.783 1649.75 207.885 1649.5 208.091 1649.29C208.305 1649.09 208.576 1648.98 208.903 1648.98C209.229 1648.98 209.495 1649.09 209.701 1649.29C209.915 1649.5 210.023 1649.75 210.023 1650.05C210.023 1650.34 209.915 1650.58 209.701 1650.79C209.495 1651 209.229 1651.1 208.903 1651.1ZM20.952 1670V1660.2H27.35V1661.64H22.744V1664.33H26.93V1665.73H22.744V1668.56H27.35V1670H20.952ZM31.3978 1670.17C30.8004 1670.17 30.3104 1670.07 29.9278 1669.89C29.5451 1669.69 29.2604 1669.44 29.0738 1669.12C28.8871 1668.8 28.7938 1668.45 28.7938 1668.07C28.7938 1667.42 29.0458 1666.9 29.5498 1666.5C30.0538 1666.1 30.8098 1665.9 31.8178 1665.9H33.5818V1665.73C33.5818 1665.25 33.4464 1664.9 33.1758 1664.68C32.9051 1664.46 32.5691 1664.34 32.1678 1664.34C31.8038 1664.34 31.4864 1664.43 31.2158 1664.61C30.9451 1664.78 30.7771 1665.03 30.7118 1665.37H28.9618C29.0084 1664.86 29.1764 1664.42 29.4658 1664.05C29.7644 1663.68 30.1471 1663.39 30.6138 1663.2C31.0804 1662.99 31.6031 1662.89 32.1818 1662.89C33.1711 1662.89 33.9504 1663.14 34.5198 1663.63C35.0891 1664.12 35.3738 1664.82 35.3738 1665.73V1670H33.8478L33.6798 1668.88C33.4744 1669.25 33.1851 1669.56 32.8118 1669.8C32.4478 1670.05 31.9764 1670.17 31.3978 1670.17ZM31.8038 1668.77C32.3171 1668.77 32.7138 1668.6 32.9938 1668.26C33.2831 1667.93 33.4651 1667.51 33.5398 1667.02H32.0138C31.5378 1667.02 31.1971 1667.11 30.9918 1667.28C30.7864 1667.45 30.6838 1667.66 30.6838 1667.91C30.6838 1668.18 30.7864 1668.39 30.9918 1668.54C31.1971 1668.69 31.4678 1668.77 31.8038 1668.77ZM37.0838 1670V1663.06H38.6798L38.8478 1664.36C39.0998 1663.91 39.4405 1663.56 39.8698 1663.29C40.3085 1663.02 40.8218 1662.89 41.4098 1662.89V1664.78H40.9058C40.5138 1664.78 40.1638 1664.84 39.8558 1664.96C39.5478 1665.08 39.3052 1665.29 39.1278 1665.59C38.9598 1665.89 38.8758 1666.3 38.8758 1666.84V1670H37.0838ZM42.6346 1670V1663.06H44.2166L44.3566 1664.23C44.5713 1663.82 44.8793 1663.49 45.2806 1663.25C45.6913 1663.01 46.1719 1662.89 46.7226 1662.89C47.5813 1662.89 48.2486 1663.16 48.7246 1663.7C49.2006 1664.24 49.4386 1665.03 49.4386 1666.08V1670H47.6466V1666.25C47.6466 1665.65 47.5253 1665.19 47.2826 1664.88C47.0399 1664.56 46.6619 1664.4 46.1486 1664.4C45.6446 1664.4 45.2293 1664.58 44.9026 1664.93C44.5853 1665.29 44.4266 1665.78 44.4266 1666.42V1670H42.6346ZM58.3101 1670.17C57.5915 1670.17 56.9428 1670.03 56.3641 1669.75C55.7855 1669.46 55.3235 1669.02 54.9781 1668.45C54.6421 1667.87 54.4741 1667.13 54.4741 1666.25V1660.2H56.2661V1666.26C56.2661 1667.03 56.4481 1667.6 56.8121 1667.97C57.1855 1668.34 57.6988 1668.53 58.3521 1668.53C58.9961 1668.53 59.5048 1668.34 59.8781 1667.97C60.2515 1667.6 60.4381 1667.03 60.4381 1666.26V1660.2H62.2301V1666.25C62.2301 1667.13 62.0528 1667.87 61.6981 1668.45C61.3435 1669.02 60.8675 1669.46 60.2701 1669.75C59.6821 1670.03 59.0288 1670.17 58.3101 1670.17ZM64.0174 1670V1663.06H65.5994L65.7394 1664.23C65.9541 1663.82 66.2621 1663.49 66.6634 1663.25C67.0741 1663.01 67.5548 1662.89 68.1054 1662.89C68.9641 1662.89 69.6314 1663.16 70.1074 1663.7C70.5834 1664.24 70.8214 1665.03 70.8214 1666.08V1670H69.0294V1666.25C69.0294 1665.65 68.9081 1665.19 68.6654 1664.88C68.4228 1664.56 68.0448 1664.4 67.5314 1664.4C67.0274 1664.4 66.6121 1664.58 66.2854 1664.93C65.9681 1665.29 65.8094 1665.78 65.8094 1666.42V1670H64.0174ZM72.535 1670V1659.92H74.327V1670H72.535ZM77.124 1661.98C76.7974 1661.98 76.5267 1661.88 76.312 1661.68C76.1067 1661.49 76.004 1661.24 76.004 1660.94C76.004 1660.64 76.1067 1660.4 76.312 1660.21C76.5267 1660.02 76.7974 1659.92 77.124 1659.92C77.4507 1659.92 77.7167 1660.02 77.922 1660.21C78.1367 1660.4 78.244 1660.64 78.244 1660.94C78.244 1661.24 78.1367 1661.49 77.922 1661.68C77.7167 1661.88 77.4507 1661.98 77.124 1661.98ZM76.228 1670V1663.06H78.02V1670H76.228ZM79.8905 1670V1663.06H81.4725L81.6265 1663.99C81.8505 1663.66 82.1445 1663.39 82.5085 1663.2C82.8818 1662.99 83.3111 1662.89 83.7965 1662.89C84.8698 1662.89 85.6305 1663.3 86.0785 1664.13C86.3305 1663.75 86.6665 1663.45 87.0865 1663.22C87.5158 1663 87.9825 1662.89 88.4865 1662.89C89.3918 1662.89 90.0871 1663.16 90.5725 1663.7C91.0578 1664.24 91.3005 1665.03 91.3005 1666.08V1670H89.5085V1666.25C89.5085 1665.65 89.3918 1665.19 89.1585 1664.88C88.9345 1664.56 88.5845 1664.4 88.1085 1664.4C87.6231 1664.4 87.2311 1664.58 86.9325 1664.93C86.6431 1665.29 86.4985 1665.78 86.4985 1666.42V1670H84.7065V1666.25C84.7065 1665.65 84.5898 1665.19 84.3565 1664.88C84.1231 1664.56 83.7638 1664.4 83.2785 1664.4C82.8025 1664.4 82.4151 1664.58 82.1165 1664.93C81.8271 1665.29 81.6825 1665.78 81.6825 1666.42V1670H79.8905ZM93.9678 1661.98C93.6411 1661.98 93.3705 1661.88 93.1558 1661.68C92.9505 1661.49 92.8478 1661.24 92.8478 1660.94C92.8478 1660.64 92.9505 1660.4 93.1558 1660.21C93.3705 1660.02 93.6411 1659.92 93.9678 1659.92C94.2945 1659.92 94.5605 1660.02 94.7658 1660.21C94.9805 1660.4 95.0878 1660.64 95.0878 1660.94C95.0878 1661.24 94.9805 1661.49 94.7658 1661.68C94.5605 1661.88 94.2945 1661.98 93.9678 1661.98ZM93.0718 1670V1663.06H94.8638V1670H93.0718ZM99.8282 1670C99.1002 1670 98.5169 1669.82 98.0782 1669.47C97.6396 1669.11 97.4202 1668.48 97.4202 1667.58V1664.55H96.2302V1663.06H97.4202L97.6302 1661.19H99.2122V1663.06H101.088V1664.55H99.2122V1667.59C99.2122 1667.93 99.2822 1668.16 99.4222 1668.29C99.5716 1668.41 99.8236 1668.47 100.178 1668.47H101.046V1670H99.8282ZM105.823 1670.17C105.123 1670.17 104.502 1670.02 103.961 1669.72C103.42 1669.42 102.995 1669 102.687 1668.46C102.379 1667.92 102.225 1667.29 102.225 1666.58C102.225 1665.87 102.374 1665.23 102.673 1664.67C102.981 1664.11 103.401 1663.67 103.933 1663.36C104.474 1663.05 105.109 1662.89 105.837 1662.89C106.518 1662.89 107.12 1663.04 107.643 1663.34C108.166 1663.63 108.572 1664.05 108.861 1664.57C109.16 1665.08 109.309 1665.66 109.309 1666.29C109.309 1666.39 109.304 1666.5 109.295 1666.61C109.295 1666.72 109.29 1666.84 109.281 1666.96H104.003C104.04 1667.5 104.227 1667.93 104.563 1668.24C104.908 1668.54 105.324 1668.7 105.809 1668.7C106.173 1668.7 106.476 1668.62 106.719 1668.46C106.971 1668.29 107.158 1668.08 107.279 1667.82H109.099C108.968 1668.25 108.749 1668.66 108.441 1669.02C108.142 1669.37 107.769 1669.65 107.321 1669.86C106.882 1670.07 106.383 1670.17 105.823 1670.17ZM105.837 1664.34C105.398 1664.34 105.011 1664.47 104.675 1664.72C104.339 1664.96 104.124 1665.34 104.031 1665.84H107.489C107.461 1665.38 107.293 1665.02 106.985 1664.75C106.677 1664.48 106.294 1664.34 105.837 1664.34ZM114.008 1670.17C113.355 1670.17 112.772 1670.01 112.258 1669.69C111.745 1669.37 111.339 1668.94 111.04 1668.39C110.742 1667.84 110.592 1667.21 110.592 1666.51C110.592 1665.81 110.742 1665.19 111.04 1664.65C111.339 1664.1 111.745 1663.67 112.258 1663.36C112.772 1663.05 113.355 1662.89 114.008 1662.89C114.531 1662.89 114.988 1662.99 115.38 1663.18C115.772 1663.38 116.09 1663.65 116.332 1664.01V1659.92H118.124V1670H116.528L116.332 1669.01C116.108 1669.31 115.81 1669.58 115.436 1669.82C115.072 1670.05 114.596 1670.17 114.008 1670.17ZM114.386 1668.6C114.965 1668.6 115.436 1668.41 115.8 1668.03C116.174 1667.63 116.36 1667.13 116.36 1666.53C116.36 1665.92 116.174 1665.43 115.8 1665.04C115.436 1664.65 114.965 1664.46 114.386 1664.46C113.817 1664.46 113.346 1664.65 112.972 1665.03C112.599 1665.41 112.412 1665.91 112.412 1666.51C112.412 1667.12 112.599 1667.62 112.972 1668.01C113.346 1668.4 113.817 1668.6 114.386 1668.6ZM120.719 1670.1C120.392 1670.1 120.122 1670 119.907 1669.79C119.702 1669.58 119.599 1669.34 119.599 1669.05C119.599 1668.75 119.702 1668.5 119.907 1668.29C120.122 1668.09 120.392 1667.98 120.719 1667.98C121.046 1667.98 121.312 1668.09 121.517 1668.29C121.732 1668.5 121.839 1668.75 121.839 1669.05C121.839 1669.34 121.732 1669.58 121.517 1669.79C121.312 1670 121.046 1670.1 120.719 1670.1Z" fill="url(#paint2_linear)"/>
<path d="M20.952 1690V1680.2H22.744V1688.6H27.084V1690H20.952ZM31.6805 1690.17C30.9805 1690.17 30.3598 1690.02 29.8185 1689.72C29.2772 1689.42 28.8525 1689 28.5445 1688.46C28.2365 1687.92 28.0825 1687.29 28.0825 1686.58C28.0825 1685.87 28.2318 1685.23 28.5305 1684.67C28.8385 1684.11 29.2585 1683.67 29.7905 1683.36C30.3318 1683.05 30.9665 1682.89 31.6945 1682.89C32.3758 1682.89 32.9778 1683.04 33.5005 1683.34C34.0232 1683.63 34.4292 1684.05 34.7185 1684.57C35.0172 1685.08 35.1665 1685.66 35.1665 1686.29C35.1665 1686.39 35.1618 1686.5 35.1525 1686.61C35.1525 1686.72 35.1478 1686.84 35.1385 1686.96H29.8605C29.8978 1687.5 30.0845 1687.93 30.4205 1688.24C30.7658 1688.54 31.1812 1688.7 31.6665 1688.7C32.0305 1688.7 32.3338 1688.62 32.5765 1688.46C32.8285 1688.29 33.0152 1688.08 33.1365 1687.82H34.9565C34.8258 1688.25 34.6065 1688.66 34.2985 1689.02C33.9998 1689.37 33.6265 1689.65 33.1785 1689.86C32.7398 1690.07 32.2405 1690.17 31.6805 1690.17ZM31.6945 1684.34C31.2558 1684.34 30.8685 1684.47 30.5325 1684.72C30.1965 1684.96 29.9818 1685.34 29.8885 1685.84H33.3465C33.3185 1685.38 33.1505 1685.02 32.8425 1684.75C32.5345 1684.48 32.1518 1684.34 31.6945 1684.34ZM39.0677 1690.17C38.4703 1690.17 37.9803 1690.07 37.5977 1689.89C37.215 1689.69 36.9303 1689.44 36.7437 1689.12C36.557 1688.8 36.4637 1688.45 36.4637 1688.07C36.4637 1687.42 36.7157 1686.9 37.2197 1686.5C37.7237 1686.1 38.4797 1685.9 39.4877 1685.9H41.2517V1685.73C41.2517 1685.25 41.1163 1684.9 40.8457 1684.68C40.575 1684.46 40.239 1684.34 39.8377 1684.34C39.4737 1684.34 39.1563 1684.43 38.8857 1684.61C38.615 1684.78 38.447 1685.03 38.3817 1685.37H36.6317C36.6783 1684.86 36.8463 1684.42 37.1357 1684.05C37.4343 1683.68 37.817 1683.39 38.2837 1683.2C38.7503 1682.99 39.273 1682.89 39.8517 1682.89C40.841 1682.89 41.6203 1683.14 42.1897 1683.63C42.759 1684.12 43.0437 1684.82 43.0437 1685.73V1690H41.5177L41.3497 1688.88C41.1443 1689.25 40.855 1689.56 40.4817 1689.8C40.1177 1690.05 39.6463 1690.17 39.0677 1690.17ZM39.4737 1688.77C39.987 1688.77 40.3837 1688.6 40.6637 1688.26C40.953 1687.93 41.135 1687.51 41.2097 1687.02H39.6837C39.2077 1687.02 38.867 1687.11 38.6617 1687.28C38.4563 1687.45 38.3537 1687.66 38.3537 1687.91C38.3537 1688.18 38.4563 1688.39 38.6617 1688.54C38.867 1688.69 39.1377 1688.77 39.4737 1688.77ZM44.7538 1690V1683.06H46.3498L46.5178 1684.36C46.7698 1683.91 47.1104 1683.56 47.5397 1683.29C47.9784 1683.02 48.4918 1682.89 49.0798 1682.89V1684.78H48.5758C48.1838 1684.78 47.8338 1684.84 47.5258 1684.96C47.2178 1685.08 46.9751 1685.29 46.7978 1685.59C46.6298 1685.89 46.5458 1686.3 46.5458 1686.84V1690H44.7538ZM50.3045 1690V1683.06H51.8865L52.0265 1684.23C52.2412 1683.82 52.5492 1683.49 52.9505 1683.25C53.3612 1683.01 53.8419 1682.89 54.3925 1682.89C55.2512 1682.89 55.9185 1683.16 56.3945 1683.7C56.8705 1684.24 57.1085 1685.03 57.1085 1686.08V1690H55.3165V1686.25C55.3165 1685.65 55.1952 1685.19 54.9525 1684.88C54.7099 1684.56 54.3319 1684.4 53.8185 1684.4C53.3145 1684.4 52.8992 1684.58 52.5725 1684.93C52.2552 1685.29 52.0965 1685.78 52.0965 1686.42V1690H50.3045ZM62.158 1690V1683.06H63.74L63.894 1683.99C64.118 1683.66 64.412 1683.39 64.776 1683.2C65.1494 1682.99 65.5787 1682.89 66.064 1682.89C67.1374 1682.89 67.898 1683.3 68.346 1684.13C68.598 1683.75 68.934 1683.45 69.354 1683.22C69.7834 1683 70.25 1682.89 70.754 1682.89C71.6594 1682.89 72.3547 1683.16 72.84 1683.7C73.3254 1684.24 73.568 1685.03 73.568 1686.08V1690H71.776V1686.25C71.776 1685.65 71.6594 1685.19 71.426 1684.88C71.202 1684.56 70.852 1684.4 70.376 1684.4C69.8907 1684.4 69.4987 1684.58 69.2 1684.93C68.9107 1685.29 68.766 1685.78 68.766 1686.42V1690H66.974V1686.25C66.974 1685.65 66.8574 1685.19 66.624 1684.88C66.3907 1684.56 66.0314 1684.4 65.546 1684.4C65.07 1684.4 64.6827 1684.58 64.384 1684.93C64.0947 1685.29 63.95 1685.78 63.95 1686.42V1690H62.158ZM78.6014 1690.17C77.9294 1690.17 77.3227 1690.01 76.7814 1689.71C76.2494 1689.4 75.8247 1688.97 75.5074 1688.43C75.1994 1687.88 75.0454 1687.25 75.0454 1686.53C75.0454 1685.81 75.204 1685.18 75.5214 1684.64C75.8387 1684.09 76.2634 1683.66 76.7954 1683.35C77.3367 1683.04 77.9434 1682.89 78.6154 1682.89C79.278 1682.89 79.8754 1683.04 80.4074 1683.35C80.9487 1683.66 81.3734 1684.09 81.6814 1684.64C81.9987 1685.18 82.1574 1685.81 82.1574 1686.53C82.1574 1687.25 81.9987 1687.88 81.6814 1688.43C81.3734 1688.97 80.9487 1689.4 80.4074 1689.71C79.866 1690.01 79.264 1690.17 78.6014 1690.17ZM78.6014 1688.61C79.068 1688.61 79.474 1688.44 79.8194 1688.1C80.1647 1687.74 80.3374 1687.22 80.3374 1686.53C80.3374 1685.84 80.1647 1685.32 79.8194 1684.97C79.474 1684.62 79.0727 1684.44 78.6154 1684.44C78.1394 1684.44 77.7287 1684.62 77.3834 1684.97C77.0474 1685.32 76.8794 1685.84 76.8794 1686.53C76.8794 1687.22 77.0474 1687.74 77.3834 1688.1C77.7287 1688.44 78.1347 1688.61 78.6014 1688.61ZM83.7596 1690V1683.06H85.3556L85.5236 1684.36C85.7756 1683.91 86.1163 1683.56 86.5456 1683.29C86.9843 1683.02 87.4976 1682.89 88.0856 1682.89V1684.78H87.5816C87.1896 1684.78 86.8396 1684.84 86.5316 1684.96C86.2236 1685.08 85.9809 1685.29 85.8036 1685.59C85.6356 1685.89 85.5516 1686.3 85.5516 1686.84V1690H83.7596ZM92.5613 1690.17C91.8613 1690.17 91.2407 1690.02 90.6993 1689.72C90.158 1689.42 89.7333 1689 89.4253 1688.46C89.1173 1687.92 88.9633 1687.29 88.9633 1686.58C88.9633 1685.87 89.1127 1685.23 89.4113 1684.67C89.7193 1684.11 90.1393 1683.67 90.6713 1683.36C91.2127 1683.05 91.8473 1682.89 92.5753 1682.89C93.2567 1682.89 93.8587 1683.04 94.3813 1683.34C94.904 1683.63 95.31 1684.05 95.5993 1684.57C95.898 1685.08 96.0473 1685.66 96.0473 1686.29C96.0473 1686.39 96.0427 1686.5 96.0333 1686.61C96.0333 1686.72 96.0287 1686.84 96.0193 1686.96H90.7413C90.7787 1687.5 90.9653 1687.93 91.3013 1688.24C91.6467 1688.54 92.062 1688.7 92.5473 1688.7C92.9113 1688.7 93.2147 1688.62 93.4573 1688.46C93.7093 1688.29 93.896 1688.08 94.0173 1687.82H95.8373C95.7067 1688.25 95.4873 1688.66 95.1793 1689.02C94.8807 1689.37 94.5073 1689.65 94.0593 1689.86C93.6207 1690.07 93.1213 1690.17 92.5613 1690.17ZM92.5753 1684.34C92.1367 1684.34 91.7493 1684.47 91.4133 1684.72C91.0773 1684.96 90.8627 1685.34 90.7693 1685.84H94.2273C94.1993 1685.38 94.0313 1685.02 93.7233 1684.75C93.4153 1684.48 93.0327 1684.34 92.5753 1684.34Z" fill="url(#paint3_linear)"/>
<path d="M20 1691.75H96.6493V1692.45H20V1691.75Z" fill="url(#paint4_linear)"/>
<rect width="240" height="90" fill="#151725"/>
</g>
<defs>
<linearGradient id="paint0_linear" x1="-4.05405" y1="-2.34875e-06" x2="977.958" y2="997.467" gradientUnits="userSpaceOnUse">
<stop stop-color="#9274F4"/>
<stop offset="1" stop-color="#5E50E0"/>
</linearGradient>
<linearGradient id="paint1_linear" x1="-4.86486" y1="-3.69401e-07" x2="966.373" y2="1026.79" gradientUnits="userSpaceOnUse">
<stop stop-color="#785ECC"/>
<stop offset="1" stop-color="#5E50E0"/>
</linearGradient>
<linearGradient id="paint2_linear" x1="20" y1="1696" x2="235" y2="1696" gradientUnits="userSpaceOnUse">
<stop stop-color="#BB9BF1"/>
<stop offset="1" stop-color="#887BF2"/>
</linearGradient>
<linearGradient id="paint3_linear" x1="20" y1="1637" x2="237.296" y2="1685.77" gradientUnits="userSpaceOnUse">
<stop stop-color="#F2F3FF"/>
<stop offset="1" stop-color="#E7E8FF"/>
</linearGradient>
<linearGradient id="paint4_linear" x1="20" y1="1637" x2="237.296" y2="1685.77" gradientUnits="userSpaceOnUse">
<stop stop-color="#F2F3FF"/>
<stop offset="1" stop-color="#E7E8FF"/>
</linearGradient>
<clipPath id="clip0">
<rect width="240" height="1720" fill="white"/>
</clipPath>
</defs>
</svg>
