<svg width="13" height="20" viewBox="0 0 13 20" fill="none" xmlns="http://www.w3.org/2000/svg">
<path fill-rule="evenodd" clip-rule="evenodd" d="M6.5 1.93483C3.97873 1.93483 1.93483 3.97873 1.93483 6.5C1.93483 9.02127 3.97873 11.0652 6.5 11.0652C9.02127 11.0652 11.0652 9.02127 11.0652 6.5C11.0652 3.97873 9.02127 1.93483 6.5 1.93483ZM0 6.5C0 2.91015 2.91015 0 6.5 0C10.0899 0 13 2.91015 13 6.5C13 10.0899 10.0899 13 6.5 13C2.91015 13 0 10.0899 0 6.5Z" fill="white"/>
<path fill-rule="evenodd" clip-rule="evenodd" d="M9.91533 11.0084C10.4537 10.9392 10.948 11.3058 11.0194 11.8271L11.9914 18.9225C12.0411 19.2849 11.8721 19.6429 11.5565 19.8437C11.2409 20.0444 10.8345 20.0524 10.5108 19.8643L7 17.8243L3.48921 19.8643C3.16544 20.0524 2.75903 20.0444 2.44345 19.8436C2.12787 19.6429 1.95887 19.2848 2.00858 18.9223L2.98062 11.8348C3.05212 11.3134 3.54649 10.9469 4.08481 11.0162C4.62314 11.0854 5.00158 11.5642 4.93008 12.0855L4.22662 17.2147L6.4941 15.8972C6.80549 15.7162 7.19451 15.7162 7.5059 15.8972L9.7737 17.2149L9.0699 12.0776C8.99848 11.5563 9.37699 11.0776 9.91533 11.0084Z" fill="white"/>
</svg>
