<svg width="22" height="18" viewBox="0 0 22 18" fill="none" xmlns="http://www.w3.org/2000/svg">
<path fill-rule="evenodd" clip-rule="evenodd" d="M10.9998 2.58333C10.5136 2.58333 10.0473 2.77649 9.70347 3.1203C9.35966 3.46412 9.1665 3.93044 9.1665 4.41667C9.1665 4.9029 9.35966 5.36921 9.70347 5.71303C10.0473 6.05685 10.5136 6.25 10.9998 6.25C11.4861 6.25 11.9524 6.05685 12.2962 5.71303C12.64 5.36921 12.8332 4.9029 12.8332 4.41667C12.8332 3.93044 12.64 3.46412 12.2962 3.1203C11.9524 2.77649 11.4861 2.58333 10.9998 2.58333ZM8.40711 1.82394C9.09475 1.13631 10.0274 0.75 10.9998 0.75C11.9723 0.75 12.9049 1.13631 13.5926 1.82394C14.2802 2.51158 14.6665 3.44421 14.6665 4.41667C14.6665 5.38913 14.2802 6.32176 13.5926 7.00939C12.9049 7.69703 11.9723 8.08333 10.9998 8.08333C10.0274 8.08333 9.09475 7.69703 8.40711 7.00939C7.71948 6.32176 7.33317 5.38913 7.33317 4.41667C7.33317 3.44421 7.71948 2.51158 8.40711 1.82394ZM4.58317 6.25C4.34006 6.25 4.1069 6.34658 3.93499 6.51849C3.76308 6.69039 3.6665 6.92355 3.6665 7.16667C3.6665 7.40978 3.76308 7.64294 3.93499 7.81485C4.1069 7.98676 4.34006 8.08333 4.58317 8.08333C4.82629 8.08333 5.05944 7.98676 5.23135 7.81485C5.40326 7.64294 5.49984 7.40978 5.49984 7.16667C5.49984 6.92355 5.40326 6.69039 5.23135 6.51849C5.05944 6.34658 4.82629 6.25 4.58317 6.25ZM2.63863 5.22212C3.15435 4.7064 3.85382 4.41667 4.58317 4.41667C5.31252 4.41667 6.01199 4.7064 6.52771 5.22212C7.04344 5.73785 7.33317 6.43732 7.33317 7.16667C7.33317 7.89601 7.04344 8.59549 6.52771 9.11121C6.01199 9.62694 5.31252 9.91667 4.58317 9.91667C3.85382 9.91667 3.15435 9.62694 2.63863 9.11121C2.1229 8.59549 1.83317 7.89601 1.83317 7.16667C1.83317 6.43732 2.1229 5.73785 2.63863 5.22212ZM17.4165 6.25C17.1734 6.25 16.9402 6.34658 16.7683 6.51849C16.5964 6.69039 16.4998 6.92355 16.4998 7.16667C16.4998 7.40978 16.5964 7.64294 16.7683 7.81485C16.9402 7.98676 17.1734 8.08333 17.4165 8.08333C17.6596 8.08333 17.8928 7.98676 18.0647 7.81485C18.2366 7.64294 18.3332 7.40978 18.3332 7.16667C18.3332 6.92355 18.2366 6.69039 18.0647 6.51849C17.8928 6.34658 17.6596 6.25 17.4165 6.25ZM15.472 5.22212C15.9877 4.7064 16.6872 4.41667 17.4165 4.41667C18.1458 4.41667 18.8453 4.7064 19.361 5.22212C19.8768 5.73785 20.1665 6.43732 20.1665 7.16667C20.1665 7.89601 19.8768 8.59549 19.361 9.11121C18.8453 9.62694 18.1458 9.91667 17.4165 9.91667C16.6872 9.91667 15.9877 9.62694 15.472 9.11121C14.9562 8.59549 14.6665 7.89601 14.6665 7.16667C14.6665 6.43732 14.9562 5.73785 15.472 5.22212ZM10.9998 10.8327C10.2667 10.8327 9.55045 11.0523 8.94337 11.4633C8.33628 11.8742 7.86625 12.4577 7.5939 13.1383C7.42599 13.5573 7.33317 14.0168 7.33317 14.5V15.4167H14.6665V14.5C14.6665 14.0168 14.5738 13.5577 14.4059 13.1387C14.1336 12.4581 13.6634 11.8742 13.0563 11.4633C12.4492 11.0523 11.7329 10.8327 10.9998 10.8327ZM16.4998 15.4167H19.2498V14.5001C19.2498 14.5 19.2498 14.5001 19.2498 14.5001C19.2498 14.1191 19.1311 13.7475 18.9101 13.4371C18.6892 13.1267 18.3771 12.8928 18.0171 12.768C17.6571 12.6432 17.2672 12.6337 16.9015 12.7407C16.6845 12.8042 16.4824 12.9069 16.3046 13.0425C16.4322 13.5077 16.4998 13.9967 16.4998 14.5V15.4167ZM15.5188 11.3628C15.134 10.8088 14.6485 10.3272 14.084 9.9451C13.1736 9.32877 12.0993 8.99936 10.9998 8.99936C9.90037 8.99936 8.82612 9.32877 7.91565 9.9451C7.35116 10.3272 6.86569 10.8088 6.48089 11.3628C6.21094 11.1995 5.91951 11.0708 5.61318 10.9812C4.88185 10.7671 4.102 10.7862 3.38203 11.0359C2.66206 11.2855 2.03775 11.7532 1.59589 12.374C1.15403 12.9949 0.91656 13.7379 0.916504 14.4999V16.3333C0.916504 16.8396 1.32691 17.25 1.83317 17.25H20.1665C20.6728 17.25 21.0832 16.8396 21.0832 16.3333V14.5C21.0831 13.738 20.8456 12.9949 20.4038 12.374C19.9619 11.7532 19.3376 11.2855 18.6176 11.0359C17.8977 10.7862 17.1178 10.7671 16.3865 10.9812C16.0802 11.0708 15.7887 11.1995 15.5188 11.3628ZM5.69504 13.0425C5.51729 12.9069 5.31521 12.8042 5.09818 12.7407C4.73251 12.6337 4.34259 12.6432 3.9826 12.768C3.62262 12.8928 3.31046 13.1267 3.08953 13.4371C2.86861 13.7475 2.74988 14.119 2.74984 14.5C2.74984 14.5 2.74984 14.5 2.74984 14.5V15.4167H5.49984V14.5C5.49984 13.9967 5.56752 13.5077 5.69504 13.0425Z" fill="white"/>
</svg>
