<svg width="20" height="20" viewBox="0 0 20 20" fill="none" xmlns="http://www.w3.org/2000/svg">
<path fill-rule="evenodd" clip-rule="evenodd" d="M14.5975 7.24163C15.0443 7.58674 15.1258 8.22758 14.7797 8.67299L12.0322 12.2084C11.8652 12.4232 11.6192 12.5627 11.3487 12.5961C11.0782 12.6294 10.8055 12.5537 10.5912 12.3858L8.20144 10.5142L6.02412 13.3356C5.6795 13.7822 5.03702 13.8657 4.58911 13.5221C4.1412 13.1785 4.05747 12.5379 4.4021 12.0913L7.20971 8.45321C7.37629 8.23735 7.62253 8.09686 7.89358 8.06302C8.16464 8.02918 8.43802 8.1048 8.65284 8.27305L11.0453 10.1468L13.1619 7.42324C13.508 6.97783 14.1508 6.89653 14.5975 7.24163Z" fill="white"/>
<path fill-rule="evenodd" clip-rule="evenodd" d="M17.1737 2.04047C16.743 2.04047 16.3939 2.38853 16.3939 2.8179C16.3939 3.24726 16.743 3.59533 17.1737 3.59533C17.6043 3.59533 17.9534 3.24726 17.9534 2.8179C17.9534 2.38853 17.6043 2.04047 17.1737 2.04047ZM14.3473 2.8179C14.3473 1.26162 15.6127 0 17.1737 0C18.7346 0 20 1.26162 20 2.8179C20 4.37418 18.7346 5.63579 17.1737 5.63579C15.6127 5.63579 14.3473 4.37418 14.3473 2.8179Z" fill="white"/>
<path fill-rule="evenodd" clip-rule="evenodd" d="M1.50173 2.46354C2.50637 1.38307 3.93322 0.787592 5.59961 0.787592H12.4169C12.982 0.787592 13.4402 1.24437 13.4402 1.80782C13.4402 2.37128 12.982 2.82806 12.4169 2.82806H5.59961C4.44122 2.82806 3.57991 3.22985 3.00259 3.85075C2.41715 4.48037 2.04658 5.41987 2.04658 6.61872V14.1775C2.04658 15.3814 2.41155 16.3175 2.99072 16.9422C3.56089 17.5572 4.41994 17.9596 5.59961 17.9596H13.6704C14.8302 17.9596 15.6915 17.559 16.2683 16.9402C16.853 16.313 17.2235 15.3762 17.2235 14.1775V7.59459C17.2235 7.03113 17.6816 6.57436 18.2467 6.57436C18.8119 6.57436 19.27 7.03113 19.27 7.59459V14.1775C19.27 15.7951 18.7647 17.2594 17.7674 18.3293C16.7622 19.4076 15.3354 20 13.6704 20H5.59961C3.92016 20 2.49105 19.4094 1.48783 18.3273C0.493628 17.2549 0 15.7898 0 14.1775V6.61872C0 5.00122 0.505198 3.53528 1.50173 2.46354Z" fill="white"/>
</svg>
