<svg width="44" height="44" viewBox="0 0 44 44" fill="none" xmlns="http://www.w3.org/2000/svg">
<rect width="44" height="44" rx="5" fill="#8BC34A"/>
<g clip-path="url(#clip0)">
<path d="M35.3915 25.348C35.3915 21.6503 31.6436 18.6523 27.0219 18.6523C22.4002 18.6523 18.6523 21.6503 18.6523 25.348C18.6523 29.0457 22.4002 32.0436 27.0219 32.0436C27.7819 32.0436 28.505 31.9365 29.2064 31.7842L33.7176 33.7176L32.1575 30.5991C34.1126 29.3738 35.3915 27.4889 35.3915 25.348Z" fill="white"/>
<path d="M18.6519 10.2827C13.1045 10.2827 8.6084 14.0306 8.6084 18.6523C8.6084 21.3172 10.1116 23.6807 12.4433 25.2107L11.1193 27.8588L14.7266 26.3138C15.4999 26.5883 16.3034 26.8143 17.1621 26.9197C17.0449 26.4092 16.978 25.8853 16.978 25.3479C16.978 20.733 21.4825 16.9784 27.0214 16.9784C27.5286 16.9784 28.0241 17.0202 28.5129 17.0805C27.6291 13.2104 23.5531 10.2827 18.6519 10.2827Z" fill="white"/>
<path d="M15.3043 16.5602C15.9976 16.5602 16.5597 15.9981 16.5597 15.3048C16.5597 14.6114 15.9976 14.0493 15.3043 14.0493C14.6109 14.0493 14.0488 14.6114 14.0488 15.3048C14.0488 15.9981 14.6109 16.5602 15.3043 16.5602Z" fill="#8BC34A"/>
<path d="M21.9996 16.5602C22.6929 16.5602 23.255 15.9981 23.255 15.3048C23.255 14.6114 22.6929 14.0493 21.9996 14.0493C21.3062 14.0493 20.7441 14.6114 20.7441 15.3048C20.7441 15.9981 21.3062 16.5602 21.9996 16.5602Z" fill="#8BC34A"/>
<path d="M24.5113 24.9298C25.2046 24.9298 25.7667 24.3677 25.7667 23.6744C25.7667 22.981 25.2046 22.4189 24.5113 22.4189C23.8179 22.4189 23.2559 22.981 23.2559 23.6744C23.2559 24.3677 23.8179 24.9298 24.5113 24.9298Z" fill="#8BC34A"/>
<path d="M29.5328 24.9298C30.2261 24.9298 30.7882 24.3677 30.7882 23.6744C30.7882 22.981 30.2261 22.4189 29.5328 22.4189C28.8394 22.4189 28.2773 22.981 28.2773 23.6744C28.2773 24.3677 28.8394 24.9298 29.5328 24.9298Z" fill="#8BC34A"/>
</g>
<defs>
<clipPath id="clip0">
<rect width="26.7826" height="26.7826" fill="white" transform="translate(8.6084 8.60889)"/>
</clipPath>
</defs>
</svg>
