<svg width="44" height="44" viewBox="0 0 44 44" fill="none" xmlns="http://www.w3.org/2000/svg">
<rect width="44" height="44" rx="5" fill="#644382"/>
<path d="M29.9998 20.5836C30.0279 17.4052 27.2153 14.4914 23.7301 14.0885C23.6608 14.0806 23.5853 14.0685 23.5053 14.0558C23.3328 14.0283 23.1543 14 22.9743 14C22.26 14 22.0691 14.4829 22.0188 14.771C21.9699 15.051 22.0165 15.2862 22.1571 15.4703C22.3937 15.7798 22.8099 15.8348 23.1442 15.8788C23.2422 15.8919 23.3347 15.904 23.4121 15.9207C26.5434 16.5942 27.5978 17.653 28.1131 20.6412C28.1257 20.7142 28.1314 20.8042 28.1374 20.8996C28.1599 21.2568 28.2067 22 29.0368 22H29.0369C29.106 22 29.1803 21.9943 29.2576 21.9829C30.0306 21.8698 30.0064 21.1905 29.9948 20.8641C29.9915 20.7722 29.9884 20.6852 29.9964 20.6274C29.9986 20.6128 29.9997 20.5982 29.9998 20.5836Z" fill="white"/>
<path d="M23.0933 12.7307C23.1824 12.7369 23.2668 12.7428 23.337 12.7532C28.279 13.4856 30.5518 15.7421 31.1816 20.542C31.1923 20.6236 31.194 20.7231 31.1957 20.8284C31.202 21.2034 31.2149 21.9836 32.0843 21.9997L32.1113 22C32.3839 22 32.6008 21.9208 32.7559 21.7643C33.0266 21.4915 33.0077 21.0863 32.9925 20.7606C32.9887 20.6807 32.9852 20.6054 32.9861 20.5395C33.0489 15.6305 28.6396 11.1791 23.5503 11.0135C23.5292 11.0129 23.509 11.0139 23.4887 11.0167C23.4787 11.0181 23.4601 11.0199 23.4284 11.0199C23.3777 11.0199 23.3152 11.0156 23.249 11.0113C23.169 11.0061 23.0782 11 22.9862 11C22.1757 11 22.0216 11.5552 22.0019 11.8861C21.9565 12.6509 22.7243 12.7048 23.0933 12.7307Z" fill="white"/>
<path d="M30.6197 26.9398C30.516 26.8611 30.4087 26.7795 30.3082 26.6991C29.7753 26.2728 29.2083 25.8799 28.66 25.4999C28.5462 25.4211 28.4324 25.3422 28.319 25.2631C27.6166 24.7728 26.9852 24.5345 26.3886 24.5345C25.5851 24.5345 24.8845 24.9758 24.3063 25.846C24.0501 26.2318 23.7393 26.4193 23.3563 26.4193C23.1298 26.4193 22.8725 26.3551 22.5915 26.2283C20.3244 25.2065 18.7056 23.6397 17.7798 21.5716C17.3323 20.572 17.4774 19.9186 18.265 19.3869C18.7122 19.0852 19.5447 18.5235 19.4857 17.4478C19.4189 16.2264 16.7075 12.5512 15.5651 12.1337C15.0814 11.9569 14.5732 11.9553 14.0518 12.1296C12.7385 12.5685 11.7961 13.3391 11.3261 14.3582C10.872 15.3429 10.8925 16.4991 11.3854 17.7018C12.8105 21.1791 14.814 24.2109 17.3406 26.7128C19.8137 29.1619 22.8533 31.168 26.3749 32.6753C26.6924 32.8111 27.0253 32.8851 27.2684 32.9391C27.3513 32.9577 27.4228 32.9734 27.475 32.9876C27.5036 32.9954 27.5332 32.9996 27.5628 32.9999L27.5906 33C27.5907 33 27.5906 33 27.5908 33C29.2471 33 31.2359 31.4956 31.8467 29.7804C32.3819 28.2786 31.4048 27.5363 30.6197 26.9398Z" fill="white"/>
<path d="M23.2767 17.0007C22.9607 17.0084 22.3031 17.0243 22.0723 17.6751C21.9644 17.9792 21.9773 18.2433 22.1108 18.4599C22.3067 18.7778 22.682 18.8752 23.0234 18.9287C24.2615 19.1217 24.8973 19.7869 25.0245 21.022C25.0836 21.5979 25.4827 22 25.9951 22H25.9952C26.033 22 26.0717 21.9978 26.1103 21.9933C26.7266 21.922 27.0253 21.4821 26.9983 20.6857C27.0082 19.8546 26.5605 18.911 25.7992 18.1595C25.0352 17.4056 24.1143 16.981 23.2767 17.0007Z" fill="white"/>
</svg>
