<svg width="44" height="44" viewBox="0 0 44 44" fill="none" xmlns="http://www.w3.org/2000/svg">
<rect width="44" height="44" rx="5" fill="#2CD44A"/>
<path d="M29.4247 23.6918L29.4142 23.7793C26.8488 22.5007 26.5805 22.3304 26.2491 22.8274C26.0193 23.1715 25.3496 23.952 25.1478 24.183C24.9437 24.4105 24.7407 24.428 24.3942 24.2705C24.0442 24.0955 22.9207 23.728 21.5907 22.538C20.5547 21.6106 19.8594 20.4731 19.6541 20.1231C19.3123 19.5328 20.0274 19.4488 20.6784 18.2168C20.7951 17.9718 20.7356 17.7793 20.6492 17.6055C20.5617 17.4305 19.8653 15.7155 19.5736 15.0318C19.2936 14.3505 19.0054 14.4369 18.7896 14.4369C18.1176 14.3785 17.6265 14.3879 17.1936 14.8382C15.3107 16.9078 15.7855 19.0428 17.3966 21.3131C20.5629 25.457 22.2499 26.22 25.3345 27.2793C26.1675 27.5441 26.927 27.5068 27.5278 27.4204C28.1974 27.3143 29.5892 26.5793 29.8797 25.7568C30.1772 24.9343 30.1772 24.2518 30.0897 24.0943C30.0034 23.9368 29.7747 23.8493 29.4247 23.6918Z" fill="white"/>
<path d="M32.9395 11.0243C23.9692 2.35259 9.12366 8.64197 9.11783 20.8754C9.11783 23.3207 9.75832 25.7053 10.9786 27.8111L9 35L16.3907 33.0727C25.613 38.0543 36.9948 31.4394 36.9995 20.8824C36.9995 17.1772 35.5528 13.6901 32.922 11.0698L32.9395 11.0243ZM34.6685 20.8439C34.6615 29.7489 24.8862 35.3103 17.1548 30.7651L16.7349 30.5154L12.3599 31.6529L13.5324 27.4005L13.2536 26.963C8.44234 19.304 13.9699 9.29413 23.0837 9.29413C26.18 9.29413 29.0861 10.5016 31.2747 12.6891C33.4622 14.8579 34.6685 17.764 34.6685 20.8439Z" fill="white"/>
</svg>
