<svg width="183" height="40" viewBox="0 0 183 40" fill="none" xmlns="http://www.w3.org/2000/svg">
<mask id="mask0" style="mask-type:alpha" maskUnits="userSpaceOnUse" x="0" y="0" width="46" height="40">
<path d="M43.1382 29.6749C42.9544 29.6409 42.7705 29.5388 42.6173 29.4367L41.0219 28.4145C39.0454 27.148 37.8378 24.8798 37.8378 22.4336C37.8378 19.9804 39.0523 17.7067 41.0379 16.4425L42.648 15.4174C43.5365 14.839 44.6395 15.1793 45.1603 16.1661C45.3135 16.4723 45.4054 16.8126 45.4054 17.1869V27.7013C45.4054 28.9603 44.3331 29.9812 43.1382 29.6749Z" fill="#377DFF"/>
<path d="M43.1382 24.8101C42.9544 24.776 42.7705 24.6739 42.6173 24.5719L41.0219 23.5496C39.0454 22.2831 37.8378 20.0149 37.8378 17.5687C37.8378 15.1155 39.0523 12.8418 41.0379 11.5777L42.648 10.5526C43.5365 9.97412 44.6395 10.3144 45.1603 11.3012C45.3135 11.6074 45.4054 11.9477 45.4054 12.322V22.8365C45.4054 24.0955 44.3331 25.1163 43.1382 24.8101Z" fill="#377DFF"/>
<path d="M0 9.375C0 4.19733 4.19733 0 9.375 0H30.625C35.8027 0 40 4.19733 40 9.375V30.625C40 35.8027 35.8027 40 30.625 40H9.375C4.19733 40 0 35.8027 0 30.625V9.375Z" fill="#377DFF"/>
</mask>
<g mask="url(#mask0)">
<g filter="url(#filter0_ddi)">
<path d="M42.753 29.6749C42.5708 29.6409 42.3887 29.5388 42.2368 29.4367L40.6557 28.4145C38.6968 27.148 37.5 24.8798 37.5 22.4336C37.5 19.9804 38.7036 17.7067 40.6715 16.4425L42.2672 15.4174C43.1478 14.839 44.2409 15.1793 44.7571 16.1661C44.9089 16.4723 45 16.8126 45 17.1869V27.7013C45 28.9603 43.9372 29.9812 42.753 29.6749Z" fill="url(#paint0_linear)"/>
<path d="M42.753 29.6749C42.5708 29.6409 42.3887 29.5388 42.2368 29.4367L40.6557 28.4145C38.6968 27.148 37.5 24.8798 37.5 22.4336C37.5 19.9804 38.7036 17.7067 40.6715 16.4425L42.2672 15.4174C43.1478 14.839 44.2409 15.1793 44.7571 16.1661C44.9089 16.4723 45 16.8126 45 17.1869V27.7013C45 28.9603 43.9372 29.9812 42.753 29.6749Z" fill="url(#paint1_linear)" fill-opacity="0.7"/>
<path d="M42.753 24.8101C42.5708 24.776 42.3887 24.6739 42.2368 24.5719L40.6557 23.5496C38.6968 22.2831 37.5 20.0149 37.5 17.5687C37.5 15.1155 38.7036 12.8418 40.6715 11.5777L42.2672 10.5526C43.1478 9.97412 44.2409 10.3144 44.7571 11.3012C44.9089 11.6074 45 11.9477 45 12.322V22.8365C45 24.0955 43.9372 25.1163 42.753 24.8101Z" fill="url(#paint2_linear)"/>
<path d="M42.753 24.8101C42.5708 24.776 42.3887 24.6739 42.2368 24.5719L40.6557 23.5496C38.6968 22.2831 37.5 20.0149 37.5 17.5687C37.5 15.1155 38.7036 12.8418 40.6715 11.5777L42.2672 10.5526C43.1478 9.97412 44.2409 10.3144 44.7571 11.3012C44.9089 11.6074 45 11.9477 45 12.322V22.8365C45 24.0955 43.9372 25.1163 42.753 24.8101Z" fill="url(#paint3_linear)" fill-opacity="0.7"/>
<path d="M0 9.375C0 4.19733 4.15985 0 9.2913 0H30.3516C35.483 0 39.6429 4.19733 39.6429 9.375V30.625C39.6429 35.8027 35.483 40 30.3516 40H9.2913C4.15985 40 0 35.8027 0 30.625V9.375Z" fill="url(#paint4_linear)"/>
<path d="M0 9.375C0 4.19733 4.15985 0 9.2913 0H30.3516C35.483 0 39.6429 4.19733 39.6429 9.375V30.625C39.6429 35.8027 35.483 40 30.3516 40H9.2913C4.15985 40 0 35.8027 0 30.625V9.375Z" fill="url(#paint5_linear)" fill-opacity="0.7"/>
</g>
<g filter="url(#filter1_f)">
<ellipse cx="20.0001" cy="45.9461" rx="18.9189" ry="10.1622" fill="#0050D1"/>
</g>
<g filter="url(#filter2_f)">
<ellipse cx="43.0272" cy="20.8648" rx="13.8378" ry="7.45946" transform="rotate(90 43.0272 20.8648)" fill="#0061FF"/>
</g>
</g>
<g filter="url(#filter3_dii)">
<path d="M21.8611 5.85366H22.4888C23.4521 5.89193 24.4157 6.07052 25.3091 6.43895C25.9141 6.68804 26.5111 7.00393 26.9576 7.49279C27.2175 7.77647 27.4209 8.11182 27.553 8.47333C27.7037 8.89279 27.7602 9.3436 27.7386 9.78771C27.7154 10.2033 27.6248 10.6188 27.4462 10.9961C27.3059 11.2742 27.1664 11.5548 26.9837 11.8085C26.7548 12.1306 26.4616 12.4139 26.1089 12.597C25.6869 12.8145 25.19 12.8999 24.7236 12.7959C24.1163 12.6707 23.5954 12.2076 23.3887 11.6251C23.3515 11.4463 23.3764 11.2528 23.4538 11.0876C23.5011 10.981 23.6257 10.951 23.7308 10.9375C23.9595 10.911 24.1768 11.0059 24.4017 11.0266C24.5537 11.0465 24.6778 10.9265 24.7489 10.8054C24.8285 10.6839 24.8441 10.5356 24.8447 10.394C24.8451 10.1542 24.849 9.9116 24.7989 9.67571C24.7589 9.47571 24.6529 9.29733 24.5429 9.12868C24.3716 8.8729 24.1124 8.6956 23.8475 8.54858C23.4257 8.30209 22.936 8.20306 22.4536 8.16933C22.0408 8.13625 21.6231 8.15701 21.2175 8.2422C20.4624 8.40825 19.7859 8.84479 19.2631 9.40695C18.8259 9.8662 18.4653 10.4195 18.3204 11.0431C18.1805 11.6437 18.2423 12.293 18.5096 12.8504C18.7368 13.3267 19.0929 13.7319 19.5057 14.0569C20.1096 14.5577 20.7656 14.9931 21.4475 15.3797C21.8575 15.6175 22.2918 15.8076 22.7187 16.0121C23.1476 16.2199 23.5716 16.4381 23.9907 16.6651C24.2499 16.8093 24.5143 16.9449 24.7693 17.0965C25.1418 17.3196 25.4953 17.5747 25.8235 17.8588C26.0694 18.0662 26.2867 18.304 26.5245 18.52C26.8426 18.823 27.1336 19.1535 27.4028 19.5006C27.5729 19.7224 27.7396 19.9479 27.8839 20.1879C28.2568 20.8026 28.5089 21.4913 28.6157 22.2028C28.654 22.4415 28.6689 22.6831 28.683 22.9241V23.3133C28.6622 23.8495 28.6151 24.3866 28.5029 24.9123C28.3334 25.7337 28.0274 26.5289 27.5833 27.2413C27.1991 27.8606 26.7141 28.4147 26.1654 28.8932C25.6384 29.3447 25.0655 29.7419 24.4657 30.0904C23.7068 30.528 22.8957 30.8783 22.051 31.112C21.3654 31.3064 20.6575 31.4011 19.9507 31.4779C19.8631 31.6154 19.7822 31.7572 19.7001 31.8982C19.5024 32.2489 19.3416 32.6281 19.0659 32.928C18.7837 33.2483 18.3907 33.4932 17.9578 33.5252C17.6015 33.5553 17.2428 33.426 16.9688 33.2005C16.6209 32.9073 16.4183 32.4638 16.3721 32.0156C16.3487 31.8794 16.4391 31.7278 16.5798 31.7051C16.9913 31.6238 17.3971 31.5019 17.7731 31.3142C17.8255 31.2867 17.8817 31.2651 17.9271 31.2266C17.9502 31.1611 17.8713 31.1289 17.8218 31.1151C17.4815 31.0288 17.137 30.9572 16.8006 30.856C16.3513 30.7259 15.91 30.5689 15.478 30.3894C15.15 30.2519 14.8224 30.1086 14.5217 29.9174C14.03 29.5523 13.5602 29.1445 13.2002 28.6452C12.8467 28.1527 12.7306 27.538 12.683 26.9455V26.578C12.6981 26.4364 12.718 26.2947 12.7526 26.1564C12.8949 25.5497 13.2583 25.0093 13.7286 24.6063C14.3651 24.0578 15.2153 23.7486 16.0579 23.8072C16.7405 23.8511 17.3941 24.1259 17.9396 24.5321C18.5018 24.9492 18.961 25.4941 19.3208 26.0921C19.7156 26.7505 20.0019 27.4744 20.1561 28.2266C20.1716 28.2978 20.1783 28.3715 20.2051 28.44C20.528 28.3698 20.8393 28.256 21.147 28.1371C21.8101 27.8694 22.4391 27.5123 22.9954 27.0617C23.4441 26.6973 23.8482 26.2738 24.1649 25.7892C24.4931 25.2874 24.7312 24.7213 24.8224 24.127C24.8497 23.9319 24.8875 23.7358 24.8728 23.5382C24.8542 23.3071 24.8077 23.0785 24.7355 22.8582C24.5297 22.231 24.1342 21.6846 23.6769 21.216C23.0931 20.6063 22.4233 20.0811 21.7009 19.6454C20.6071 19.0145 19.5104 18.3881 18.4086 17.7711C17.3321 17.183 16.3427 16.426 15.5301 15.5043C15.056 14.981 14.683 14.3605 14.4784 13.6828C14.2393 12.9021 14.2471 12.0673 14.3744 11.2675C14.5394 10.2552 14.9963 9.29193 15.6828 8.52933C16.1269 8.02966 16.6562 7.61085 17.2222 7.25755C17.8503 6.86771 18.52 6.54166 19.2244 6.31506C20.0754 6.03549 20.9671 5.88998 21.8611 5.85366ZM14.8015 26.3289C14.7011 26.5049 14.6795 26.7136 14.6867 26.9127C14.7027 27.2137 14.8607 27.4939 15.0806 27.6945C15.3798 27.9711 15.7578 28.141 16.136 28.2805C16.3351 28.3499 16.5306 28.4303 16.734 28.4861C17.0717 28.5825 17.419 28.6392 17.7643 28.7006C17.8793 28.7196 17.9935 28.7484 18.1109 28.7473C17.8964 27.9901 17.5137 27.28 16.9982 26.6854C16.8317 26.4906 16.6471 26.3097 16.433 26.1674C16.1933 26.0057 15.9152 25.8885 15.6237 25.8744C15.2934 25.8608 14.9721 26.0498 14.8015 26.3289Z" fill="white"/>
</g>
<path d="M70.2734 16.3984H73.0625C73.0078 13.6953 70.7031 11.7812 67.2969 11.7812C63.9375 11.7812 61.4141 13.6719 61.4219 16.5C61.4219 18.7969 63.0547 20.1172 65.6875 20.7969L67.5078 21.2656C69.2344 21.7031 70.375 22.2422 70.3828 23.4844C70.375 24.8516 69.0781 25.7656 67.1875 25.7656C65.375 25.7656 63.9688 24.9531 63.8516 23.2734H61C61.1172 26.4531 63.4844 28.2422 67.2109 28.2422C71.0469 28.2422 73.2734 26.3281 73.2813 23.5078C73.2734 20.7344 70.9844 19.4687 68.5781 18.8984L67.0781 18.5234C65.7656 18.2109 64.3438 17.6562 64.3594 16.3203C64.3672 15.1172 65.4453 14.2344 67.2578 14.2344C68.9844 14.2344 70.125 15.0391 70.2734 16.3984ZM83.3887 22.9531C83.3887 24.7812 82.084 25.6875 80.834 25.6875C79.4746 25.6875 78.5684 24.7266 78.5684 23.2031V16H75.7402V23.6406C75.7402 26.5234 77.3809 28.1563 79.7402 28.1563C81.5371 28.1563 82.8027 27.2109 83.3496 25.8672H83.4746V28H86.2168V16H83.3887V22.9531ZM89.125 28H91.9531V20.7031C91.9531 19.2266 92.9375 18.2266 94.1562 18.2266C95.3516 18.2266 96.1719 19.0312 96.1719 20.2656V28H98.9453V20.5156C98.9453 19.1641 99.75 18.2266 101.117 18.2266C102.258 18.2266 103.164 18.8984 103.164 20.3828V28H106V19.9453C106 17.2656 104.453 15.8438 102.25 15.8438C100.508 15.8438 99.1797 16.7031 98.6484 18.0391H98.5234C98.0625 16.6797 96.8984 15.8438 95.2813 15.8438C93.6719 15.8438 92.4688 16.6719 91.9688 18.0391H91.8281V16H89.125V28ZM108.869 28H111.697V20.9453C111.697 19.4219 112.846 18.3437 114.4 18.3437C114.877 18.3437 115.471 18.4297 115.713 18.5078V15.9062C115.455 15.8594 115.01 15.8281 114.697 15.8281C113.322 15.8281 112.174 16.6094 111.736 18H111.611V16H108.869V28ZM120.809 28.2422C122.691 28.2422 123.816 27.3594 124.332 26.3516H124.426V28H127.145V19.9687C127.145 16.7969 124.559 15.8438 122.27 15.8438C119.746 15.8438 117.809 16.9687 117.184 19.1562L119.824 19.5312C120.105 18.7109 120.902 18.0078 122.285 18.0078C123.598 18.0078 124.316 18.6797 124.316 19.8594V19.9062C124.316 20.7188 123.465 20.7578 121.348 20.9844C119.02 21.2344 116.793 21.9297 116.793 24.6328C116.793 26.9922 118.52 28.2422 120.809 28.2422ZM121.543 26.1641C120.363 26.1641 119.52 25.625 119.52 24.5859C119.52 23.5 120.465 23.0469 121.73 22.8672C122.473 22.7656 123.957 22.5781 124.324 22.2812V23.6953C124.324 25.0312 123.246 26.1641 121.543 26.1641ZM129.988 28H132.816V20.7031C132.816 19.2266 133.801 18.2266 135.02 18.2266C136.215 18.2266 137.035 19.0312 137.035 20.2656V28H139.809V20.5156C139.809 19.1641 140.613 18.2266 141.98 18.2266C143.121 18.2266 144.027 18.8984 144.027 20.3828V28H146.863V19.9453C146.863 17.2656 145.316 15.8438 143.113 15.8438C141.371 15.8438 140.043 16.7031 139.512 18.0391H139.387C138.926 16.6797 137.762 15.8438 136.145 15.8438C134.535 15.8438 133.332 16.6719 132.832 18.0391H132.691V16H129.988V28ZM155.045 28.2344C157.842 28.2344 159.764 26.8672 160.264 24.7812L157.623 24.4844C157.24 25.5 156.303 26.0312 155.084 26.0312C153.256 26.0312 152.045 24.8281 152.021 22.7734H160.381V21.9062C160.381 17.6953 157.85 15.8438 154.896 15.8438C151.459 15.8438 149.217 18.3672 149.217 22.0703C149.217 25.8359 151.428 28.2344 155.045 28.2344ZM152.029 20.8672C152.115 19.3359 153.248 18.0469 154.936 18.0469C156.561 18.0469 157.654 19.2344 157.67 20.8672H152.029ZM168.086 28.2344C170.883 28.2344 172.805 26.8672 173.305 24.7812L170.664 24.4844C170.281 25.5 169.344 26.0312 168.125 26.0312C166.297 26.0312 165.086 24.8281 165.063 22.7734H173.422V21.9062C173.422 17.6953 170.891 15.8438 167.938 15.8438C164.5 15.8438 162.258 18.3672 162.258 22.0703C162.258 25.8359 164.469 28.2344 168.086 28.2344ZM165.07 20.8672C165.156 19.3359 166.289 18.0469 167.977 18.0469C169.602 18.0469 170.695 19.2344 170.711 20.8672H165.07ZM181.807 16H179.439V13.125H176.611V16H174.908V18.1875H176.611V24.8594C176.596 27.1172 178.236 28.2266 180.361 28.1641C181.166 28.1406 181.721 27.9844 182.025 27.8828L181.549 25.6719C181.393 25.7109 181.072 25.7812 180.721 25.7812C180.01 25.7812 179.439 25.5312 179.439 24.3906V18.1875H181.807V16Z" fill="#4E5D78"/>
<defs>
<filter id="filter0_ddi" x="-3.69571" y="-2.01797" width="52.3914" height="48.5695" filterUnits="userSpaceOnUse" color-interpolation-filters="sRGB">
<feFlood flood-opacity="0" result="BackgroundImageFix"/>
<feColorMatrix in="SourceAlpha" type="matrix" values="0 0 0 0 0 0 0 0 0 0 0 0 0 0 0 0 0 0 127 0" result="hardAlpha"/>
<feOffset dy="2.85578"/>
<feGaussianBlur stdDeviation="1.84785"/>
<feColorMatrix type="matrix" values="0 0 0 0 0 0 0 0 0 0 0 0 0 0 0 0 0 0 0.1 0"/>
<feBlend mode="normal" in2="BackgroundImageFix" result="effect1_dropShadow"/>
<feColorMatrix in="SourceAlpha" type="matrix" values="0 0 0 0 0 0 0 0 0 0 0 0 0 0 0 0 0 0 127 0" result="hardAlpha"/>
<feOffset dy="0.839934"/>
<feGaussianBlur stdDeviation="0.671947"/>
<feColorMatrix type="matrix" values="0 0 0 0 0 0 0 0 0 0 0 0 0 0 0 0 0 0 0.1 0"/>
<feBlend mode="normal" in2="effect1_dropShadow" result="effect2_dropShadow"/>
<feBlend mode="normal" in="SourceGraphic" in2="effect2_dropShadow" result="shape"/>
<feColorMatrix in="SourceAlpha" type="matrix" values="0 0 0 0 0 0 0 0 0 0 0 0 0 0 0 0 0 0 127 0" result="hardAlpha"/>
<feOffset dy="-2.01797"/>
<feGaussianBlur stdDeviation="1.68164"/>
<feComposite in2="hardAlpha" operator="arithmetic" k2="-1" k3="1"/>
<feColorMatrix type="matrix" values="0 0 0 0 0.156528 0 0 0 0 0.37375 0 0 0 0 0.670833 0 0 0 1 0"/>
<feBlend mode="normal" in2="shape" result="effect3_innerShadow"/>
</filter>
<filter id="filter1_f" x="-22.9423" y="11.7605" width="85.8847" height="68.3712" filterUnits="userSpaceOnUse" color-interpolation-filters="sRGB">
<feFlood flood-opacity="0" result="BackgroundImageFix"/>
<feBlend mode="normal" in="SourceGraphic" in2="BackgroundImageFix" result="shape"/>
<feGaussianBlur stdDeviation="12.0117" result="effect1_foregroundBlur"/>
</filter>
<filter id="filter2_f" x="19.5521" y="-8.98865" width="46.9502" height="59.7069" filterUnits="userSpaceOnUse" color-interpolation-filters="sRGB">
<feFlood flood-opacity="0" result="BackgroundImageFix"/>
<feBlend mode="normal" in="SourceGraphic" in2="BackgroundImageFix" result="shape"/>
<feGaussianBlur stdDeviation="8.00781" result="effect1_foregroundBlur"/>
</filter>
<filter id="filter3_dii" x="10.683" y="4.85366" width="20" height="31.6759" filterUnits="userSpaceOnUse" color-interpolation-filters="sRGB">
<feFlood flood-opacity="0" result="BackgroundImageFix"/>
<feColorMatrix in="SourceAlpha" type="matrix" values="0 0 0 0 0 0 0 0 0 0 0 0 0 0 0 0 0 0 127 0" result="hardAlpha"/>
<feOffset dy="1"/>
<feGaussianBlur stdDeviation="1"/>
<feColorMatrix type="matrix" values="0 0 0 0 0 0 0 0 0 0 0 0 0 0 0 0 0 0 0.1 0"/>
<feBlend mode="normal" in2="BackgroundImageFix" result="effect1_dropShadow"/>
<feBlend mode="normal" in="SourceGraphic" in2="effect1_dropShadow" result="shape"/>
<feColorMatrix in="SourceAlpha" type="matrix" values="0 0 0 0 0 0 0 0 0 0 0 0 0 0 0 0 0 0 127 0" result="hardAlpha"/>
<feOffset dy="-1"/>
<feGaussianBlur stdDeviation="0.75"/>
<feComposite in2="hardAlpha" operator="arithmetic" k2="-1" k3="1"/>
<feColorMatrix type="matrix" values="0 0 0 0 0.129412 0 0 0 0 0.533333 0 0 0 0 1 0 0 0 0.25 0"/>
<feBlend mode="normal" in2="shape" result="effect2_innerShadow"/>
<feColorMatrix in="SourceAlpha" type="matrix" values="0 0 0 0 0 0 0 0 0 0 0 0 0 0 0 0 0 0 127 0" result="hardAlpha"/>
<feOffset dy="-0.479962"/>
<feGaussianBlur stdDeviation="0.319975"/>
<feComposite in2="hardAlpha" operator="arithmetic" k2="-1" k3="1"/>
<feColorMatrix type="matrix" values="0 0 0 0 1 0 0 0 0 1 0 0 0 0 1 0 0 0 0.75 0"/>
<feBlend mode="normal" in2="effect2_innerShadow" result="effect3_innerShadow"/>
</filter>
<linearGradient id="paint0_linear" x1="-3.0971" y1="68.4375" x2="45.4305" y2="20.4352" gradientUnits="userSpaceOnUse">
<stop offset="0.203125" stop-color="#0A61E0"/>
<stop offset="0.8125" stop-color="#01C2FF"/>
</linearGradient>
<linearGradient id="paint1_linear" x1="22.6111" y1="-0.000104827" x2="-3.95962" y2="38.4616" gradientUnits="userSpaceOnUse">
<stop stop-color="#B9D3FF"/>
<stop offset="0.798649" stop-color="#0061FF"/>
</linearGradient>
<linearGradient id="paint2_linear" x1="-3.0971" y1="68.4375" x2="45.4305" y2="20.4352" gradientUnits="userSpaceOnUse">
<stop offset="0.203125" stop-color="#0A61E0"/>
<stop offset="0.8125" stop-color="#01C2FF"/>
</linearGradient>
<linearGradient id="paint3_linear" x1="22.6111" y1="-0.000104827" x2="-3.95962" y2="38.4616" gradientUnits="userSpaceOnUse">
<stop stop-color="#B9D3FF"/>
<stop offset="0.798649" stop-color="#0061FF"/>
</linearGradient>
<linearGradient id="paint4_linear" x1="-3.0971" y1="68.4375" x2="45.4305" y2="20.4352" gradientUnits="userSpaceOnUse">
<stop offset="0.203125" stop-color="#0A61E0"/>
<stop offset="0.8125" stop-color="#01C2FF"/>
</linearGradient>
<linearGradient id="paint5_linear" x1="22.6111" y1="-0.000104827" x2="-3.95962" y2="38.4616" gradientUnits="userSpaceOnUse">
<stop stop-color="#B9D3FF"/>
<stop offset="0.798649" stop-color="#0061FF"/>
</linearGradient>
</defs>
</svg>
