<svg width="27" height="27" viewBox="0 0 27 27" fill="none" xmlns="http://www.w3.org/2000/svg">
<path opacity="0.4" d="M20.906 7.22827C24.174 7.22827 26.834 9.97467 26.834 13.3502L26.834 20.0599C26.834 23.4272 24.1807 26.1667 20.9193 26.1667L6.09798 26.1667C2.82865 26.1667 0.167316 23.4217 0.167316 20.0462L0.167316 13.3364C0.167316 9.96916 2.82198 7.22827 6.08465 7.22827H7.33798L20.906 7.22827Z" fill="url(#paint0_linear)"/>
<path d="M14.2289 18.8831L18.1076 14.9259C18.5076 14.5169 18.5076 13.8587 18.1049 13.4511C17.7022 13.0448 17.0529 13.0462 16.6529 13.4538L14.5289 15.6206L14.5289 1.87605C14.5289 1.30048 14.0689 0.833252 13.5009 0.833252C12.9342 0.833252 12.4756 1.30048 12.4756 1.87605L12.4756 15.6206L10.3502 13.4538C9.95022 13.0462 9.30089 13.0448 8.89823 13.4511C8.69689 13.6556 8.59556 13.9224 8.59556 14.1905C8.59556 14.456 8.69689 14.7228 8.89556 14.9259L12.7742 18.8831C12.9676 19.0795 13.2289 19.1905 13.5009 19.1905C13.7742 19.1905 14.0356 19.0795 14.2289 18.8831Z" fill="url(#paint1_linear)"/>
<defs>
<linearGradient id="paint0_linear" x1="4.42327" y1="29.4603" x2="27.0097" y2="13.6437" gradientUnits="userSpaceOnUse">
<stop stop-color="#5E52D2"/>
<stop offset="1" stop-color="#B697F9"/>
</linearGradient>
<linearGradient id="paint1_linear" x1="10.1615" y1="22.3831" x2="21.7297" y2="19.3081" gradientUnits="userSpaceOnUse">
<stop stop-color="#5E52D2"/>
<stop offset="1" stop-color="#B697F9"/>
</linearGradient>
</defs>
</svg>
