<svg width="40" height="40" viewBox="0 0 40 40" fill="none" xmlns="http://www.w3.org/2000/svg">
<g clip-path="url(#clip0)">
<rect y="-0.000244141" width="40" height="40" rx="6" fill="#7165E3" fill-opacity="0.05"/>
<rect y="-0.000244141" width="40" height="40" rx="6" fill="url(#paint0_linear)" fill-opacity="0.05"/>
<path fill-rule="evenodd" clip-rule="evenodd" d="M20.9129 11.3781C20.4064 10.8739 19.586 10.8757 19.0809 11.383L18.3414 12.1236L18.3383 12.1267C17.7106 12.7499 16.8621 13.0996 15.9787 13.0996H14.9219C14.2077 13.0996 13.6269 13.6799 13.6269 14.3957V15.4504C13.6269 16.337 13.2754 17.1842 12.6529 17.811L12.6509 17.8131L11.9044 18.5607C11.4002 19.0671 11.402 19.8871 11.9099 20.3922L11.9125 20.3947L12.6509 21.1342C13.2756 21.7604 13.6269 22.6112 13.6269 23.4948V24.5516C13.6269 25.2668 14.2072 25.8466 14.9219 25.8466H15.9787C16.8633 25.8466 17.7114 26.1982 18.3383 26.8206L18.3409 26.8232L19.0838 27.5661L19.0865 27.5688C19.5945 28.0739 20.4145 28.071 20.918 27.5641L20.921 27.5611L21.6616 26.8215C22.2882 26.1979 23.137 25.8466 24.0221 25.8466H25.0778C25.7939 25.8466 26.3739 25.2665 26.3739 24.5516V23.4948C26.3739 22.6123 26.723 21.7615 27.3486 21.1345L28.096 20.387C28.6004 19.8798 28.5982 19.0601 28.0905 18.5547L27.3494 17.8136L27.3468 17.811C26.7236 17.1833 26.3739 16.3359 26.3739 15.4504V14.3957C26.3739 13.6802 25.7933 13.0996 25.0778 13.0996H24.0221C23.1381 13.0996 22.289 12.7502 21.6616 12.1258L21.6599 12.1241L20.939 11.4033C20.9302 11.395 20.9215 11.3866 20.9129 11.3781ZM11.5729 14.3957C11.5729 12.5461 13.0728 11.0457 14.9219 11.0457H15.9787C16.3189 11.0457 16.6467 10.9111 16.8898 10.6705L17.6253 9.93395C17.6255 9.9337 17.6258 9.93345 17.626 9.9332C18.9238 8.6303 21.029 8.61741 22.3416 9.90233C22.3522 9.9121 22.3626 9.92209 22.3729 9.9323L23.1106 10.67C23.1108 10.6703 23.1111 10.6705 23.1113 10.6708C23.3527 10.9106 23.6802 11.0457 24.0221 11.0457H25.0778C26.9277 11.0457 28.4279 12.5458 28.4279 14.3957V15.4504C28.4279 15.7927 28.5625 16.1195 28.8032 16.3626C28.8036 16.363 28.804 16.3634 28.8044 16.3638L29.5396 17.099C29.5399 17.0994 29.5402 17.0997 29.5405 17.1C30.8496 18.4042 30.8574 20.523 29.5525 21.8353L29.5504 21.8374L28.8027 22.5852C28.8028 22.5851 28.8025 22.5853 28.8027 22.5852C28.5637 22.8249 28.4279 23.1533 28.4279 23.4948V24.5516C28.4279 26.4021 26.9271 27.9006 25.0778 27.9006H24.0221C23.6812 27.9006 23.3534 28.0359 23.1111 28.2767C23.1113 28.2765 23.1109 28.2769 23.1111 28.2767L22.3753 29.0115C22.3748 29.012 22.3743 29.0126 22.3737 29.0131C21.0696 30.3244 18.9495 30.3292 17.6382 29.0253L17.6362 29.0232L16.8911 28.2781C16.8907 28.2777 16.8902 28.2773 16.8898 28.2769C16.6459 28.0354 16.3177 27.9006 15.9787 27.9006H14.9219C13.0734 27.9006 11.5729 26.4018 11.5729 24.5516V23.4948C11.5729 23.1543 11.4371 22.8258 11.1971 22.5852L10.4616 21.8487C10.4612 21.8482 10.4607 21.8478 10.4603 21.8473C9.14971 20.5427 9.14368 18.4225 10.4487 17.1116L10.4503 17.1099L11.1954 16.3638C11.1957 16.3635 11.196 16.3632 11.1963 16.3629C11.438 16.119 11.5729 15.7917 11.5729 15.4504V14.3957Z" fill="url(#paint1_linear)"/>
<path fill-rule="evenodd" clip-rule="evenodd" d="M23.3655 16.108C23.7666 16.5091 23.7666 17.1593 23.3655 17.5604L18.0868 22.8391C17.6857 23.2402 17.0355 23.2402 16.6344 22.8391C16.2333 22.4381 16.2333 21.7878 16.6344 21.3867L21.9131 16.108C22.3142 15.707 22.9644 15.707 23.3655 16.108Z" fill="url(#paint2_linear)"/>
<path d="M22.6359 22.8856C22.4305 22.8856 22.2354 22.8034 22.0916 22.6596C22.0197 22.5878 21.9684 22.4953 21.9273 22.4029C21.8862 22.3105 21.8657 22.2191 21.8657 22.1153C21.8657 22.0126 21.8862 21.9099 21.9273 21.8175C21.9684 21.7251 22.0197 21.6429 22.0916 21.571C22.3792 21.2835 22.8927 21.2835 23.1802 21.571C23.2521 21.6429 23.3137 21.7251 23.3548 21.8175C23.3856 21.9099 23.4062 22.0126 23.4062 22.1153C23.4062 22.2191 23.3856 22.3105 23.3548 22.4029C23.3137 22.4953 23.2521 22.5878 23.1802 22.6596C23.0365 22.8034 22.8413 22.8856 22.6359 22.8856Z" fill="url(#paint3_linear)"/>
<path d="M17.3576 17.607C17.2549 17.607 17.1624 17.5854 17.07 17.5443C16.9776 17.5033 16.8852 17.4529 16.8133 17.3811C16.7414 17.2989 16.69 17.2167 16.649 17.1243C16.6079 17.0309 16.5873 16.9394 16.5873 16.8368C16.5873 16.733 16.6079 16.6314 16.649 16.5389C16.69 16.4465 16.7414 16.3541 16.8133 16.2924C17.1111 16.0039 17.6143 16.0039 17.9019 16.2924C18.0457 16.4352 18.1278 16.6314 18.1278 16.8368C18.1278 16.9394 18.1175 17.0309 18.0765 17.1243C18.0354 17.2167 17.9738 17.2989 17.9019 17.3811C17.83 17.4529 17.7478 17.5033 17.6554 17.5443C17.563 17.5854 17.4603 17.607 17.3576 17.607Z" fill="url(#paint4_linear)"/>
<path fill-rule="evenodd" clip-rule="evenodd" d="M18.4475 15.7488L17.9019 16.2924L18.4446 15.7459C18.7341 16.0334 18.8981 16.4263 18.8981 16.8368C18.8981 16.9928 18.8829 17.2039 18.7816 17.4343L18.7803 17.4371C18.6932 17.6333 18.5732 17.7835 18.4815 17.8883L18.4647 17.9076L18.4465 17.9257C18.2903 18.0819 18.1211 18.1803 17.9682 18.2482C17.7755 18.3338 17.5661 18.3772 17.3576 18.3772C17.1379 18.3772 16.9393 18.3291 16.7572 18.2482C16.6359 18.1943 16.4408 18.0979 16.2686 17.9257L16.2505 17.9076L16.2336 17.8883C16.1096 17.7465 16.0168 17.5985 15.9451 17.4371L15.9438 17.4343C15.8626 17.2494 15.8171 17.0528 15.8171 16.8368C15.8171 16.632 15.8576 16.423 15.9451 16.2261C15.9945 16.1149 16.0973 15.9001 16.2924 15.7249C16.8851 15.1663 17.8588 15.158 18.4475 15.7488Z" fill="url(#paint5_linear)"/>
<path fill-rule="evenodd" clip-rule="evenodd" d="M23.5824 21.2006L23.0368 21.7443L23.5795 21.1977C23.8691 21.4852 24.033 21.8782 24.033 22.2886C24.033 22.4446 24.0178 22.6557 23.9165 22.8861L23.9153 22.889C23.8281 23.0851 23.7082 23.2353 23.6165 23.3401L23.5996 23.3594L23.5815 23.3776C23.4252 23.5338 23.256 23.6321 23.1032 23.7001C22.9105 23.7857 22.701 23.8291 22.4925 23.8291C22.2728 23.8291 22.0742 23.781 21.8921 23.7001C21.7708 23.6462 21.5757 23.5497 21.4036 23.3776L21.3854 23.3594L21.3685 23.3401C21.2445 23.1984 21.1518 23.0504 21.08 22.889L21.0788 22.8861C20.9975 22.7012 20.952 22.5047 20.952 22.2886C20.952 22.0838 20.9925 21.8748 21.08 21.678C21.1295 21.5667 21.2322 21.352 21.4273 21.1767C22.0201 20.6181 22.9937 20.6098 23.5824 21.2006Z" fill="url(#paint6_linear)"/>
</g>
<defs>
<linearGradient id="paint0_linear" x1="20" y1="-0.000244141" x2="20" y2="39.9998" gradientUnits="userSpaceOnUse">
<stop stop-color="#9274F4"/>
<stop offset="1" stop-color="#5E50E0"/>
</linearGradient>
<linearGradient id="paint1_linear" x1="34.1882" y1="26.6399" x2="23.5924" y2="5.33385" gradientUnits="userSpaceOnUse">
<stop stop-color="#5E52D2"/>
<stop offset="1" stop-color="#B697F9"/>
</linearGradient>
<linearGradient id="paint2_linear" x1="34.1882" y1="26.6399" x2="23.5924" y2="5.33385" gradientUnits="userSpaceOnUse">
<stop stop-color="#5E52D2"/>
<stop offset="1" stop-color="#B697F9"/>
</linearGradient>
<linearGradient id="paint3_linear" x1="34.1882" y1="26.6399" x2="23.5924" y2="5.33385" gradientUnits="userSpaceOnUse">
<stop stop-color="#5E52D2"/>
<stop offset="1" stop-color="#B697F9"/>
</linearGradient>
<linearGradient id="paint4_linear" x1="34.1882" y1="26.6399" x2="23.5924" y2="5.33385" gradientUnits="userSpaceOnUse">
<stop stop-color="#5E52D2"/>
<stop offset="1" stop-color="#B697F9"/>
</linearGradient>
<linearGradient id="paint5_linear" x1="34.1882" y1="26.6399" x2="23.5924" y2="5.33385" gradientUnits="userSpaceOnUse">
<stop stop-color="#5E52D2"/>
<stop offset="1" stop-color="#B697F9"/>
</linearGradient>
<linearGradient id="paint6_linear" x1="34.1882" y1="26.6399" x2="23.5924" y2="5.33385" gradientUnits="userSpaceOnUse">
<stop stop-color="#5E52D2"/>
<stop offset="1" stop-color="#B697F9"/>
</linearGradient>
<clipPath id="clip0">
<rect width="40" height="40" fill="white" transform="translate(0 -0.000244141)"/>
</clipPath>
</defs>
</svg>
