<svg width="40" height="40" viewBox="0 0 40 40" fill="none" xmlns="http://www.w3.org/2000/svg">
<rect width="40" height="40" rx="6" fill="#7165E3" fill-opacity="0.05"/>
<rect width="40" height="40" rx="6" fill="url(#paint0_linear)" fill-opacity="0.05"/>
<path d="M12.386 24.825C12.2134 24.6876 12.0874 24.4944 12.0355 24.2729C11.9883 24.095 11.9882 23.9065 12.0351 23.7286C12.0869 23.506 12.2134 23.312 12.3868 23.1743L15.1436 20.2986C15.5252 19.9005 16.144 19.9005 16.5256 20.2986L16.5567 20.331C16.9383 20.7291 16.9383 21.3746 16.5567 21.7727L15.4208 22.9576H22.9999C23.5522 22.9576 23.9999 23.404 23.9999 23.9548V24.0451C23.9999 24.5958 23.5522 25.0423 22.9999 25.0423H15.4206L16.5567 26.2274C16.9383 26.6255 16.9383 27.2709 16.5567 27.669L16.5256 27.7015C16.144 28.0996 15.5252 28.0996 15.1436 27.7015L12.386 24.825Z" fill="url(#paint1_linear)"/>
<path d="M27.614 15.1751C27.7866 15.3124 27.9127 15.5056 27.9646 15.7272C28.0117 15.905 28.0119 16.0935 27.9649 16.2714C27.9132 16.494 27.7867 16.688 27.6132 16.8257L24.8564 19.7014C24.4748 20.0995 23.856 20.0995 23.4744 19.7014L23.4433 19.669C23.0616 19.2709 23.0616 18.6254 23.4433 18.2273L24.5792 17.0424H17C16.4477 17.0424 16 16.596 16 16.0452V15.955C16 15.4042 16.4477 14.9578 17 14.9578H24.5794L23.4433 13.7727C23.0616 13.3746 23.0616 12.7291 23.4433 12.331L23.4744 12.2986C23.856 11.9005 24.4748 11.9005 24.8564 12.2986L27.614 15.1751Z" fill="url(#paint2_linear)"/>
<defs>
<linearGradient id="paint0_linear" x1="20" y1="0" x2="20" y2="40" gradientUnits="userSpaceOnUse">
<stop stop-color="#9274F4"/>
<stop offset="1" stop-color="#5E50E0"/>
</linearGradient>
<linearGradient id="paint1_linear" x1="30.7826" y1="25.4465" x2="22.7297" y2="9.25397" gradientUnits="userSpaceOnUse">
<stop stop-color="#5E52D2"/>
<stop offset="1" stop-color="#B697F9"/>
</linearGradient>
<linearGradient id="paint2_linear" x1="30.7826" y1="25.4465" x2="22.7297" y2="9.25397" gradientUnits="userSpaceOnUse">
<stop stop-color="#5E52D2"/>
<stop offset="1" stop-color="#B697F9"/>
</linearGradient>
</defs>
</svg>
