<svg width="88" height="81" viewBox="0 0 88 81" fill="none" xmlns="http://www.w3.org/2000/svg">
<path d="M45.4819 73.4975C41.702 72.8463 40.7665 65.174 40.6478 64.0828C40.3508 61.3514 39.9826 57.9659 42.0725 55.1016C45.0934 50.9614 50.2367 52.0399 51.464 48.6021C52.2182 46.4894 50.3619 45.8403 50.2744 41.8008C50.2492 40.6415 50.1585 36.4562 53.2549 33.0731C55.4629 30.6606 58.2695 29.7726 59.7538 29.4287C60.2376 28.2727 60.8002 26.5201 60.7871 24.3821C60.7662 20.952 59.2825 19.6282 60.0523 17.8094C60.9345 15.7251 64.0796 14.6367 66.4729 14.6578C72.848 14.7139 76.3412 22.6638 76.5804 23.2293C77.1987 24.6906 79.1575 29.3204 76.9157 32.6897C75.1446 35.3515 72.1356 35.1469 71.6768 37.3352C71.219 39.5187 74.0792 40.3689 74.7556 43.7017C75.3331 46.5475 74.0624 49.9411 71.8135 51.852C68.0571 55.0439 63.459 52.4948 61.4478 55.1395C59.1063 58.2184 63.8304 63.6566 61.741 65.4916C59.7579 67.2333 54.5724 63.1496 52.0461 65.1837C50.2199 66.654 51.9135 69.6059 49.4505 71.9685C49.303 72.11 47.4546 73.8375 45.4819 73.4975Z" fill="#D8DEE8"/>
<path opacity="0.5" d="M65.3365 16.467C67.7586 16.995 68.8795 23.8905 67.5997 29.7943C66.7185 33.8595 65.4618 33.9353 62.2341 40.817C57.8598 50.1434 59.4852 51.4595 56.3045 54.7184C51.9398 59.1904 47.4634 58.1626 45.0614 62.4642C43.4357 65.3757 43.906 68.6767 44.6118 71.1027C43.7101 69.7949 42.309 67.3744 41.9184 64.0977C41.6639 61.9631 41.2036 58.1027 43.5532 55.7532C46.3726 52.9337 50.5256 55.0024 52.4606 52.3811C53.5576 50.8951 52.5717 49.7576 52.3179 44.6826C52.062 39.5632 51.934 37.0036 53.4 34.8193C56.0152 30.923 60.7176 32.5115 62.3269 29.1311C63.9952 25.6265 59.7587 22.2022 61.9626 18.6512C62.6732 17.5061 64.1413 16.2065 65.3365 16.467Z" fill="#F4F7FA"/>
<path d="M60.3331 72.5719C64.4738 71.8585 65.4986 63.4538 65.6286 62.2585C65.954 59.2664 66.3573 55.5578 64.0679 52.4201C60.7587 47.8847 55.1245 49.066 53.78 45.3001C52.9538 42.9858 54.9872 42.2748 55.0832 37.8497C55.1107 36.5797 55.2101 31.995 51.8181 28.2889C49.3994 25.6461 46.3249 24.6734 44.6989 24.2966C44.1689 23.0303 43.5526 21.1104 43.5669 18.7683C43.5899 15.0109 45.2152 13.5607 44.3719 11.5683C43.4055 9.28501 39.9603 8.09271 37.3385 8.11581C30.3549 8.17731 26.5283 16.886 26.2662 17.5055C25.5889 19.1063 23.4431 24.178 25.8989 27.8689C27.839 30.7848 31.1352 30.5606 31.6378 32.9578C32.1393 35.3497 29.0062 36.2811 28.2652 39.932C27.6325 43.0495 29.0245 46.767 31.4881 48.8603C35.6031 52.3568 40.64 49.5644 42.8432 52.4615C45.4082 55.8343 40.2332 61.7916 42.522 63.8017C44.6945 65.7097 50.3749 61.2363 53.1424 63.4644C55.1429 65.0751 53.2875 68.3088 55.9857 70.8969C56.1473 71.0519 58.1721 72.9442 60.3331 72.5719Z" fill="url(#paint0_linear)"/>
<path opacity="0.5" d="M38.5835 10.0984C35.9303 10.6768 34.7023 18.2305 36.1043 24.6978C37.0696 29.151 38.4462 29.2341 41.982 36.7726C46.7738 46.9892 44.9934 48.431 48.4776 52.0009C53.2589 56.8997 58.1626 55.7738 60.7939 60.486C62.5748 63.6754 62.0596 67.2916 61.2865 69.9491C62.2741 68.5165 63.809 65.865 64.2369 62.2754C64.5157 59.9371 65.0199 55.7082 62.446 53.1344C59.3575 50.0459 54.8082 52.312 52.6884 49.4406C51.4867 47.8127 52.5667 46.5666 52.8447 41.0071C53.1251 35.3992 53.2653 32.5952 51.6593 30.2025C48.7945 25.9342 43.6433 27.6744 41.8804 23.9713C40.0528 20.1322 44.6938 16.381 42.2795 12.491C41.501 11.2367 39.8928 9.81306 38.5835 10.0984Z" fill="#F4F7FA"/>
<path d="M43.7115 73.9436C41.4499 73.5764 40.2002 68.3091 40.6846 64.2235C40.872 62.643 41.0584 61.0707 42.2751 59.6384C44.3286 57.221 46.702 58.2804 48.5082 56.3307C51.1753 53.4516 47.8566 49.1374 50.4237 46.7967C52.312 45.0749 54.7058 46.8639 56.9593 44.9981C59.5734 42.8336 57.981 39.0774 60.2302 38.1216C61.5367 37.5664 62.418 38.6876 65.9558 38.4518C67.3398 38.3595 68.0318 38.3133 68.6649 37.9526C70.8846 36.688 69.8117 33.827 71.5875 32.0739C73.5424 30.144 77.7763 30.7143 80.2946 31.7803C84.8067 33.6903 86.8374 38.4726 86.9064 42.2763C86.9212 43.0912 86.9281 48.398 82.9029 51.2081C79.976 53.2515 76.0407 53.1902 75.4026 53.1802C72.916 53.1414 72.4179 52.4592 71.5352 52.9527C68.9836 54.3789 72.5434 60.4153 69.2829 64.2659C67.9517 65.838 65.6838 66.8093 63.6723 66.8964C60.4201 67.0373 59.0195 64.8158 57.2914 65.5781C55.0557 66.5644 56.4081 70.72 53.957 71.9446C52.2227 72.8111 50.8904 71.0582 47.9665 71.7888C45.3708 72.4373 45.0506 74.1611 43.7115 73.9436Z" fill="url(#paint1_linear)"/>
<path opacity="0.5" d="M43.8389 70.0897C44.8705 70.3314 45.4199 67.6828 48.9412 64.2055C52.7865 60.4082 54.8537 60.8783 58.4333 57.462C62.5197 53.562 60.634 52.1777 64.0583 49.1579C68.6992 45.065 72.6439 47.1837 78.2252 42.3919C79.8994 40.9545 82.128 38.9854 81.7653 36.5694C81.4508 34.4746 79.2292 32.3182 76.7101 32.3137C76.6047 32.3135 74.4862 32.3412 73.1342 33.8803C71.4757 35.7683 72.9022 37.7318 71.3642 39.1637C70.5587 39.9137 69.3026 40.0006 66.7904 40.1745C63.1773 40.4245 62.5753 39.7023 61.5869 40.3262C59.3533 41.7362 61.5863 45.9545 59.318 47.7039C57.3706 49.2057 54.5672 46.9891 52.8611 48.4284C50.802 50.1654 54.0091 54.1334 51.8873 57.0355C50.0603 59.5343 46.6445 58.0129 44.1831 60.6235C41.2764 63.7064 42.3501 69.7411 43.8389 70.0897Z" fill="#F4F7FA"/>
<path d="M56.9215 71.7508C58.6392 71.864 58.8721 68.8811 61.8715 67.9878C65.1892 66.9996 67.2951 69.9375 69.6064 68.815C72.2034 67.5536 70.7408 63.2634 73.6574 61.6531C75.6499 60.5529 77.0375 62.1662 79.5434 61.1567C82.1554 60.1044 84.7052 56.7171 83.7023 53.3953C82.8655 50.624 79.8485 48.867 77.4205 48.8503C75.4343 48.8366 74.8701 49.9946 73.1329 49.6534C70.9686 49.2282 71.0199 47.2689 68.7522 46.3866C66.4958 45.5087 63.411 46.2681 61.7134 48.01C60.3018 49.4585 60.1577 51.2698 60.032 52.8497C59.6947 57.091 61.7427 58.7249 60.6489 60.3546C59.2842 62.3882 55.5452 60.6645 53.8411 62.6808C51.7084 65.2041 54.451 71.5878 56.9215 71.7508Z" fill="url(#paint2_linear)"/>
<path opacity="0.5" d="M56.0889 68.6306C56.7173 68.7489 56.9026 66.8163 58.8781 65.2025C61.1431 63.3522 62.8479 64.301 65.382 62.84C68.5221 61.0296 67.3288 58.7517 70.1242 56.915C74.043 54.3402 78.9115 57.1584 80.227 55.0564C80.9956 53.8283 80.1325 51.5897 78.746 50.8592C77.2663 50.0797 76.2179 51.5589 73.6779 51.2086C71.299 50.8805 71.1654 49.4377 68.2297 48.713C66.7985 48.3596 64.9185 47.8955 63.7174 48.7657C61.364 50.4708 62.6415 56.5565 63.0314 58.4142C63.3902 60.1231 63.7229 60.7869 63.2522 61.4828C62.0193 63.3057 57.9301 61.4244 56.0384 63.393C54.4561 65.0394 55.277 68.4777 56.0889 68.6306Z" fill="#F4F7FA"/>
<path d="M87.5181 72.1022L3.38574 71.4243V73.4299C3.38574 73.9743 3.75269 74.4372 4.24967 74.5197L28.0398 78.4691C28.3221 78.5159 28.6084 78.5284 28.8933 78.5061L86.6038 74.0032C87.1191 73.963 87.5181 73.4987 87.5181 72.9394V72.1022Z" fill="#26264F"/>
<path d="M56.9848 68.8883L4.25376 72.5573C3.31018 72.6229 2.54297 71.9253 2.54297 70.9989V33.8835C2.54297 32.9571 3.31018 32.2061 4.25376 32.2061H56.9848C57.7622 32.2061 58.3907 32.8849 58.3907 33.7224V67.2741C58.3907 68.1115 57.7622 68.8342 56.9848 68.8883Z" fill="#26264F"/>
<path d="M57.8276 68.888L5.09654 72.557C4.15293 72.6227 3.38574 71.9251 3.38574 70.9987V33.8832C3.38574 32.9568 4.15293 32.2058 5.09654 32.2058H57.8276C58.605 32.2058 59.2335 32.8847 59.2335 33.7222V67.2738C59.2335 68.1113 58.605 68.8339 57.8276 68.888Z" fill="url(#paint3_linear)"/>
<path d="M56.185 66.5222L7.07156 69.7092C6.30369 69.759 5.67969 69.1864 5.67969 68.4302V35.9356C5.67969 35.1793 6.30369 34.5636 7.07156 34.5605L56.185 34.3604C56.8263 34.3577 57.345 34.914 57.345 35.6029V65.1997C57.345 65.8885 56.8263 66.4806 56.185 66.5222Z" fill="url(#paint4_linear)"/>
<path d="M33.3228 33.221C33.3228 33.5658 33.0514 33.8462 32.7163 33.8472C32.3807 33.8482 32.1084 33.5688 32.1084 33.2232C32.1084 32.8776 32.3807 32.5972 32.7163 32.5969C33.0514 32.5967 33.3228 32.8761 33.3228 33.221Z" fill="white"/>
<path opacity="0.48" d="M5.09635 72.5571L57.5606 68.9066L57.8276 68.888C58.1843 68.8632 58.5086 68.6966 58.7563 68.4437C54.9809 68.2485 52.636 66.9821 51.1233 65.6736C48.0855 63.0458 48.6125 60.4544 45.3366 58.7267C41.2507 56.5717 38.0379 59.3023 34.9374 56.6082C33.0577 54.9748 33.9806 53.7567 31.6676 51.3158C29.1058 48.6124 27.4379 49.5211 24.8634 47.088C21.608 44.0114 23.2361 41.6177 20.4321 39.4088C17.0303 36.7291 13.3617 39.2094 10.1235 36.6394C8.72682 35.531 7.96044 33.9196 7.56029 32.2058H5.09656C4.15296 32.2058 3.38574 32.9568 3.38574 33.8832V70.9987C3.38575 71.925 4.15281 72.6226 5.09635 72.5571Z" fill="white"/>
<path d="M59.9293 68.6843L3.38574 72.5463L28.0398 76.6391C28.3221 76.686 28.6084 76.6985 28.8933 76.6762L87.5181 72.1019L60.8288 68.7106C60.5303 68.6726 60.2292 68.6639 59.9293 68.6843Z" fill="url(#paint5_linear)"/>
<path d="M11.6348 72.5795L58.709 69.3164L73.278 71.1527L26.6093 74.6409L11.6348 72.5795Z" fill="#26264F"/>
<path d="M81.5726 7.16327V31.4339C81.5726 32.5532 80.7669 33.4795 79.7538 33.5024L71.3134 33.6974L45.2795 34.2992C44.2208 34.3235 43.2351 33.5093 43.1171 32.4365C43.1077 32.3548 42.9912 32.2728 42.9912 32.1884V6.32984C42.9912 5.89333 43.2294 5.49138 43.4431 5.15664C43.4492 5.14712 43.5113 5.13927 43.5173 5.13039C43.8895 4.56716 44.5448 4.20765 45.2547 4.22575L49.2039 4.32472L79.7471 5.0905C80.7603 5.116 81.5726 6.04335 81.5726 7.16327Z" fill="white"/>
<path d="M45.281 33.6124C44.5076 33.6294 43.877 32.9847 43.877 32.1752V6.34837C43.877 5.53888 44.5076 4.89542 45.281 4.91397L79.7647 5.74066C80.4534 5.75717 81.0125 6.39006 81.0125 7.15151V31.4455C81.0125 32.207 80.4534 32.8387 79.7647 32.8539L45.281 33.6124Z" fill="url(#paint6_linear)"/>
<path d="M79.7674 5.09209L45.2836 4.22744C44.1449 4.19889 43.2188 5.14228 43.2188 6.33466V7.8834L81.5987 8.61855V7.1647C81.5987 6.04539 80.7802 5.11748 79.7674 5.09209Z" fill="#D8DEE8"/>
<path d="M46.891 6.14677C46.891 6.50192 46.5908 6.78352 46.2201 6.77573C45.849 6.76794 45.5479 6.47308 45.5479 6.11716C45.5479 5.76124 45.849 5.47966 46.2201 5.48823C46.5908 5.49678 46.891 5.79161 46.891 6.14677Z" fill="white"/>
<path d="M49.2354 6.19842C49.2354 6.55224 48.9375 6.8328 48.5696 6.82508C48.2012 6.81734 47.9023 6.52362 47.9023 6.16905C47.9023 5.81447 48.2012 5.53393 48.5696 5.54242C48.9375 5.55091 49.2354 5.84461 49.2354 6.19842Z" fill="white"/>
<path d="M51.5623 6.24986C51.5623 6.60235 51.2666 6.88189 50.9015 6.87421C50.5359 6.86653 50.2393 6.57394 50.2393 6.2207C50.2393 5.86746 50.5359 5.58794 50.9015 5.59638C51.2666 5.6048 51.5623 5.89737 51.5623 6.24986Z" fill="white"/>
<path d="M79.4594 31.4863L45.624 32.1517V11.811L79.4594 12.2486V31.4863Z" fill="#D8DEE8"/>
<g opacity="0.5">
<path opacity="0.5" d="M63.7176 9.99941L45.626 9.70435V10.8031L63.7176 11.0663V9.99941Z" fill="white"/>
<path opacity="0.5" d="M77.5049 10.2253V11.268L79.4586 11.2964V10.2572L77.5049 10.2253Z" fill="white"/>
</g>
<g opacity="0.5">
<path opacity="0.5" d="M71.5337 33.6979L45.4968 34.2997C44.4382 34.324 43.4443 33.51 43.3263 32.4372C43.3256 32.4133 43.2051 32.3908 43.2051 32.3669V6.31883C43.2051 5.88748 43.4443 5.49006 43.6506 5.15709C43.6567 5.14757 43.7219 5.13979 43.728 5.13091C44.0981 4.55217 44.7617 4.1813 45.4796 4.19962L49.4077 4.29822C49.4104 4.30724 49.4211 4.31641 49.4244 4.32544C49.4975 4.55162 49.5817 4.7812 49.67 5.01404C50.0177 5.93703 50.484 6.90505 51.1079 7.85836C51.146 7.91715 51.1856 7.97469 51.225 8.03222C51.6846 8.71292 52.1728 9.30093 52.6828 9.81596C53.0903 10.2281 53.5118 10.5929 53.9438 10.9207C54.4499 11.3057 54.9711 11.6383 55.5018 11.9358C59.3247 14.0796 63.6181 14.3596 66.4662 18.6579C68.907 22.3417 67.1588 24.275 69.5195 29.911C69.7761 30.5238 70.0518 31.1092 70.3441 31.6691C70.5927 32.1473 70.8528 32.6069 71.1234 33.0487C71.2573 33.2698 71.3949 33.4864 71.5337 33.6979Z" fill="white"/>
</g>
<path d="M57.7585 31.2898C51.8841 30.4346 50.576 29.8034 49.9693 28.6252C49.0866 26.9109 49.7287 24.1208 51.2362 22.4041C52.5537 20.9036 54.192 20.6118 54.1442 19.5738C54.1049 18.7199 52.9825 18.6054 52.1565 16.9927C51.9152 16.5216 51.4463 15.6063 51.6505 14.5099C51.9492 12.9059 53.47 12.0823 53.5931 12.018C55.1775 11.1908 56.0786 12.1795 57.2662 11.4364C58.748 10.5092 58.0768 8.50412 59.4634 7.95259C60.4698 7.55228 61.7531 8.2418 62.0873 8.42137C63.2002 9.01939 63.0834 9.60272 64.0213 9.97661C65.1194 10.4143 65.6427 9.75763 66.9136 10.0446C67.9606 10.281 68.7172 11.0112 69.3334 11.7428C70.7155 13.3834 70.029 14.3396 71.0485 16.3502C72.4796 19.1723 74.6317 18.8587 75.0124 21.1083C75.2113 22.2838 74.7004 22.8172 75.0928 24.6176C75.3576 25.8325 75.6907 26.0487 75.7497 26.7633C75.9195 28.8176 73.4636 30.6463 73.0038 30.9691C70.067 33.0306 65.971 32.4853 57.7585 31.2898Z" fill="url(#paint7_linear)"/>
<path opacity="0.7" d="M67.0989 25.7285C63.254 25.4742 60.6355 28.9431 59.5933 28.0924C58.6032 27.2844 61.3937 24.5191 60.4424 21.3074C59.5066 18.1485 55.8179 17.4686 56.1104 15.6834C56.4412 13.6647 61.3722 13.2001 61.2569 11.7175C61.1888 10.8425 59.4507 10.6305 59.1025 9.23388C59.0079 8.85459 59.0394 8.4808 59.1382 8.13257C58.1788 8.85322 58.6151 10.5913 57.2652 11.4359C56.0776 12.179 55.1766 11.1903 53.5922 12.0175C53.469 12.0818 51.9483 12.9054 51.6495 14.5094C51.4454 15.6058 51.9142 16.5211 52.1555 16.9922C52.9816 18.6049 54.104 18.7194 54.1433 19.5733C54.191 20.6112 52.5527 20.9031 51.2352 22.4036C49.7277 24.1203 49.0856 26.9104 49.9683 28.6246C50.575 29.8029 51.8831 30.4341 57.7575 31.2893C65.9701 32.4848 70.066 33.0301 73.0028 30.9685C74.1363 30.1729 75.4691 28.8241 75.7546 27.6325C75.1847 28.1442 74.6251 28.3954 74.1027 28.4925C71.6622 28.9461 70.5305 25.9555 67.0989 25.7285Z" fill="url(#paint8_linear)"/>
<path d="M51.2068 38.7802C50.3162 36.6697 50.8592 33.3365 50.9737 32.6344C51.4198 29.8965 52.4699 28.1979 52.8521 27.5948C55.4655 23.4705 59.4189 23.5009 62.3845 23.5238C63.8461 23.535 65.357 23.504 67.1994 24.1474C67.1994 24.1474 68.6534 24.6551 69.8805 25.5016C73.5351 28.0224 76.4099 36.2762 73.4727 39.4441C71.5952 41.4691 69.6651 38.9497 61.2338 40.2995C57.8223 40.8457 54.2123 41.7378 52.0603 39.9759C51.7038 39.684 51.4235 39.2937 51.2068 38.7802Z" fill="url(#paint9_linear)"/>
<path d="M60.8291 18.5801C60.8291 18.5801 61.4542 23.0004 58.2776 23.8839C57.9097 23.9862 57.7968 24.4449 58.0754 24.7009L61.9902 28.2988C62.226 28.5155 62.5975 28.4973 62.8143 28.2587L66.322 24.3977C66.5509 24.1458 66.4507 23.7456 66.1305 23.6292C65.0078 23.2213 62.9896 22.0289 63.4138 18.8052L60.8291 18.5801Z" fill="url(#paint10_linear)"/>
<path d="M58.8812 16.1095C58.8822 16.158 59.7391 20.4852 61.9308 20.4901C63.9945 20.4946 64.7754 17.3375 65.0293 15.8646C65.0562 15.614 65.0832 15.3635 65.1102 15.113C64.9705 15.157 64.6238 15.2455 64.2088 15.13C64.1146 15.1038 63.517 14.9374 63.2949 14.4473C63.0473 13.9009 63.5024 13.4739 63.2432 12.9955C63.0928 12.718 62.7897 12.5849 62.5582 12.5159C62.7124 12.7412 63.0114 13.2435 62.8424 13.6943C62.7288 13.9971 62.4107 14.2853 61.7 14.4553C59.66 14.9434 58.8611 15.1294 58.8812 16.1095Z" fill="url(#paint11_linear)"/>
<path d="M59.4205 16.6313C59.4205 16.6313 58.2849 15.6779 58.1857 16.2553C57.9788 17.4596 58.9512 18.1307 59.4779 17.7738C60.0037 17.4174 59.4205 16.6313 59.4205 16.6313Z" fill="url(#paint12_linear)"/>
<path d="M64.3859 16.669C64.3859 16.669 65.5023 15.7424 65.5994 16.3155C65.8019 17.5099 64.8481 18.1631 64.3294 17.8029C63.8099 17.4421 64.3859 16.669 64.3859 16.669Z" fill="url(#paint13_linear)"/>
<path d="M58.6376 29.6788C58.6376 30.3105 58.116 30.829 57.4716 30.8369C56.826 30.8449 56.3018 30.3376 56.3018 29.7038C56.3018 29.0701 56.826 28.5516 57.4716 28.5457C58.116 28.5398 58.6376 29.0472 58.6376 29.6788Z" fill="white"/>
<path d="M64.0542 29.621C64.0542 30.2479 63.5406 30.7624 62.9059 30.7702C62.2702 30.778 61.7539 30.2745 61.7539 29.6456C61.7539 29.0167 62.2702 28.5022 62.9059 28.4964C63.5406 28.4906 64.0542 28.9941 64.0542 29.621Z" fill="white"/>
<path d="M69.3897 29.564C69.3897 30.1861 68.8838 30.6967 68.2587 30.7044C67.6325 30.7121 67.124 30.2124 67.124 29.5882C67.124 28.9641 67.6325 28.4535 68.2587 28.4478C68.8838 28.4421 69.3897 28.9419 69.3897 29.564Z" fill="white"/>
<path d="M76.2299 42.7651V62.7281C76.2299 63.6494 75.5684 64.4434 74.7294 64.4999L67.7645 64.9707L67.7569 64.9717L46.4378 66.4122C46.2978 66.4213 46.161 66.4132 46.0295 66.3879C46.0049 66.3839 45.9814 66.3778 45.9569 66.3728C45.9098 66.3607 45.8628 66.3475 45.8169 66.3324C45.7709 66.3162 45.726 66.299 45.6811 66.2788C45.6149 66.2485 45.5507 66.2152 45.4898 66.1768C45.4492 66.1516 45.4097 66.1243 45.3722 66.096C45.3338 66.0667 45.2964 66.0364 45.2611 66.0041C44.9779 65.7455 44.7855 65.3828 44.7396 64.9666C44.7321 64.901 44.7021 64.8323 44.7021 64.7636V43.6955C44.7021 43.6763 44.7021 43.6581 44.7032 43.6389C44.7043 43.6167 44.7064 43.5955 44.7075 43.5733C44.7353 43.2672 44.8529 42.9813 45.0057 42.7348C45.0099 42.7267 45.0281 42.7197 45.0335 42.7126C45.2783 42.3285 45.6638 42.0469 46.1074 41.9459C46.1593 41.9337 46.2122 41.9238 46.2657 41.9166C46.3202 41.9085 46.3747 41.91 46.4303 41.908L49.6386 41.8277H49.6408L56.5651 41.6353L74.7273 41.1425C74.7465 41.1425 74.7647 41.1401 74.7839 41.1422C74.8064 41.1422 74.8288 41.1415 74.8512 41.1435C74.8726 41.1445 74.895 41.1462 74.9164 41.1482C75.6635 41.231 76.2299 41.9146 76.2299 42.7651Z" fill="white"/>
<path d="M46.4361 65.8514C45.8068 65.8932 45.2939 65.3908 45.2939 64.7313V43.6897C45.2939 43.0302 45.8068 42.4794 46.4361 42.4619L74.745 41.6735C75.3155 41.6576 75.7788 42.1542 75.7788 42.7805V62.7625C75.7788 63.3888 75.3155 63.9292 74.745 63.9671L46.4361 65.8514Z" fill="url(#paint14_linear)"/>
<path d="M74.7432 41.1394L46.4342 41.9016C45.5079 41.9265 44.7549 42.7342 44.7549 43.7055V44.967L76.2606 43.9618V42.7658C76.2606 41.845 75.5822 41.1168 74.7432 41.1394Z" fill="#D8DEE8"/>
<path d="M47.7468 43.3986C47.7468 43.6881 47.5023 43.9303 47.2005 43.9395C46.8984 43.9486 46.6533 43.7209 46.6533 43.4308C46.6533 43.1407 46.8984 42.8985 47.2005 42.8899C47.5023 42.8813 47.7468 43.109 47.7468 43.3986Z" fill="white"/>
<path d="M49.6568 43.3418C49.6568 43.6305 49.4139 43.8719 49.1141 43.881C48.8139 43.8901 48.5703 43.663 48.5703 43.3739C48.5703 43.0847 48.8139 42.8433 49.1141 42.8347C49.4139 42.8261 49.6568 43.0532 49.6568 43.3418Z" fill="white"/>
<path d="M51.5572 43.2863C51.5572 43.5741 51.3158 43.8147 51.0178 43.8237C50.7196 43.8328 50.4775 43.6064 50.4775 43.3182C50.4775 43.0299 50.7196 42.7893 51.0178 42.7808C51.3158 42.7722 51.5572 42.9986 51.5572 43.2863Z" fill="white"/>
<path d="M74.4918 62.8536L46.7148 64.648V48.0687L74.4918 47.0369V62.8536Z" fill="#D8DEE8"/>
<g opacity="0.5">
<path opacity="0.5" d="M61.5061 45.8442L46.7139 46.3517V47.2472L61.5061 46.7179V45.8442Z" fill="white"/>
<path opacity="0.5" d="M72.873 45.4542V46.3109L74.4901 46.2531V45.3987L72.873 45.4542Z" fill="white"/>
</g>
<g opacity="0.5">
<path opacity="0.5" d="M67.7655 64.9715L46.4378 66.411C46.2978 66.4201 46.161 66.412 46.0295 66.3868C46.0049 66.3827 45.9814 66.3767 45.9569 66.3716C45.9098 66.3595 45.8628 66.3464 45.8169 66.3312C45.7709 66.315 45.726 66.2979 45.6811 66.2777C45.6149 66.2474 45.5507 66.214 45.4898 66.1756C45.4492 66.1504 45.4097 66.1231 45.3722 66.0948C45.3338 66.0655 45.2964 66.0352 45.2611 66.0029C44.9768 65.7453 44.7823 65.3827 44.7363 64.9665C44.7363 64.9473 44.7021 64.9271 44.7021 64.9079V43.6943C44.7021 43.6751 44.7021 43.6569 44.7032 43.6377C44.7043 43.6155 44.7064 43.5943 44.7075 43.5721C44.7331 43.266 44.8518 42.9811 45.0003 42.7336C45.0046 42.7256 45.026 42.7185 45.0302 42.7114C45.3317 42.2245 45.8553 41.8952 46.4389 41.879L49.62 41.7942C49.6221 41.8013 49.6183 41.8083 49.6183 41.8154V41.8164C49.7252 41.9982 49.7557 42.1811 49.8273 42.367C50.1105 43.1054 50.4955 43.8761 51.0053 44.6277C51.0363 44.6742 51.0712 44.7196 51.1032 44.7651C51.4784 45.3015 51.8773 45.7611 52.2941 46.1601C52.6265 46.4804 52.9724 46.7612 53.3251 47.0107C53.7387 47.3047 54.1644 47.5552 54.5983 47.7754C54.5983 47.7764 54.5995 47.7764 54.5995 47.7764C55.2429 48.1047 55.9024 48.3674 56.5651 48.6078C59.1268 49.5371 61.7325 50.1281 63.592 52.8333C65.3672 55.4153 64.4503 57.0063 65.5532 60.4652C65.6686 60.8268 65.8054 61.2097 65.9711 61.6157C66.0139 61.7218 66.0587 61.8299 66.1058 61.94C66.3163 62.433 66.544 62.9027 66.7844 63.3512C66.9896 63.7341 67.2044 64.1018 67.4267 64.4543C67.5379 64.6301 67.6501 64.8018 67.7645 64.9695C67.7645 64.9705 67.7655 64.9705 67.7655 64.9715Z" fill="white"/>
</g>
<path d="M50.2665 69.3315C49.4096 67.2206 50.6185 63.5994 51.378 61.9502C53.5824 57.1633 57.5976 56.8099 60.8561 56.5231C64.028 56.2439 67.0632 55.9767 69.2681 59.37C70.701 61.5753 72.0135 65.679 71.1387 67.9615C70.2164 70.3683 67.6424 68.7209 61.4442 69.0999C54.4993 69.5245 51.3337 71.9602 50.2665 69.3315Z" fill="url(#paint15_linear)"/>
<path d="M63.8513 56.8614C63.8513 57.4403 62.4204 58.2081 60.6473 58.2986C58.8652 58.3896 57.4141 57.7626 57.4141 57.1784C57.4141 56.5942 58.8652 56.7846 60.6473 56.6976C62.4204 56.6111 63.8513 56.2825 63.8513 56.8614Z" fill="url(#paint16_linear)"/>
<path d="M59.463 53.0146C58.9716 53.036 60.1048 56.3774 58.3185 56.9305C58.1452 56.9841 58.1168 57.2142 58.2744 57.2902C58.7549 57.5221 59.6531 57.8009 61.1213 57.727C62.0718 57.6793 62.7655 57.2908 63.1252 57.0344C63.2481 56.9467 63.2359 56.7656 63.1043 56.705C62.5591 56.4539 61.801 55.6063 62.0274 52.9895L59.463 53.0146Z" fill="url(#paint17_linear)"/>
<path d="M57.9668 49.0022C57.9742 49.0446 58.1232 52.1425 58.845 53.6605C59.0519 54.0956 60.0764 53.9963 60.7379 53.9131C61.3114 53.8411 62.2086 54.0069 62.4609 53.606C63.4733 51.9969 63.3019 48.1294 63.3019 48.1294C63.3019 48.1294 62.7833 46.8584 60.6487 46.9687C58.5013 47.0796 57.9668 49.0022 57.9668 49.0022Z" fill="url(#paint18_linear)"/>
<path d="M58.471 50.649C58.471 50.649 58.0201 50.1523 57.5947 50.1004C57.1688 50.0485 56.8911 51.1421 57.4724 51.8224C58.0528 52.5017 58.7226 51.8902 58.7226 51.8902L58.471 50.649Z" fill="url(#paint19_linear)"/>
<path d="M62.8355 50.4739C62.8355 50.4739 63.2804 49.9451 63.699 49.8605C64.1172 49.776 64.3893 50.8366 63.8192 51.5576C63.2482 52.2798 62.5869 51.7284 62.5869 51.7284L62.8355 50.4739Z" fill="url(#paint20_linear)"/>
<path d="M58.1183 50.6246C58.1751 50.7246 58.2401 50.8172 58.2841 50.8042C58.4662 50.7502 57.7631 49.0335 58.4108 48.3986C58.7452 48.0708 59.1215 48.3443 60.4866 48.2331C61.8561 48.1216 62.2056 47.7861 62.6181 48.0181C62.9934 48.2292 63.3291 48.8586 63.051 50.7708C63.1285 50.75 63.2059 50.7292 63.2833 50.7084C63.179 50.0899 63.2928 49.6925 63.4228 49.4398C63.5177 49.2556 63.6892 49.0162 63.6759 48.6804C63.6676 48.4722 63.5978 48.4655 63.5863 48.2952C63.5527 47.796 64.1294 47.6404 64.1572 47.1454C64.1786 46.7643 63.8471 46.6895 63.9077 46.2897C63.9592 45.9498 64.218 45.8778 64.1771 45.635C64.1329 45.3728 63.7861 45.1881 63.5425 45.1276C63.2939 45.0659 63.2039 45.1463 63.0581 45.0516C62.8222 44.8984 62.9356 44.6091 62.765 44.5086C62.4612 44.3294 61.8563 45.1033 61.4648 44.928C61.2276 44.8217 61.319 44.4789 61.1089 44.4031C60.7026 44.2565 59.9835 45.4024 59.6938 45.2627C59.5551 45.1958 59.6889 44.9177 59.4943 44.7223C59.2656 44.4928 58.716 44.5106 58.4651 44.7694C58.2311 45.0109 58.4298 45.2838 58.1821 45.5884C57.9595 45.8621 57.7022 45.761 57.4506 45.9829C57.0228 46.3603 57.1718 47.1765 57.225 47.4677C57.4079 48.4698 57.9768 48.6526 57.8492 49.3447C57.8165 49.5218 57.7405 49.7203 57.7948 50.0053C57.848 50.2848 57.9968 50.4912 58.1183 50.6246Z" fill="url(#paint21_linear)"/>
<g opacity="0.3">
<path opacity="0.3" d="M63.3293 48.2554C63.2796 47.7655 63.6647 47.5228 63.6 47.1744C63.5481 46.8945 63.2258 46.6524 62.9228 46.6088C62.2756 46.5156 61.856 47.4727 61.2105 47.3936C60.7106 47.3323 60.766 46.7349 60.201 46.5149C59.3036 46.1654 58.3605 47.3584 57.7609 47.0579C57.5805 46.9674 57.398 46.7251 57.385 46.0508C57.0404 46.4507 57.1757 47.193 57.2258 47.4679C57.4087 48.47 57.9776 48.6528 57.85 49.3449C57.8174 49.5219 57.7414 49.7204 57.7956 50.0054C57.8489 50.285 57.9977 50.4913 58.1192 50.6247C58.1759 50.7247 58.241 50.8173 58.2849 50.8043C58.4671 50.7504 57.764 49.0337 58.4117 48.3987C58.746 48.0709 59.1223 48.3445 60.4875 48.2333C61.8569 48.1217 62.2064 47.7863 62.6189 48.0183C62.9943 48.2294 63.3299 48.8587 63.0519 50.7709C63.1293 50.7501 63.2067 50.7293 63.2841 50.7085C63.1799 50.09 63.2936 49.6926 63.4237 49.44C63.4628 49.364 63.5148 49.2786 63.5616 49.181C63.5517 49.0176 63.5236 48.8389 63.4647 48.6521C63.3956 48.4331 63.3453 48.4131 63.3293 48.2554Z" fill="url(#paint22_linear)"/>
</g>
<path d="M57.2082 61.7437C57.2082 62.2604 56.7808 62.7036 56.2528 62.7337C55.7241 62.7638 55.2949 62.3682 55.2949 61.8502C55.2949 61.3321 55.7241 60.8888 56.2528 60.8601C56.7808 60.8314 57.2082 61.2271 57.2082 61.7437Z" fill="white"/>
<path d="M61.6541 61.4958C61.6541 62.0093 61.232 62.4496 60.7106 62.4793C60.1885 62.509 59.7646 62.1158 59.7646 61.601C59.7646 61.0861 60.1885 60.6458 60.7106 60.6174C61.232 60.5891 61.6541 60.9824 61.6541 61.4958Z" fill="white"/>
<path d="M66.0448 61.2517C66.0448 61.7619 65.6279 62.1993 65.113 62.2287C64.5973 62.258 64.1787 61.8671 64.1787 61.3555C64.1787 60.8439 64.5973 60.4064 65.113 60.3784C65.6279 60.3504 66.0448 60.7414 66.0448 61.2517Z" fill="white"/>
<path d="M56.5651 41.6282V51.1106C56.5651 52.4572 55.5413 53.5977 54.2748 53.6593L46.7156 54.029L45.2953 54.0977L44.7021 54.127V43.694C44.7021 43.6748 44.7021 43.6566 44.7032 43.6374C44.7043 43.6152 44.7064 43.594 44.7075 43.5717C44.7331 43.2657 44.8518 42.9808 45.0003 42.7333C45.0046 42.7252 45.026 42.7181 45.0302 42.7111C45.3317 42.2242 45.8553 41.8949 46.4388 41.8787L49.6312 41.7938C49.6333 41.8009 49.6376 41.808 49.6408 41.8151L56.5651 41.6282Z" fill="#D8DEE8"/>
<path d="M55.4037 20.9152C55.4037 19.7381 54.615 18.7518 53.5735 18.519C53.5363 18.5107 53.4951 18.5034 53.4572 18.497C53.3438 18.4779 53.2256 18.4678 53.1073 18.4671L31.2326 18.3462L9.64866 18.2268C9.60334 18.2266 9.55803 18.2275 9.51325 18.2295C8.93755 18.2555 8.41023 18.4673 7.99004 18.806C7.98237 18.8122 7.9746 18.8184 7.96696 18.8247C7.90666 18.8744 7.84852 18.9268 7.79292 18.9816C7.79161 18.9829 7.79021 18.9841 7.78893 18.9854C7.75608 19.018 7.72423 19.0516 7.69311 19.0859C7.27358 19.5484 7.01758 20.162 7.01758 20.8367V22.7192V52.2634C7.01758 52.4899 7.04648 52.7082 7.10063 52.9152C7.13308 53.0394 7.17475 53.1594 7.2247 53.2747C7.55713 54.0416 8.26013 54.596 9.11287 54.7306C9.28579 54.7579 9.46481 54.768 9.64819 54.759L42.6788 53.1423L42.6788 53.1423L53.1129 52.6319C54.376 52.57 55.4037 51.4295 55.4037 50.0842V22.6625V20.9152H55.4037Z" fill="#D8DEE8"/>
<path d="M55.4957 20.8987V50.0983C55.4957 51.445 54.4714 52.5859 53.2054 52.6473L42.6192 53.1648L9.65491 54.7782C8.30377 54.8441 7.11227 53.8858 6.96154 52.5843C6.94954 52.4852 6.86816 20.8189 6.86816 20.8189C6.86816 20.2877 7.10274 19.7933 7.37574 19.3809C7.38346 19.3692 7.42792 19.3584 7.43561 19.3475C7.91089 18.6534 8.7301 18.2007 9.63604 18.2061L14.6601 18.2339L53.2012 18.447C54.4673 18.4541 55.4957 19.5514 55.4957 20.8987Z" fill="white"/>
<path d="M9.65447 53.943C8.66746 53.9901 7.8623 53.2273 7.8623 52.2425V20.8211C7.8623 19.8363 8.66746 19.0385 9.65447 19.0427L53.2032 19.2291C54.0639 19.2328 54.7624 19.9812 54.7624 20.8974V50.1302C54.7624 51.0464 54.0639 51.8252 53.2032 51.8662L9.65447 53.943Z" fill="url(#paint23_linear)"/>
<path d="M53.2025 18.4481L9.65371 18.2076C8.20039 18.1995 7.01758 19.3692 7.01758 20.8202V22.7048L55.4904 22.6481V20.899C55.4904 19.5524 54.4681 18.4551 53.2025 18.4481Z" fill="#D8DEE8"/>
<path d="M11.7068 20.5022C11.7068 20.9339 11.3242 21.2835 10.8516 21.2831C10.3783 21.2826 9.99414 20.9314 9.99414 20.4986C9.99414 20.0658 10.3783 19.7162 10.8516 19.7178C11.3242 19.7193 11.7068 20.0705 11.7068 20.5022Z" fill="white"/>
<path d="M14.6915 20.509C14.6915 20.9387 14.3123 21.2868 13.8439 21.2864C13.3749 21.2859 12.9941 20.9363 12.9941 20.5054C12.9941 20.0745 13.3749 19.7265 13.8439 19.728C14.3123 19.7296 14.6915 20.0792 14.6915 20.509Z" fill="white"/>
<path d="M17.6521 20.5148C17.6521 20.9426 17.2762 21.2891 16.812 21.2887C16.3471 21.2883 15.9697 20.9402 15.9697 20.5112C15.9697 20.0823 16.3471 19.7358 16.812 19.7373C17.2762 19.7388 17.6521 20.0869 17.6521 20.5148Z" fill="white"/>
<path d="M52.8194 50.2296L10.0898 52.1549V27.421L52.8194 27.0706V50.2296Z" fill="#D8DEE8"/>
<g opacity="0.5">
<path opacity="0.5" d="M33.0447 24.7583L10.0908 24.859V26.195L33.0447 26.0487V24.7583Z" fill="white"/>
<path opacity="0.5" d="M50.376 24.6828V25.9387L52.8201 25.9231V24.6721L50.376 24.6828Z" fill="white"/>
</g>
<g opacity="0.5">
<path opacity="0.5" d="M42.6183 53.1656L9.65474 54.7792C8.30361 54.8451 7.10406 53.8873 6.95334 52.5858C6.95246 52.5568 6.86816 20.806 6.86816 20.806C6.86816 20.2812 7.10406 19.7923 7.36761 19.3822C7.37534 19.3705 7.42386 19.3597 7.43155 19.3487C7.90425 18.6358 8.73403 18.1691 9.65018 18.1746L14.6473 18.2025C14.6507 18.2134 14.66 18.2243 14.6642 18.2352C14.7573 18.5082 14.8623 18.7851 14.9746 19.0658C15.4171 20.1785 16.0093 21.3428 16.8028 22.485C16.8512 22.5554 16.9011 22.6243 16.9511 22.6932C17.5354 23.5081 18.1557 24.2096 18.8037 24.8217C19.3213 25.3114 19.8565 25.7433 20.4049 26.1298C21.0474 26.5838 21.7086 26.9737 22.3818 27.3205C27.2248 29.8173 32.6508 30.0412 36.2425 35.1595C39.3159 39.5393 37.115 41.927 40.0864 48.6607C40.4091 49.3924 40.7558 50.0902 41.1233 50.7565C41.4358 51.3255 41.7628 51.8717 42.1027 52.3959C42.2711 52.6582 42.4439 52.915 42.6183 53.1656Z" fill="white"/>
</g>
<path d="M26.847 47.7398C26.847 48.6601 26.0859 49.4372 25.1445 49.4757C24.2002 49.5143 23.4326 48.7956 23.4326 47.8703C23.4326 46.9449 24.2002 46.1675 25.1445 46.1339C26.0859 46.1005 26.847 46.8195 26.847 47.7398Z" fill="white"/>
<path d="M33.6863 47.4781C33.6863 48.3883 32.9418 49.1566 32.021 49.1943C31.0974 49.232 30.3467 48.5209 30.3467 47.6057C30.3467 46.6906 31.0974 45.9221 32.021 45.8893C32.9418 45.8565 33.6863 46.5679 33.6863 47.4781Z" fill="white"/>
<path d="M40.3776 47.2224C40.3776 48.1227 39.6492 48.8823 38.7483 48.9192C37.8448 48.9561 37.1104 48.2524 37.1104 47.3473C37.1104 46.4422 37.8448 45.6823 38.7483 45.6502C39.6492 45.6182 40.3776 46.3222 40.3776 47.2224Z" fill="white"/>
<path d="M32.4968 53.2033C20.9302 53.7759 16.7894 55.4033 14.8982 53.0917C13.1493 50.9542 14.5987 42.9824 16.6768 40.7082C19.9386 37.1385 25.1163 36.8643 32.0853 36.5437C38.5208 36.2476 42.4311 36.0677 45.4893 38.611C48.3252 40.9694 50.1248 49.2622 48.3701 51.6564C46.7342 53.8885 43.2118 52.6728 32.4968 53.2033Z" fill="url(#paint24_linear)"/>
<path d="M28.2566 36.6072L26.9057 36.9597C26.5738 37.0463 26.4222 37.4112 26.6073 37.6786C27.5285 39.0096 29.9573 42.3339 31.4702 42.6893C33.0277 43.0551 35.92 38.7247 36.8772 37.2099C37.0424 36.9486 36.9101 36.6142 36.6079 36.5285L35.6396 36.2538C34.8455 36.0285 34.0078 35.9535 33.1734 36.0335L29.5169 36.3838C29.0921 36.4245 28.6704 36.4993 28.2566 36.6072Z" fill="url(#paint25_linear)"/>
<path d="M29.2538 31.6603C29.2538 31.6603 29.9922 36.6636 28.9707 37.1632L31.8713 40.0853L34.7865 36.4967C34.7865 36.4967 33.6872 35.7312 33.977 31.5991L29.2538 31.6603Z" fill="url(#paint26_linear)"/>
<path d="M27.5358 24.4833C27.4301 24.6182 26.0553 30.973 30.7919 31.5765C35.4685 32.1724 35.6733 27.5368 35.6142 25.5716C35.5551 23.6061 33.4235 22.8948 32.1983 22.7583C30.9689 22.6213 27.9103 24.0049 27.5358 24.4833Z" fill="url(#paint27_linear)"/>
<path d="M27.2606 28.1861C27.2606 28.1861 27.0227 27.1515 26.2073 27.8041C25.3901 28.4582 26.6888 30.1633 27.7566 30.0808L27.2606 28.1861Z" fill="url(#paint28_linear)"/>
<path d="M35.4696 27.404C35.3359 27.491 34.9521 29.9011 34.9521 29.9011C34.9521 29.9011 35.6233 29.969 36.1084 29.1009C36.5929 28.234 36.8256 26.5214 35.4696 27.404Z" fill="url(#paint29_linear)"/>
<path d="M37.2931 22.8062C36.8056 22.0352 35.5714 22.4012 35.2104 21.6558C34.9069 21.029 35.62 20.4412 35.2376 19.8991C34.9174 19.4452 34.1335 19.4537 33.994 19.4552C32.9317 19.4668 32.6881 20.2649 31.9284 20.2449C30.9984 20.2205 30.9622 19.0166 29.7288 18.5037C28.5281 18.0045 26.7663 18.3978 26.0518 19.3227C25.4954 20.0429 25.9688 20.5746 25.2389 21.5013C24.7361 22.1398 24.291 22.1681 24.0408 22.7938C23.8056 23.3818 23.9647 23.9413 24.0892 24.3568C24.3872 25.3521 24.9424 25.789 25.7795 26.8429C26.1538 27.3143 26.6665 28.0122 27.195 28.9313C27.4162 29.485 27.7325 30.3414 28.025 31.4241C28.2909 32.4082 28.2748 32.6084 28.523 32.9246C29.3776 34.013 31.3207 33.8755 32.1353 33.8178C33.0671 33.7518 34.2237 33.6699 34.8042 32.8959C35.1176 32.478 35.0782 32.105 35.1509 31.1055C35.2028 30.3921 35.3098 29.3909 35.553 28.1761C35.5577 28.1762 35.6611 27.6193 35.9306 26.9332C36.2669 26.0769 36.6158 25.9389 36.9945 25.0551C37.2979 24.347 37.6895 23.4332 37.2931 22.8062ZM33.4432 29.5021C32.8682 29.6552 32.4798 29.5268 31.6983 29.4921C30.1302 29.4225 29.6329 30.123 28.8893 29.8251C28.5788 29.7007 27.8598 29.3504 27.7074 28.6664C27.6192 28.2224 27.5572 27.6152 27.6585 26.9113C27.7822 26.0515 27.9249 25.0598 28.6547 24.6191C29.7112 23.9812 31.056 25.0673 32.0188 24.3582C32.3862 24.0877 32.5338 23.6766 32.6009 23.3642C32.814 23.4334 34.5047 24.0131 35.1251 25.7215C35.507 26.7732 35.2882 27.7145 35.1022 28.2269C34.7529 28.731 34.2193 29.2955 33.4432 29.5021Z" fill="#26264F"/>
<path d="M30.1968 30.5787C30.8025 30.7491 31.7121 30.8585 32.7283 30.4819C32.8336 30.4429 32.9236 30.551 32.8357 30.6112C32.4729 30.8602 31.9423 31.1266 31.3644 31.093C30.886 31.0653 30.4462 30.896 30.107 30.7181C30.0097 30.6671 30.0866 30.5477 30.1968 30.5787Z" fill="url(#paint30_linear)"/>
<path d="M26.6033 47.7331C26.6033 48.4983 25.943 49.1426 25.1268 49.1722C24.3089 49.202 23.6445 48.6034 23.6445 47.8352C23.6445 47.067 24.3089 46.4226 25.1268 46.3959C25.943 46.3692 26.6033 46.9679 26.6033 47.7331Z" fill="white"/>
<path d="M33.4494 47.4966C33.4494 48.2547 32.8012 48.8929 32 48.922C31.1971 48.9512 30.5449 48.358 30.5449 47.5968C30.5449 46.8358 31.1971 46.1975 32 46.1712C32.8012 46.1451 33.4494 46.7385 33.4494 47.4966Z" fill="white"/>
<path d="M40.17 47.2645C40.17 48.0157 39.5335 48.6478 38.7469 48.6764C37.9586 48.7051 37.3184 48.117 37.3184 47.3629C37.3184 46.6087 37.9586 45.9765 38.7469 45.9508C39.5335 45.9251 40.17 46.5133 40.17 47.2645Z" fill="white"/>
<path d="M21.2126 21.773C22.134 20.6823 22.6647 19.4017 22.6647 18.0319C22.6647 14.0488 18.1777 10.8198 12.6429 10.8198C7.10802 10.8198 2.62109 14.0488 2.62109 18.0319C2.62109 22.015 7.10801 25.244 12.6429 25.244C14.7173 25.244 16.6445 24.7904 18.2434 24.0136C19.3003 24.184 20.9408 24.4703 21.8066 24.6226C22.0615 24.6675 22.2703 24.4319 22.1791 24.2025L21.2126 21.773Z" fill="url(#paint31_linear)"/>
<g opacity="0.3">
<path opacity="0.3" d="M18.1271 19.5582C15.8799 18.6654 13.4087 20.5499 11.8637 19.2353C10.3064 17.91 11.9888 15.29 10.4972 13.4228C9.78603 12.5325 8.59117 12.1113 7.22428 11.9641C4.4551 13.2474 2.62109 15.4855 2.62109 18.0319C2.62109 22.0151 7.10801 25.244 12.6429 25.244C14.7173 25.244 16.6445 24.7904 18.2434 24.0136C19.0773 24.1481 20.2743 24.3546 21.1676 24.5107C20.5086 21.2813 19.2965 20.0228 18.1271 19.5582Z" fill="url(#paint32_linear)"/>
</g>
<path d="M19.2898 15.3961C19.2898 15.597 19.1175 15.7598 18.905 15.7598H6.72165C6.50917 15.7598 6.33691 15.597 6.33691 15.3961C6.33691 15.1953 6.50917 15.0325 6.72165 15.0325H18.905C19.1175 15.0325 19.2898 15.1953 19.2898 15.3961Z" fill="white"/>
<path d="M19.2898 17.578C19.2898 17.7788 19.1175 17.9417 18.905 17.9417H6.72165C6.50917 17.9417 6.33691 17.7789 6.33691 17.578C6.33691 17.3772 6.50917 17.2144 6.72165 17.2144H18.905C19.1175 17.2144 19.2898 17.3772 19.2898 17.578Z" fill="white"/>
<path d="M13.5187 19.7599C13.5187 19.9607 13.3464 20.1235 13.1339 20.1235H6.72165C6.50917 20.1235 6.33691 19.9607 6.33691 19.7599C6.33691 19.5591 6.50917 19.3962 6.72165 19.3962H13.1339C13.3464 19.3962 13.5187 19.559 13.5187 19.7599Z" fill="white"/>
<defs>
<linearGradient id="paint0_linear" x1="24.751" y1="40.3679" x2="65.8814" y2="40.3679" gradientUnits="userSpaceOnUse">
<stop stop-color="#FFC444"/>
<stop offset="0.9964" stop-color="#F36F56"/>
</linearGradient>
<linearGradient id="paint1_linear" x1="41.621" y1="51.192" x2="86.0664" y2="54.435" gradientUnits="userSpaceOnUse">
<stop stop-color="#FF9085"/>
<stop offset="1" stop-color="#FB6FBB"/>
</linearGradient>
<linearGradient id="paint2_linear" x1="78.4377" y1="43.4035" x2="60.0092" y2="75.7973" gradientUnits="userSpaceOnUse">
<stop stop-color="#FFC444"/>
<stop offset="0.9964" stop-color="#F36F56"/>
</linearGradient>
<linearGradient id="paint3_linear" x1="3.38574" y1="52.3836" x2="59.2335" y2="52.3836" gradientUnits="userSpaceOnUse">
<stop stop-color="#444B8C"/>
<stop offset="0.9964" stop-color="#26264F"/>
</linearGradient>
<linearGradient id="paint4_linear" x1="5.67969" y1="52.0363" x2="57.345" y2="52.0363" gradientUnits="userSpaceOnUse">
<stop stop-color="#AA80F9"/>
<stop offset="0.9964" stop-color="#6165D7"/>
</linearGradient>
<linearGradient id="paint5_linear" x1="3.38574" y1="72.6803" x2="87.5181" y2="72.6803" gradientUnits="userSpaceOnUse">
<stop stop-color="#444B8C"/>
<stop offset="0.9964" stop-color="#26264F"/>
</linearGradient>
<linearGradient id="paint6_linear" x1="43.877" y1="19.2631" x2="81.0125" y2="19.2631" gradientUnits="userSpaceOnUse">
<stop stop-color="white"/>
<stop offset="0.9964" stop-color="#EBEFF2"/>
</linearGradient>
<linearGradient id="paint7_linear" x1="71.5883" y1="6.36057" x2="65.0733" y2="19.859" gradientUnits="userSpaceOnUse">
<stop stop-color="#AB316D"/>
<stop offset="1" stop-color="#792D3D"/>
</linearGradient>
<linearGradient id="paint8_linear" x1="71.7576" y1="6.10619" x2="65.1767" y2="19.7409" gradientUnits="userSpaceOnUse">
<stop stop-color="#AB316D"/>
<stop offset="1" stop-color="#792D3D"/>
</linearGradient>
<linearGradient id="paint9_linear" x1="64.5929" y1="48.7525" x2="61.5323" y2="25.2768" gradientUnits="userSpaceOnUse">
<stop offset="0.0036" stop-color="#E38DDD"/>
<stop offset="1" stop-color="#9571F6"/>
</linearGradient>
<linearGradient id="paint10_linear" x1="62.412" y1="28.9071" x2="61.9648" y2="18.6406" gradientUnits="userSpaceOnUse">
<stop stop-color="#FFC444"/>
<stop offset="0.9964" stop-color="#F36F56"/>
</linearGradient>
<linearGradient id="paint11_linear" x1="61.8767" y1="19.8815" x2="62.048" y2="12.9436" gradientUnits="userSpaceOnUse">
<stop stop-color="#FFC444"/>
<stop offset="0.9964" stop-color="#F36F56"/>
</linearGradient>
<linearGradient id="paint12_linear" x1="58.8668" y1="19.1532" x2="59.0245" y2="12.7633" gradientUnits="userSpaceOnUse">
<stop stop-color="#FFC444"/>
<stop offset="0.9964" stop-color="#F36F56"/>
</linearGradient>
<linearGradient id="paint13_linear" x1="64.8062" y1="19.3166" x2="64.9615" y2="13.027" gradientUnits="userSpaceOnUse">
<stop stop-color="#FFC444"/>
<stop offset="0.9964" stop-color="#F36F56"/>
</linearGradient>
<linearGradient id="paint14_linear" x1="45.2939" y1="53.7635" x2="75.7788" y2="53.7635" gradientUnits="userSpaceOnUse">
<stop stop-color="white"/>
<stop offset="0.9964" stop-color="#EBEFF2"/>
</linearGradient>
<linearGradient id="paint15_linear" x1="58.9134" y1="40.0057" x2="61.3283" y2="80.7347" gradientUnits="userSpaceOnUse">
<stop offset="0.0036" stop-color="#F36F56"/>
<stop offset="1" stop-color="#FFC444"/>
</linearGradient>
<linearGradient id="paint16_linear" x1="60.6594" y1="58.5591" x2="60.5812" y2="53.5135" gradientUnits="userSpaceOnUse">
<stop stop-color="#311944"/>
<stop offset="1" stop-color="#893976"/>
</linearGradient>
<linearGradient id="paint17_linear" x1="60.7042" y1="59.029" x2="60.679" y2="54.7756" gradientUnits="userSpaceOnUse">
<stop stop-color="#AB316D"/>
<stop offset="1" stop-color="#792D3D"/>
</linearGradient>
<linearGradient id="paint18_linear" x1="60.3251" y1="52.933" x2="60.992" y2="44.4391" gradientUnits="userSpaceOnUse">
<stop stop-color="#AB316D"/>
<stop offset="1" stop-color="#792D3D"/>
</linearGradient>
<linearGradient id="paint19_linear" x1="57.8054" y1="52.7994" x2="58.4635" y2="44.4182" gradientUnits="userSpaceOnUse">
<stop stop-color="#AB316D"/>
<stop offset="1" stop-color="#792D3D"/>
</linearGradient>
<linearGradient id="paint20_linear" x1="63.2039" y1="53.0387" x2="63.8703" y2="44.5519" gradientUnits="userSpaceOnUse">
<stop stop-color="#AB316D"/>
<stop offset="1" stop-color="#792D3D"/>
</linearGradient>
<linearGradient id="paint21_linear" x1="60.1349" y1="48.8739" x2="61.9308" y2="42.981" gradientUnits="userSpaceOnUse">
<stop stop-color="#311944"/>
<stop offset="1" stop-color="#6B3976"/>
</linearGradient>
<linearGradient id="paint22_linear" x1="60.1415" y1="48.8575" x2="61.9506" y2="42.9213" gradientUnits="userSpaceOnUse">
<stop stop-color="#311944"/>
<stop offset="1" stop-color="#6B3976"/>
</linearGradient>
<linearGradient id="paint23_linear" x1="7.8623" y1="36.4939" x2="54.7624" y2="36.4939" gradientUnits="userSpaceOnUse">
<stop stop-color="white"/>
<stop offset="0.9964" stop-color="#EBEFF2"/>
</linearGradient>
<linearGradient id="paint24_linear" x1="45.5662" y1="21.7945" x2="27.3665" y2="59.6963" gradientUnits="userSpaceOnUse">
<stop stop-color="#FF9085"/>
<stop offset="1" stop-color="#FB6FBB"/>
</linearGradient>
<linearGradient id="paint25_linear" x1="31.5056" y1="49.1991" x2="31.8009" y2="32.142" gradientUnits="userSpaceOnUse">
<stop stop-color="#311944"/>
<stop offset="0.5554" stop-color="#6F2B60"/>
<stop offset="1" stop-color="#A03976"/>
</linearGradient>
<linearGradient id="paint26_linear" x1="32.0408" y1="37.8265" x2="33.1601" y2="45.5238" gradientUnits="userSpaceOnUse">
<stop stop-color="#FFC444"/>
<stop offset="0.9964" stop-color="#F36F56"/>
</linearGradient>
<linearGradient id="paint27_linear" x1="31.4513" y1="26.0375" x2="31.171" y2="45.6119" gradientUnits="userSpaceOnUse">
<stop stop-color="#FFC444"/>
<stop offset="0.9964" stop-color="#F36F56"/>
</linearGradient>
<linearGradient id="paint28_linear" x1="26.4085" y1="24.9837" x2="28.2318" y2="44.5267" gradientUnits="userSpaceOnUse">
<stop stop-color="#FFC444"/>
<stop offset="0.9964" stop-color="#F36F56"/>
</linearGradient>
<linearGradient id="paint29_linear" x1="35.7643" y1="26.0707" x2="35.4845" y2="45.6054" gradientUnits="userSpaceOnUse">
<stop stop-color="#FFC444"/>
<stop offset="0.9964" stop-color="#F36F56"/>
</linearGradient>
<linearGradient id="paint30_linear" x1="32.4875" y1="22.2754" x2="31.6859" y2="29.5968" gradientUnits="userSpaceOnUse">
<stop stop-color="#FFC444"/>
<stop offset="0.9964" stop-color="#F36F56"/>
</linearGradient>
<linearGradient id="paint31_linear" x1="2.6211" y1="18.0319" x2="22.6647" y2="18.0319" gradientUnits="userSpaceOnUse">
<stop stop-color="#AA80F9"/>
<stop offset="0.9964" stop-color="#6165D7"/>
</linearGradient>
<linearGradient id="paint32_linear" x1="5.2667" y1="13.0483" x2="21.4364" y2="35.5782" gradientUnits="userSpaceOnUse">
<stop stop-color="#AA80F9"/>
<stop offset="0.9964" stop-color="#6165D7"/>
</linearGradient>
</defs>
</svg>
