<svg width="166" height="46" viewBox="0 0 166 46" fill="none" xmlns="http://www.w3.org/2000/svg">
<path fill-rule="evenodd" clip-rule="evenodd" d="M6.46801 0C2.89582 0 0 2.89582 0 6.46801V33.418C0 36.9902 2.89582 39.886 6.46801 39.886H12.3125L11.0751 43.3474C10.7003 44.3956 11.4761 45.4745 12.5714 45.276C15.9266 44.6685 19.8848 42.8523 22.4866 40.8233C22.8783 40.5178 23.2569 40.2052 23.6227 39.886H33.418C36.9902 39.886 39.886 36.9902 39.886 33.418V6.46801C39.886 2.89582 36.9902 0 33.418 0H6.46801Z" fill="url(#paint0_linear)"/>
<path fill-rule="evenodd" clip-rule="evenodd" d="M6.46801 0C2.89582 0 0 2.89582 0 6.46801V33.418C0 36.9902 2.89582 39.886 6.46801 39.886H12.3125L11.0751 43.3474C10.7003 44.3956 11.4761 45.4745 12.5714 45.276C15.9266 44.6685 19.8848 42.8523 22.4866 40.8233C22.8783 40.5178 23.2569 40.2052 23.6227 39.886H33.418C36.9902 39.886 39.886 36.9902 39.886 33.418V6.46801C39.886 2.89582 36.9902 0 33.418 0H6.46801Z" fill="url(#paint1_linear)"/>
<path fill-rule="evenodd" clip-rule="evenodd" d="M6.46801 0C2.89582 0 0 2.89582 0 6.46801V33.418C0 36.9902 2.89582 39.886 6.46801 39.886H12.3125L11.0751 43.3474C10.7003 44.3956 11.4761 45.4745 12.5714 45.276C15.9266 44.6685 19.8848 42.8523 22.4866 40.8233C22.8783 40.5178 23.2569 40.2052 23.6227 39.886H33.418C36.9902 39.886 39.886 36.9902 39.886 33.418V6.46801C39.886 2.89582 36.9902 0 33.418 0H6.46801Z" fill="url(#paint2_linear)" fill-opacity="0.5"/>
<mask id="mask0" style="mask-type:alpha" maskUnits="userSpaceOnUse" x="0" y="0" width="40" height="46">
<path fill-rule="evenodd" clip-rule="evenodd" d="M6.46801 0C2.89582 0 0 2.89582 0 6.46801V33.418C0 36.9902 2.89582 39.886 6.46801 39.886H12.3125L11.0751 43.3474C10.7003 44.3956 11.4761 45.4745 12.5714 45.276C15.9266 44.6685 19.8848 42.8523 22.4866 40.8233C22.8783 40.5178 23.2569 40.2052 23.6227 39.886H33.418C36.9902 39.886 39.886 36.9902 39.886 33.418V6.46801C39.886 2.89582 36.9902 0 33.418 0H6.46801Z" fill="url(#paint3_linear)"/>
<path fill-rule="evenodd" clip-rule="evenodd" d="M6.46801 0C2.89582 0 0 2.89582 0 6.46801V33.418C0 36.9902 2.89582 39.886 6.46801 39.886H12.3125L11.0751 43.3474C10.7003 44.3956 11.4761 45.4745 12.5714 45.276C15.9266 44.6685 19.8848 42.8523 22.4866 40.8233C22.8783 40.5178 23.2569 40.2052 23.6227 39.886H33.418C36.9902 39.886 39.886 36.9902 39.886 33.418V6.46801C39.886 2.89582 36.9902 0 33.418 0H6.46801Z" fill="url(#paint4_linear)"/>
<path fill-rule="evenodd" clip-rule="evenodd" d="M6.46801 0C2.89582 0 0 2.89582 0 6.46801V33.418C0 36.9902 2.89582 39.886 6.46801 39.886H12.3125L11.0751 43.3474C10.7003 44.3956 11.4761 45.4745 12.5714 45.276C15.9266 44.6685 19.8848 42.8523 22.4866 40.8233C22.8783 40.5178 23.2569 40.2052 23.6227 39.886H33.418C36.9902 39.886 39.886 36.9902 39.886 33.418V6.46801C39.886 2.89582 36.9902 0 33.418 0H6.46801Z" fill="url(#paint5_linear)" fill-opacity="0.35"/>
</mask>
<g mask="url(#mask0)">
<g style="mix-blend-mode:soft-light">
<path d="M0 6.46801C0 2.89582 2.89582 0 6.46801 0H33.418C36.9902 0 39.886 2.89582 39.886 6.46801V33.418C39.886 36.9902 36.9902 39.886 33.418 39.886H6.46801C2.89582 39.886 0 36.9902 0 33.418V6.46801Z" fill="white" fill-opacity="0.05"/>
</g>
<g filter="url(#filter0_f)">
<path d="M18.0565 44.4136C23.266 44.4136 27.489 42.3865 27.489 39.886C27.489 37.3855 23.266 35.3584 18.0565 35.3584C12.8471 35.3584 8.62402 37.3855 8.62402 39.886C8.62402 42.3865 12.8471 44.4136 18.0565 44.4136Z" fill="#E97618"/>
</g>
<g filter="url(#filter1_dd)">
<path d="M21.1178 6.68359H21.7437C22.7042 6.72175 23.6652 6.89984 24.556 7.26722C25.1593 7.5156 25.7545 7.83059 26.1997 8.31806C26.4589 8.60093 26.6618 8.93532 26.7935 9.29581C26.9438 9.71407 27.0001 10.1636 26.9785 10.6064C26.9554 11.0208 26.8651 11.4352 26.687 11.8114C26.5471 12.0887 26.408 12.3685 26.2258 12.6214C25.9975 12.9427 25.7052 13.2251 25.3535 13.4077C24.9327 13.6246 24.4372 13.7098 23.9722 13.6061C23.3665 13.4813 22.8472 13.0194 22.6411 12.4386C22.604 12.2603 22.6288 12.0673 22.7059 11.9026C22.7532 11.7963 22.8773 11.7664 22.9821 11.753C23.2102 11.7265 23.4269 11.8211 23.6511 11.8418C23.8027 11.8617 23.9265 11.742 23.9974 11.6213C24.0767 11.5001 24.0923 11.3522 24.0929 11.211C24.0933 10.9719 24.0972 10.73 24.0472 10.4948C24.0073 10.2953 23.9017 10.1175 23.7919 9.94929C23.6212 9.69423 23.3627 9.51744 23.0986 9.37083C22.6779 9.12505 22.1896 9.02631 21.7086 8.99267C21.297 8.95968 20.8805 8.98038 20.476 9.06533C19.7231 9.23091 19.0485 9.66621 18.5272 10.2268C18.0912 10.6847 17.7316 11.2364 17.5872 11.8582C17.4477 12.4572 17.5093 13.1046 17.7758 13.6604C18.0024 14.1354 18.3575 14.5394 18.7691 14.8635C19.3713 15.3628 20.0254 15.797 20.7054 16.1825C21.1142 16.4197 21.5473 16.6092 21.9729 16.8131C22.4007 17.0203 22.8234 17.2379 23.2413 17.4643C23.4998 17.6081 23.7635 17.7432 24.0177 17.8944C24.3891 18.1169 24.7416 18.3713 25.0689 18.6546C25.3141 18.8613 25.5307 19.0985 25.7679 19.3139C26.085 19.6159 26.3752 19.9456 26.6437 20.2916C26.8133 20.5128 26.9796 20.7377 27.1234 20.977C27.4953 21.59 27.7467 22.2767 27.8532 22.9862C27.8913 23.2242 27.9062 23.4651 27.9202 23.7054V24.0935C27.8995 24.6282 27.8525 25.1638 27.7406 25.6879C27.5716 26.507 27.2665 27.2999 26.8237 28.0103C26.4406 28.6278 25.957 29.1804 25.4098 29.6575C24.8844 30.1077 24.313 30.5038 23.715 30.8513C22.9582 31.2877 22.1495 31.6369 21.3071 31.87C20.6235 32.0638 19.9176 32.1583 19.2128 32.2348C19.1255 32.3719 19.0448 32.5134 18.9629 32.6539C18.7659 33.0036 18.6054 33.3818 18.3306 33.6808C18.0492 34.0001 17.6572 34.2444 17.2256 34.2763C16.8703 34.3063 16.5126 34.1774 16.2394 33.9525C15.8925 33.6601 15.6905 33.2179 15.6444 32.771C15.6211 32.6352 15.7112 32.484 15.8516 32.4614C16.2619 32.3803 16.6666 32.2587 17.0415 32.0716C17.0937 32.0442 17.1497 32.0227 17.195 31.9843C17.2181 31.919 17.1394 31.8868 17.09 31.873C16.7506 31.787 16.4072 31.7156 16.0717 31.6147C15.6237 31.4849 15.1837 31.3284 14.7529 31.1495C14.4258 31.0124 14.0992 30.8694 13.7993 30.6788C13.309 30.3147 12.8405 29.908 12.4815 29.4102C12.129 28.9191 12.0133 28.3061 11.9658 27.7154V27.3489C11.9809 27.2077 12.0007 27.0664 12.0352 26.9285C12.1771 26.3235 12.5395 25.7847 13.0085 25.3828C13.6432 24.8358 14.4909 24.5275 15.3311 24.586C16.0118 24.6297 16.6635 24.9038 17.2075 25.3089C17.7681 25.7248 18.226 26.2681 18.5847 26.8644C18.9784 27.5209 19.2639 28.2428 19.4176 28.9928C19.4331 29.0638 19.4398 29.1373 19.4666 29.2056C19.7884 29.1356 20.0989 29.0221 20.4057 28.9036C21.067 28.6367 21.6941 28.2805 22.2489 27.8312C22.6962 27.4679 23.0992 27.0455 23.4151 26.5624C23.7423 26.062 23.9797 25.4975 24.0707 24.9048C24.0979 24.7104 24.1356 24.5148 24.1209 24.3178C24.1024 24.0873 24.056 23.8594 23.984 23.6397C23.7788 23.0142 23.3844 22.4694 22.9284 22.0022C22.3463 21.3942 21.6784 20.8705 20.9581 20.4361C19.8674 19.807 18.7738 19.1824 17.6751 18.567C16.6017 17.9806 15.6151 17.2258 14.8048 16.3067C14.332 15.7849 13.9601 15.1662 13.7562 14.4905C13.5177 13.7119 13.5255 12.8795 13.6525 12.082C13.817 11.0726 14.2725 10.1121 14.9571 9.35165C15.3999 8.85339 15.9277 8.43578 16.4921 8.08349C17.1185 7.69476 17.7862 7.36963 18.4886 7.14368C19.3372 6.86491 20.2263 6.71981 21.1178 6.68359ZM14.0783 27.1005C13.9782 27.276 13.9567 27.4841 13.9638 27.6826C13.9797 27.9827 14.1373 28.2622 14.3566 28.4622C14.655 28.738 15.0319 28.9074 15.409 29.0465C15.6075 29.1157 15.8024 29.1959 16.0053 29.2515C16.3421 29.3477 16.6883 29.4042 17.0326 29.4654C17.1473 29.4844 17.2612 29.5131 17.3782 29.512C17.1644 28.757 16.7828 28.0489 16.2688 27.456C16.1028 27.2618 15.9186 27.0813 15.7052 26.9394C15.4661 26.7782 15.1888 26.6613 14.8982 26.6473C14.5688 26.6337 14.2484 26.8222 14.0783 27.1005Z" fill="white"/>
</g>
</g>
<path d="M55.6338 23.7891C55.6768 25.8623 57.0732 28.2793 61.3916 28.2793C65.0225 28.2793 67.2676 26.5068 67.2676 23.6279C67.2676 20.9639 65.4521 19.9219 63.3037 19.46L61.0801 18.9658C59.7695 18.6973 59.082 18.1279 59.082 17.2793C59.082 16.1514 60.0166 15.4424 61.5205 15.4424C63.2178 15.4424 64.0664 16.3984 64.1416 17.4297H67.042C67.0098 14.8408 64.8076 13.0361 61.5312 13.0361C58.4268 13.0361 55.9775 14.6367 55.9775 17.5156C55.9775 20.0078 57.6963 21.168 59.7588 21.6084L61.9609 22.1133C63.4434 22.4463 64.1953 22.9297 64.1953 23.9287C64.1953 25.0674 63.2715 25.8408 61.542 25.8408C59.6836 25.8408 58.7061 24.874 58.6201 23.7891H55.6338ZM79.5781 16.5703H76.5596V23.2842C76.5596 24.8418 75.6143 25.626 74.4219 25.626C73.3799 25.626 72.3486 25.1426 72.3486 23.3164V16.5703H69.3193V24.1113C69.3193 26.8076 70.877 28.1719 73.1973 28.1719C75.1094 28.1719 76.1514 27.1836 76.4951 26.3027H76.6348V28H79.5781V16.5703ZM82.2852 28H85.3037V21.125C85.3037 19.5781 86.1738 18.9014 87.2158 18.9014C88.29 18.9014 89.1279 19.5244 89.1279 21.1465V28H92.0283V21.1465C92.0283 19.707 92.7695 18.9014 93.9619 18.9014C95.0791 18.9014 95.8525 19.5996 95.8525 21.0498V28H98.8711V20.1797C98.8711 17.9131 97.5176 16.3984 95.1758 16.3984C93.2422 16.3984 92.0605 17.4189 91.7061 18.3857H91.5771C91.2012 17.2041 90.1484 16.3984 88.3975 16.3984C86.6465 16.3984 85.6797 17.4189 85.3789 18.2568H85.2285V16.5703H82.2852V28ZM101.535 28H104.64V21.5977C104.64 20.0615 105.284 18.9766 107.11 18.9766C107.572 18.9766 108.045 19.0195 108.271 19.0947V16.4951C108.056 16.4414 107.755 16.4092 107.336 16.4092C105.789 16.4092 104.94 17.4404 104.693 18.1816H104.564V16.5703H101.535V28ZM116.166 26.6143H116.295V28H119.142V20.3193C119.142 17.6016 117.101 16.3984 114.447 16.3984C111.042 16.3984 109.839 18.2139 109.764 20.1152H112.589C112.643 19.2451 113.287 18.6436 114.394 18.6436C115.511 18.6436 116.166 19.2451 116.166 20.3193V21.3291H113.416C110.773 21.3291 109.345 22.6396 109.345 24.7021C109.345 26.8613 110.881 28.1719 113.104 28.1719C114.791 28.1719 115.736 27.4414 116.166 26.6143ZM114.104 26.002C113.201 26.002 112.342 25.5078 112.342 24.4873C112.342 23.6494 112.943 23.0801 114.136 23.0801H116.166V24.2617C116.166 25.3037 115.242 26.002 114.104 26.002ZM121.29 22.6826C121.29 26.0664 123.256 28.2041 126.436 28.2041C129.153 28.2041 131.055 26.8506 131.27 24.1865H128.498C128.38 25.0566 127.821 25.8193 126.586 25.8193C125.2 25.8193 124.33 24.627 124.33 22.6611V21.8018C124.33 19.9219 125.179 18.751 126.575 18.751C127.596 18.751 128.315 19.5566 128.455 20.4912H131.227C131.162 18.2139 129.379 16.3662 126.446 16.3662C123.213 16.3662 121.29 18.5898 121.29 21.7695V22.6826ZM133.396 28H136.415V21.3613C136.415 19.9326 137.21 18.9551 138.574 18.9551C139.724 18.9551 140.701 19.5996 140.701 21.3184V28H143.72V20.6416C143.72 17.8486 142.108 16.3984 139.81 16.3984C137.908 16.3984 136.898 17.4834 136.544 18.2783H136.415V12.5635H133.396V28ZM152.539 26.6143H152.668V28H155.515V20.3193C155.515 17.6016 153.474 16.3984 150.82 16.3984C147.415 16.3984 146.212 18.2139 146.137 20.1152H148.962C149.016 19.2451 149.66 18.6436 150.767 18.6436C151.884 18.6436 152.539 19.2451 152.539 20.3193V21.3291H149.789C147.146 21.3291 145.718 22.6396 145.718 24.7021C145.718 26.8613 147.254 28.1719 149.478 28.1719C151.164 28.1719 152.109 27.4414 152.539 26.6143ZM150.477 26.002C149.574 26.002 148.715 25.5078 148.715 24.4873C148.715 23.6494 149.316 23.0801 150.509 23.0801H152.539V24.2617C152.539 25.3037 151.615 26.002 150.477 26.002ZM158.995 16.5703H157.298V18.9014H158.931V24.7559C158.931 27.1084 159.951 28.0537 162.819 28.0537C163.421 28.0537 163.947 28 164.173 27.957V25.7334C164.044 25.7549 163.797 25.7549 163.55 25.7549C162.411 25.7549 161.928 25.4111 161.928 24.3154V18.9014H164.13V16.5703H161.928V13.874H158.995V16.5703Z" fill="#4E5D78"/>
<defs>
<filter id="filter0_f" x="-65.376" y="-38.6416" width="166.865" height="157.055" filterUnits="userSpaceOnUse" color-interpolation-filters="sRGB">
<feFlood flood-opacity="0" result="BackgroundImageFix"/>
<feBlend mode="normal" in="SourceGraphic" in2="BackgroundImageFix" result="shape"/>
<feGaussianBlur stdDeviation="37" result="effect1_foregroundBlur"/>
</filter>
<filter id="filter1_dd" x="-8.03418" y="-3.31641" width="55.9544" height="67.597" filterUnits="userSpaceOnUse" color-interpolation-filters="sRGB">
<feFlood flood-opacity="0" result="BackgroundImageFix"/>
<feColorMatrix in="SourceAlpha" type="matrix" values="0 0 0 0 0 0 0 0 0 0 0 0 0 0 0 0 0 0 127 0" result="hardAlpha"/>
<feOffset dy="10"/>
<feGaussianBlur stdDeviation="10"/>
<feColorMatrix type="matrix" values="0 0 0 0 0.886275 0 0 0 0 0.482353 0 0 0 0 0.133333 0 0 0 0.1 0"/>
<feBlend mode="normal" in2="BackgroundImageFix" result="effect1_dropShadow"/>
<feColorMatrix in="SourceAlpha" type="matrix" values="0 0 0 0 0 0 0 0 0 0 0 0 0 0 0 0 0 0 127 0" result="hardAlpha"/>
<feOffset dy="10"/>
<feGaussianBlur stdDeviation="10"/>
<feColorMatrix type="matrix" values="0 0 0 0 0.886275 0 0 0 0 0.482353 0 0 0 0 0.133333 0 0 0 0.1 0"/>
<feBlend mode="normal" in2="effect1_dropShadow" result="effect2_dropShadow"/>
<feBlend mode="normal" in="SourceGraphic" in2="effect2_dropShadow" result="shape"/>
</filter>
<linearGradient id="paint0_linear" x1="0" y1="0" x2="45.1607" y2="39.6523" gradientUnits="userSpaceOnUse">
<stop stop-color="#00B1FF"/>
<stop offset="1" stop-color="#006BFF"/>
</linearGradient>
<linearGradient id="paint1_linear" x1="0" y1="0" x2="17.8726" y2="48.9976" gradientUnits="userSpaceOnUse">
<stop stop-color="#FCBF22"/>
<stop offset="1" stop-color="#DD7021"/>
</linearGradient>
<linearGradient id="paint2_linear" x1="20.0212" y1="0" x2="20.0212" y2="45.6859" gradientUnits="userSpaceOnUse">
<stop stop-color="#FD9D04"/>
<stop offset="1" stop-color="#FA7302"/>
</linearGradient>
<linearGradient id="paint3_linear" x1="0" y1="0" x2="45.1607" y2="39.6523" gradientUnits="userSpaceOnUse">
<stop stop-color="#00B1FF"/>
<stop offset="1" stop-color="#006BFF"/>
</linearGradient>
<linearGradient id="paint4_linear" x1="0" y1="0" x2="17.8726" y2="48.9976" gradientUnits="userSpaceOnUse">
<stop stop-color="#FCBF22"/>
<stop offset="1" stop-color="#DD7021"/>
</linearGradient>
<linearGradient id="paint5_linear" x1="20.0212" y1="0" x2="20.0212" y2="45.6859" gradientUnits="userSpaceOnUse">
<stop stop-color="#FD9D04"/>
<stop offset="1" stop-color="#FA7302"/>
</linearGradient>
</defs>
</svg>
