<svg width="27" height="27" viewBox="0 0 27 27" fill="none" xmlns="http://www.w3.org/2000/svg">
<path opacity="0.4" d="M6.09633 26.8335C2.82833 26.8335 0.166992 24.1265 0.166992 20.8008L0.166992 14.186C0.166992 10.867 2.82033 8.16683 6.08299 8.16683H20.9043C24.1737 8.16683 26.8337 10.8738 26.8337 14.2009V20.813C26.8337 24.1333 24.1803 26.8335 20.9177 26.8335H19.6643H6.09633Z" fill="url(#paint0_linear)"/>
<path d="M12.7731 0.46162L8.89439 4.25601C8.49439 4.64817 8.49439 5.27927 8.89706 5.67013C9.29973 6.0597 9.94906 6.0584 10.3491 5.66754L12.4731 3.58855V5.58183V16.7689C12.4731 17.3208 12.9331 17.7688 13.4997 17.7688C14.0677 17.7688 14.5264 17.3208 14.5264 16.7689V3.58855L16.6504 5.66754C17.0504 6.0584 17.6997 6.0597 18.1024 5.67013C18.3037 5.47405 18.4051 5.21824 18.4051 4.96112C18.4051 4.7066 18.3037 4.45079 18.1051 4.25601L14.2277 0.46162C14.0344 0.273329 13.7731 0.166847 13.4997 0.166847C13.2277 0.166847 12.9664 0.273329 12.7731 0.46162Z" fill="url(#paint1_linear)"/>
<defs>
<linearGradient id="paint0_linear" x1="22.5777" y1="4.92045" x2="0.207145" y2="20.8139" gradientUnits="userSpaceOnUse">
<stop stop-color="#5E52D2"/>
<stop offset="1" stop-color="#B697F9"/>
</linearGradient>
<linearGradient id="paint1_linear" x1="16.8393" y1="-2.89436" x2="5.33897" y2="0.293321" gradientUnits="userSpaceOnUse">
<stop stop-color="#5E52D2"/>
<stop offset="1" stop-color="#B697F9"/>
</linearGradient>
</defs>
</svg>
