<svg width="21" height="20" viewBox="0 0 21 20" fill="none" xmlns="http://www.w3.org/2000/svg">
<path d="M11.6078 10.202L3.88389 11.4898C3.79509 11.5046 3.71176 11.5425 3.64227 11.5998C3.57278 11.657 3.5196 11.7315 3.48805 11.8158L0.824868 18.9492C0.570548 19.6054 1.2566 20.2309 1.88625 19.9161L20.345 10.688C20.4728 10.6241 20.5804 10.5259 20.6555 10.4044C20.7307 10.2829 20.7705 10.1428 20.7705 9.99996C20.7705 9.85707 20.7307 9.71702 20.6555 9.59549C20.5804 9.47397 20.4728 9.37578 20.345 9.31195L1.88625 0.0838418C1.2566 -0.230939 0.570548 0.395547 0.824868 1.05074L3.48908 8.18407C3.52047 8.26857 3.5736 8.34331 3.64309 8.40073C3.71259 8.45816 3.796 8.49625 3.88492 8.51116L11.6089 9.79797C11.6564 9.80629 11.6995 9.83111 11.7305 9.86805C11.7616 9.905 11.7786 9.95171 11.7786 9.99996C11.7786 10.0482 11.7616 10.0949 11.7305 10.1319C11.6995 10.1688 11.6564 10.1936 11.6089 10.202H11.6078Z" fill="#7165E3"/>
</svg>
