<svg width="25" height="27" viewBox="0 0 25 27" fill="none" xmlns="http://www.w3.org/2000/svg">
<path opacity="0.4" d="M13.6875 20.5592C13.6875 21.2473 14.2529 21.8044 14.9513 21.8044L21.0562 22.1477C21.9462 22.1477 22.6668 21.4361 22.6668 20.5592C22.6668 19.6822 21.9462 18.9722 21.0562 18.9722L14.9513 19.314C14.2529 19.314 13.6875 19.871 13.6875 20.5592Z" fill="url(#paint0_linear)"/>
<path d="M1.39793 18.8594C1.39793 18.8594 1.03052 19.2168 0.870574 19.4383C0.623525 19.7598 0.5 20.1561 0.5 20.5509C0.5 20.9941 0.639361 21.4061 0.902247 21.7416C0.964009 21.8024 1.19681 22.0614 1.41377 22.2752C2.68227 23.6172 5.99368 25.8127 7.72778 26.4837C7.99066 26.5898 8.6558 26.8192 9.01212 26.8333C9.35102 26.8333 9.67725 26.7584 9.98606 26.6054C10.3725 26.3916 10.6829 26.0562 10.8523 25.6598C10.9616 25.3852 11.131 24.5628 11.131 24.5472C11.3021 23.6468 11.3939 22.1832 11.3939 20.5665C11.3939 19.0264 11.3021 17.6236 11.1627 16.7091C11.1469 16.6935 10.9774 15.673 10.7906 15.3219C10.4501 14.6821 9.78494 14.2842 9.07388 14.2842H9.01212C8.54811 14.2998 7.57258 14.6977 7.57258 14.7118C5.93192 15.3828 2.69811 17.4722 1.39793 18.8594Z" fill="url(#paint1_linear)"/>
<path opacity="0.4" d="M11.3125 6.44029C11.3125 5.75213 10.7471 5.19506 10.0487 5.19506L3.94361 4.85332C3.05358 4.85332 2.33301 5.56332 2.33301 6.44029C2.33301 7.31725 3.05358 8.02881 3.94361 8.02881L10.0487 7.68551C10.7471 7.68551 11.3125 7.12844 11.3125 6.44029Z" fill="url(#paint2_linear)"/>
<path d="M15.0134 0.394381C14.6269 0.60816 14.3181 0.943654 14.1471 1.34C14.0378 1.61464 13.8684 2.43855 13.8684 2.45259C13.6973 3.35297 13.6055 4.81665 13.6055 6.43326C13.6055 7.97341 13.6973 9.37625 13.8367 10.2907C13.8525 10.3063 14.0236 11.3268 14.2089 11.6779C14.5493 12.3192 15.2145 12.7156 15.9271 12.7156H15.9889C16.4529 12.7 17.4269 12.3036 17.4269 12.288C19.0676 11.617 22.3031 9.52917 23.6017 8.14038C23.6017 8.14038 23.9691 7.78304 24.1275 7.56146C24.3761 7.24157 24.4996 6.84522 24.4996 6.44731C24.4996 6.00571 24.3603 5.59531 24.0974 5.25826C24.0356 5.1974 23.8028 4.93837 23.5874 4.72459C22.3173 3.38417 19.0058 1.18708 17.2733 0.517655C17.0104 0.409986 16.3437 0.180601 15.9889 0.166556C15.6484 0.166556 15.3222 0.241458 15.0134 0.394381Z" fill="url(#paint3_linear)"/>
<defs>
<linearGradient id="paint0_linear" x1="22.6668" y1="22.1477" x2="22.6668" y2="18.9722" gradientUnits="userSpaceOnUse">
<stop stop-color="#BB9BF1"/>
<stop offset="1" stop-color="#887BF2"/>
</linearGradient>
<linearGradient id="paint1_linear" x1="11.3939" y1="26.8333" x2="11.3939" y2="14.2842" gradientUnits="userSpaceOnUse">
<stop stop-color="#BB9BF1"/>
<stop offset="1" stop-color="#887BF2"/>
</linearGradient>
<linearGradient id="paint2_linear" x1="11.3125" y1="8.02881" x2="11.3125" y2="4.85332" gradientUnits="userSpaceOnUse">
<stop stop-color="#BB9BF1"/>
<stop offset="1" stop-color="#887BF2"/>
</linearGradient>
<linearGradient id="paint3_linear" x1="24.4996" y1="12.7156" x2="24.4996" y2="0.166556" gradientUnits="userSpaceOnUse">
<stop stop-color="#BB9BF1"/>
<stop offset="1" stop-color="#887BF2"/>
</linearGradient>
</defs>
</svg>
