<svg width="20" height="21" viewBox="0 0 20 21" fill="none" xmlns="http://www.w3.org/2000/svg">
<rect y="1" width="20" height="20" rx="10" fill="#F4F8FF"/>
<path d="M8.4733 15C8.16908 15 7.88095 14.884 7.69632 14.684L5.19756 11.986C5.12031 11.9027 5.06391 11.8077 5.03159 11.7066C4.99926 11.6055 4.99165 11.5001 5.00919 11.3965C5.02673 11.293 5.06907 11.1933 5.13379 11.1031C5.19851 11.0129 5.28435 10.9341 5.38639 10.871C5.48839 10.8077 5.60468 10.7615 5.7286 10.735C5.85251 10.7085 5.98161 10.7022 6.10849 10.7165C6.23537 10.7309 6.35754 10.7655 6.46801 10.8185C6.57847 10.8715 6.67505 10.9418 6.75221 11.0253L8.39637 12.7992L12.5302 7.37472C12.6673 7.19561 12.8857 7.06826 13.1376 7.02058C13.3894 6.97291 13.6541 7.00881 13.8736 7.12041C14.3303 7.35243 14.4709 7.8439 14.1855 8.21765L9.30132 14.624C9.21794 14.7338 9.10302 14.8254 8.96652 14.8907C8.83003 14.956 8.67608 14.9932 8.51805 14.9989C8.50267 15 8.48868 15 8.4733 15Z" fill="url(#paint0_linear)"/>
<defs>
<linearGradient id="paint0_linear" x1="5" y1="7" x2="7.66045" y2="16.8097" gradientUnits="userSpaceOnUse">
<stop stop-color="#5162FF"/>
<stop offset="1" stop-color="#413DEB"/>
</linearGradient>
</defs>
</svg>
