<svg width="211" height="107" viewBox="0 0 211 107" fill="none" xmlns="http://www.w3.org/2000/svg">
<g filter="url(#filter0_dd)">
<path d="M25.0932 33.2206C25.1148 30.5285 27.1806 27.5907 29.7067 26.6589L46.9833 20.2851C49.5094 19.3533 51.5384 20.7803 51.5167 23.4724L51.4235 34.8461L25 44.5942L25.0932 33.2206Z" fill="#8A6EE6"/>
<path d="M58.5805 26.7642H31.4995C27.9099 26.7642 25 29.6741 25 33.2636V60.3447C25 63.9342 27.9099 66.8441 31.4995 66.8441H58.5805C62.1701 66.8441 65.08 63.9342 65.08 60.3447V33.2636C65.08 29.6741 62.1701 26.7642 58.5805 26.7642Z" fill="url(#paint0_linear)"/>
<mask id="mask0" mask-type="alpha" maskUnits="userSpaceOnUse" x="25" y="26" width="41" height="41">
<path d="M58.5805 26.7642H31.4995C27.9099 26.7642 25 29.6741 25 33.2636V60.3447C25 63.9342 27.9099 66.8441 31.4995 66.8441H58.5805C62.1701 66.8441 65.08 63.9342 65.08 60.3447V33.2636C65.08 29.6741 62.1701 26.7642 58.5805 26.7642Z" fill="url(#paint1_linear)" fill-opacity="0.8"/>
<path d="M58.5805 26.7642H31.4995C27.9099 26.7642 25 29.6741 25 33.2636V60.3447C25 63.9342 27.9099 66.8441 31.4995 66.8441H58.5805C62.1701 66.8441 65.08 63.9342 65.08 60.3447V33.2636C65.08 29.6741 62.1701 26.7642 58.5805 26.7642Z" fill="url(#paint2_linear)"/>
</mask>
<g mask="url(#mask0)">
<g opacity="0.75" filter="url(#filter1_f)">
<path opacity="0.75" d="M38.4646 41.9378C48.9271 41.9378 57.4087 37.8576 57.4087 32.8244C57.4087 27.7912 48.9271 23.7109 38.4646 23.7109C28.0021 23.7109 19.5205 27.7912 19.5205 32.8244C19.5205 37.8576 28.0021 41.9378 38.4646 41.9378Z" fill="#1C5AF6"/>
</g>
<g style="mix-blend-mode:soft-light">
<path d="M58.5805 26.7642H31.4995C27.9099 26.7642 25 29.6741 25 33.2636V60.3447C25 63.9342 27.9099 66.8441 31.4995 66.8441H58.5805C62.1701 66.8441 65.08 63.9342 65.08 60.3447V33.2636C65.08 29.6741 62.1701 26.7642 58.5805 26.7642Z" fill="white" fill-opacity="0.07"/>
</g>
<g filter="url(#filter2_dd)">
<path d="M46.2207 33.48H46.8489C47.8141 33.5183 48.7804 33.6973 49.6751 34.0664C50.2817 34.316 50.8797 34.6326 51.3271 35.1224C51.587 35.4066 51.7918 35.7427 51.9239 36.1049C52.0745 36.5252 52.1308 36.9769 52.1092 37.4219C52.0864 37.8383 51.9954 38.2547 51.8167 38.6327C51.6759 38.9114 51.5361 39.1926 51.3531 39.4467C51.1234 39.7695 50.8298 40.0533 50.4767 40.2368C50.0542 40.4548 49.556 40.5403 49.0891 40.4361C48.4803 40.3107 47.9582 39.8466 47.7513 39.263C47.7134 39.0838 47.7383 38.8899 47.8163 38.7244C47.8639 38.6176 47.9885 38.5875 48.0936 38.574C48.3232 38.5474 48.541 38.6425 48.7663 38.6633C48.9179 38.6832 49.0425 38.563 49.114 38.4417C49.1942 38.3199 49.2093 38.1713 49.2104 38.0294C49.2104 37.7891 49.2147 37.546 49.1638 37.3097C49.1237 37.1093 49.0176 36.9305 48.9071 36.7616C48.7359 36.5053 48.476 36.3276 48.2106 36.1803C47.7881 35.9333 47.2974 35.8341 46.8143 35.8003C46.4005 35.7671 45.9823 35.7879 45.575 35.8733C44.8189 36.0397 44.1408 36.4771 43.6176 37.0404C43.1789 37.5005 42.8182 38.0549 42.673 38.6798C42.5322 39.2816 42.594 39.9322 42.8626 40.4907C43.0901 40.968 43.4465 41.374 43.8603 41.6996C44.4658 42.2014 45.1222 42.6377 45.8058 43.0251C46.2163 43.2634 46.6518 43.4538 47.0797 43.6588C47.5097 43.867 47.9343 44.0856 48.3546 44.3131C48.6135 44.4576 48.8789 44.5934 49.1346 44.7453C49.5072 44.9689 49.8614 45.2245 50.1907 45.5092C50.4366 45.7169 50.6544 45.9553 50.8927 46.1717C51.2122 46.4752 51.5036 46.8065 51.7734 47.1542C51.9434 47.3765 52.1102 47.6024 52.2554 47.8429C52.6291 48.4588 52.8815 49.1489 52.9888 49.8619C53.0267 50.101 53.0418 50.343 53.0559 50.5846V50.9746C53.0353 51.5119 52.9877 52.05 52.875 52.5767C52.706 53.3997 52.3995 54.1966 51.9542 54.9104C51.5686 55.5309 51.0833 56.0862 50.533 56.5656C50.0055 57.018 49.4314 57.416 48.8302 57.7652C48.0697 58.2037 47.2573 58.5547 46.4102 58.7889C45.7234 58.9836 45.0139 59.0785 44.3066 59.1554C44.2188 59.2932 44.1376 59.4353 44.0553 59.5766C43.857 59.928 43.6956 60.308 43.4194 60.6085C43.1367 60.9293 42.7434 61.1748 42.3091 61.2069C41.9527 61.237 41.593 61.1074 41.3179 60.8815C40.9702 60.5877 40.7665 60.1433 40.7199 59.6942C40.6972 59.5577 40.7871 59.4059 40.929 59.3831C41.3407 59.3017 41.7479 59.1795 42.1238 58.9914C42.1769 58.9639 42.2332 58.9422 42.2787 58.9037C42.3015 58.838 42.2224 58.8058 42.1726 58.7919C41.8324 58.7054 41.4869 58.6337 41.15 58.5323C40.6994 58.4019 40.2574 58.2446 39.8241 58.0648C39.4959 57.927 39.1677 57.7834 38.8665 57.5919C38.3736 57.226 37.9024 56.8174 37.5417 56.3171C37.1875 55.8236 37.0716 55.2077 37.0239 54.614V54.2457C37.0391 54.1038 37.0586 53.9619 37.0933 53.8233C37.2362 53.2154 37.6002 52.674 38.0714 52.2701C38.7095 51.7205 39.5609 51.4107 40.4058 51.4694C41.0893 51.5134 41.7447 51.7887 42.2906 52.1958C42.8539 52.6137 43.3143 53.1597 43.675 53.7589C44.0704 54.4186 44.3575 55.144 44.5124 55.8977C44.5275 55.969 44.534 56.0428 44.5611 56.1115C44.885 56.0411 45.197 55.9271 45.5046 55.808C46.1697 55.5398 46.7991 55.1819 47.357 54.7304C47.8065 54.3653 48.2116 53.9409 48.529 53.4554C48.8573 52.9526 49.0967 52.3854 49.1877 51.7898C49.2147 51.5944 49.2526 51.3979 49.2386 51.1999C49.2191 50.9683 49.1725 50.7393 49.101 50.5185C48.8941 49.89 48.4976 49.3425 48.0394 48.8731C47.4545 48.2621 46.7839 47.7359 46.0603 47.2993C44.9641 46.6672 43.8646 46.0395 42.7608 45.4212C41.6819 44.8319 40.6907 44.0734 39.8772 43.1499C39.4016 42.6256 39.0279 42.0038 38.8232 41.3248C38.5838 40.5425 38.5914 39.706 38.7192 38.9046C38.8839 37.8903 39.3421 36.9251 40.0299 36.161C40.4751 35.6603 41.0048 35.2407 41.5725 34.8867C42.2018 34.4961 42.8724 34.1694 43.5786 33.9423C44.4311 33.6622 45.3248 33.5164 46.2207 33.48ZM39.1471 53.9962C39.0463 54.1725 39.0247 54.3816 39.0312 54.5811C39.0474 54.8827 39.2056 55.1635 39.4266 55.3645C39.7266 55.6416 40.1047 55.8119 40.4838 55.9516C40.6831 56.0212 40.8792 56.1018 41.0828 56.1577C41.4219 56.2543 41.7696 56.3111 42.1152 56.3726C42.2311 56.3916 42.3448 56.4205 42.4629 56.4194C42.2473 55.6607 41.8639 54.9492 41.3482 54.3534C41.1814 54.1582 40.9962 53.9769 40.7817 53.8343C40.5412 53.6723 40.2628 53.5548 39.9703 53.5408C39.64 53.5271 39.3171 53.7165 39.1471 53.9962Z" fill="white"/>
</g>
</g>
</g>
<path d="M162.357 57.8521C161.856 57.8521 161.401 57.5919 160.992 57.0714C160.417 56.4208 160.129 55.6587 160.129 54.7851C160.129 53.7442 160.537 52.5406 161.354 51.1744C161.605 50.7469 161.967 50.2822 162.44 49.7803C163.499 48.6371 164.515 48.0655 165.49 48.0655H165.643C166.553 48.0655 167.36 48.5349 168.066 49.4736C168.261 49.7803 168.358 50.0173 168.358 50.1846C168.358 50.3983 168.191 50.5842 167.857 50.7422H167.774C167.718 50.7422 167.658 50.6725 167.593 50.5331C167.509 50.4402 167.384 50.3937 167.217 50.3937C166.66 50.3937 165.991 50.7236 165.211 51.3835C164.506 52.0434 163.926 52.8055 163.471 53.6698C163.155 54.246 162.858 54.9431 162.58 55.761C162.45 56.1699 162.385 56.4348 162.385 56.5556C162.57 56.5556 163.072 56.1792 163.889 55.4264C164.455 54.8409 164.905 54.3111 165.239 53.8371C165.601 53.2888 165.857 52.8287 166.005 52.457C166.265 51.6763 166.506 51.1744 166.729 50.9513C166.868 50.8398 167.008 50.784 167.147 50.784H167.258C167.565 50.784 167.936 50.9839 168.372 51.3835C168.734 51.7738 168.915 52.127 168.915 52.443C168.915 52.9077 168.539 53.944 167.787 55.5519C167.481 56.156 167.319 56.5184 167.3 56.6392C167.43 56.6392 167.899 56.2024 168.706 55.3288C169.468 54.4552 170.136 53.6233 170.712 52.8334C171.083 52.2664 171.454 51.7553 171.826 51.2999C172.048 51.021 172.216 50.8816 172.327 50.8816C172.494 50.8816 172.578 50.9374 172.578 51.0489V51.1186C172.578 51.509 171.524 53.0471 169.417 55.7331C168.358 57.0528 167.555 57.7127 167.008 57.7127C166.692 57.7127 166.325 57.5268 165.908 57.1551C165.546 56.7833 165.365 56.3233 165.365 55.7749C165.365 55.6541 165.379 55.4775 165.406 55.2452C165.072 55.6913 164.692 56.1467 164.265 56.6114C163.661 57.2155 163.285 57.5547 163.137 57.6291C162.895 57.7778 162.635 57.8521 162.357 57.8521Z" fill="white"/>
<path d="M176.699 57.9218C176.411 57.9218 176.031 57.7034 175.557 57.2666C175.14 56.7368 174.931 56.1792 174.931 55.5937C174.931 55.4078 174.959 55.1429 175.014 54.799C174.689 55.2173 174.337 55.6587 173.956 56.1234C173.529 56.6067 173.116 57.025 172.717 57.3781C172.345 57.7406 172.011 57.9218 171.714 57.9218C171.426 57.9218 171.041 57.7034 170.558 57.2666C170.15 56.7368 169.946 56.1792 169.946 55.5937C169.946 54.7665 170.521 52.2339 171.672 47.9958C172.526 44.5199 173.13 42.1731 173.483 40.9556C173.752 40.082 173.989 39.4035 174.193 38.9202C174.323 38.6414 174.49 38.502 174.694 38.502C174.935 38.502 175.251 38.6507 175.641 38.9481C176.179 39.4407 176.449 39.8915 176.449 40.3004C176.449 40.6164 176.249 41.6341 175.85 43.3535C174.179 49.7849 173.07 54.1113 172.522 56.3325C172.513 56.3325 172.508 56.3651 172.508 56.4301C173.056 56.0956 173.729 55.4124 174.527 54.3808C174.759 54.0927 175.014 53.7674 175.293 53.4049C175.581 52.1038 176.036 50.3007 176.657 47.9958C177.734 43.8786 178.454 41.2019 178.816 39.9658C179.085 39.0922 179.322 38.4137 179.526 37.9304C179.665 37.6516 179.832 37.5122 180.027 37.5122C180.278 37.5122 180.594 37.6609 180.974 37.9583C181.513 38.4509 181.782 38.9017 181.782 39.3106C181.782 39.6266 181.466 40.9742 180.835 43.3535C179.164 49.7849 178.055 54.1113 177.507 56.3325C177.498 56.3325 177.493 56.3651 177.493 56.4301C178.041 56.0956 178.714 55.4124 179.512 54.3808C179.958 53.8325 180.477 53.1494 181.072 52.3315C181.35 51.969 181.656 51.6251 181.991 51.2999C182.037 51.2627 182.083 51.2394 182.13 51.2301C182.269 51.3138 182.339 51.3974 182.339 51.4811C182.339 51.6112 182.005 52.1224 181.336 53.0146C180.705 53.9068 179.907 54.9431 178.941 56.1234C178.514 56.6067 178.106 57.0296 177.716 57.3921C177.335 57.7452 176.996 57.9218 176.699 57.9218Z" fill="white"/>
<path d="M182.84 57.9079C181.893 57.9079 181.095 57.3224 180.445 56.1513C180.185 55.6401 180.055 55.1336 180.055 54.6317C180.055 53.3956 180.77 51.969 182.199 50.3519C182.729 49.8035 183.081 49.4782 183.258 49.376C184.019 48.7998 184.65 48.5117 185.152 48.5117H185.263C185.764 48.5117 186.303 48.7858 186.878 49.3342C187.314 49.7989 187.533 50.2636 187.533 50.7283C187.533 51.2487 187.268 51.8203 186.739 52.443C186.052 53.1772 185.314 53.5443 184.525 53.5443C184.051 53.5443 183.555 53.4049 183.035 53.1261C182.775 53.47 182.566 53.7813 182.408 54.0602C181.926 54.9338 181.684 55.6169 181.684 56.1095C181.684 56.5277 182.032 56.7368 182.729 56.7368C183.471 56.7368 184.228 56.4487 184.998 55.8725C185.509 55.5379 186.303 54.878 187.379 53.8929C188.076 53.2144 188.846 52.4523 189.691 51.6066C190.007 51.3184 190.206 51.1511 190.29 51.1047C190.401 51.1697 190.461 51.2348 190.471 51.2999C190.471 51.4207 190.062 51.8947 189.245 52.7218C188.401 53.6141 187.686 54.3994 187.101 55.0779C186.33 55.9329 185.718 56.5417 185.263 56.9041C184.502 57.5082 183.88 57.8289 183.397 57.8661C183.239 57.8939 183.054 57.9079 182.84 57.9079ZM183.829 52.5406C183.884 52.5406 184.014 52.5174 184.219 52.4709C184.711 52.3408 185.184 52.0248 185.639 51.5229C185.955 51.1419 186.154 50.7747 186.238 50.4216C185.792 50.5145 185.235 50.8352 184.567 51.3835C184.084 51.8482 183.74 52.2107 183.536 52.4709C183.62 52.5174 183.717 52.5406 183.829 52.5406Z" fill="white"/>
<path d="M198.338 66.0215C200.668 65.9286 202.079 65.831 202.571 65.7288C203.453 65.5987 204.173 65.45 204.73 65.2827C205.714 64.9946 206.503 64.6832 207.097 64.3486C207.487 64.1256 207.886 63.8375 208.294 63.4843C208.74 62.9731 208.963 62.6292 208.963 62.4526C208.963 62.3039 208.745 62.1181 208.308 61.895C207.798 61.6348 207.213 61.3931 206.554 61.1701C206.043 61.0121 205.393 60.8541 204.604 60.6961C203.954 60.566 202.683 60.5009 200.789 60.5009C198.83 60.5009 197.187 60.6171 195.86 60.8494C194.987 60.9703 192.894 61.277 189.58 61.7695C189.645 62.2156 189.807 62.6618 190.067 63.1079C190.41 63.6841 191.158 64.2743 192.309 64.8784C192.81 65.1107 193.302 65.2966 193.785 65.436C194.323 65.594 195.191 65.7474 196.389 65.8961C197.224 65.9797 197.874 66.0215 198.338 66.0215ZM198.798 68.7122H198.324C194.908 68.7122 192.049 67.648 189.747 65.5197C188.707 64.4973 188.006 63.3449 187.644 62.0623C185.444 62.3504 182.998 62.6199 180.306 62.8709C179.155 63.001 177.911 63.066 176.574 63.066C173.436 63.066 171.296 62.9266 170.155 62.6478C169.635 62.5363 169.157 62.4108 168.72 62.2714C168.043 62.0669 167.036 61.5883 165.699 60.8355C164.919 60.3894 164.381 59.8689 164.084 59.2741C164.019 59.144 163.986 59.0185 163.986 58.8977C163.986 58.7397 164.037 58.6607 164.139 58.6607C164.213 58.6607 164.859 58.9163 166.075 59.4275C166.771 59.7156 167.681 59.9851 168.804 60.236C170.122 60.5056 171.928 60.6403 174.221 60.6403C176.671 60.6403 180.389 60.408 185.374 59.9433L187.282 59.7202C187.273 59.5808 187.268 59.3438 187.268 59.0092L187.282 57.7266C187.347 56.946 187.426 56.2071 187.519 55.51C187.556 54.6085 188.131 52.1038 189.245 47.9958L189.593 46.6854C189.222 46.6668 188.874 46.6575 188.549 46.6575C187.528 46.6575 186.892 46.7876 186.641 47.0478C186.576 47.1408 186.544 47.2151 186.544 47.2709C186.544 47.2988 186.576 47.4057 186.641 47.5915C186.641 47.6659 186.632 47.7031 186.614 47.7031C186.502 47.7031 186.377 47.5172 186.238 47.1454C186.173 46.9503 186.14 46.7272 186.14 46.4763C186.14 45.5562 187.217 45.0961 189.371 45.0961H190.011C190.67 42.596 191.134 40.8859 191.404 39.9658C191.673 39.0922 191.91 38.4137 192.114 37.9304C192.244 37.6516 192.411 37.5122 192.615 37.5122C192.856 37.5122 193.172 37.6609 193.562 37.9583C194.1 38.4509 194.37 38.9017 194.37 39.3106C194.37 39.6266 194.054 40.9742 193.423 43.3535L192.921 45.2913L193.618 45.361C194.37 45.4075 195.01 45.4307 195.539 45.4307C197.405 45.4307 198.556 45.1519 198.993 44.5942L199.09 44.5524C199.22 44.5524 199.327 44.8823 199.41 45.5422V45.7235C199.41 46.2067 199.099 46.5971 198.477 46.8945C197.92 47.1268 197.113 47.243 196.055 47.243C195.433 47.243 194.244 47.1454 192.49 46.9503C191.329 51.43 190.526 54.576 190.081 56.3883C189.737 57.9218 189.566 58.8605 189.566 59.2044C189.566 59.2323 189.566 59.2555 189.566 59.2741C189.575 59.302 189.58 59.3299 189.58 59.3577C189.589 59.3949 189.603 59.4135 189.621 59.4135C193.845 58.893 196.152 58.6328 196.542 58.6328C197.582 58.5399 198.538 58.4934 199.41 58.4934C201.805 58.4934 204.07 58.814 206.206 59.4553C206.995 59.7156 207.654 59.9944 208.183 60.2918C208.851 60.6636 209.329 61.1283 209.617 61.6859C209.905 62.2528 210.049 62.7965 210.049 63.317C210.049 64.2278 209.487 65.1293 208.364 66.0215C207.092 66.9509 205.375 67.6805 203.212 68.2103C201.634 68.5449 200.162 68.7122 198.798 68.7122Z" fill="white"/>
<path d="M151.88 59.5919C151.418 59.5919 150.899 59.2958 150.324 58.7037C149.575 57.8504 149.2 56.6313 149.2 55.0466C149.2 54.0104 149.344 52.8697 149.631 51.6245C149.631 51.6158 149.627 51.6115 149.618 51.6115C149.165 52.2907 148.777 52.8392 148.455 53.2572C147.383 54.7897 146.215 56.3614 144.951 57.9723C144.368 58.6428 143.94 59.0564 143.67 59.2131C143.452 59.335 143.239 59.3959 143.03 59.3959C142.498 59.3959 141.914 59.0085 141.278 58.2335C140.816 57.6762 140.585 56.8882 140.585 55.8694V55.6735C140.585 53.723 141.4 50.4839 143.03 45.956C143.736 44.0926 144.681 41.7024 145.866 38.7854C146.259 37.8276 146.603 36.8697 146.899 35.9119C146.969 35.7116 147.004 35.5593 147.004 35.4548C147.004 35.4112 146.982 35.3895 146.938 35.3895C146.503 35.4417 145.888 35.7029 145.095 36.1731C144.668 36.4431 144.189 36.8131 143.657 37.2833C143.039 37.8667 142.633 38.2847 142.442 38.5372C141.021 40.27 140.097 42.0855 139.67 43.9837C139.557 44.3669 139.5 44.9938 139.5 45.8645C139.5 47.0401 139.579 47.7845 139.736 48.098C139.831 48.2635 140.014 48.4376 140.285 48.6205C140.389 48.7249 140.442 48.8077 140.442 48.8686C140.442 48.9209 140.359 48.947 140.193 48.947C139.574 48.947 139.034 48.381 138.572 47.249C138.224 46.239 138.049 45.2289 138.049 44.2188V43.8401C138.049 41.7067 138.864 39.482 140.494 37.1658C140.834 36.6695 141.33 36.0774 141.984 35.3895C142.699 34.6929 143.261 34.2096 143.67 33.9397C144.795 33.1299 145.727 32.725 146.468 32.725C147.531 32.725 148.372 33.6001 148.991 35.3503C149.095 35.6899 149.148 36.0382 149.148 36.3952C149.148 37.3965 148.642 39.2817 147.631 42.0507C146.734 44.5671 146.023 46.5786 145.5 48.0849C144.899 49.7916 144.372 51.433 143.919 53.009C143.466 54.6809 143.161 56.0958 143.004 57.2539C143.771 56.714 144.716 55.7823 145.84 54.4588C147.034 53.0569 148.167 51.5984 149.239 50.0833C149.849 49.23 150.346 48.5029 150.729 47.9021L152.455 42.5862C152.856 41.3933 153.13 40.6749 153.278 40.4311C153.453 40.1612 153.649 40.0262 153.867 40.0262C154.093 40.0262 154.342 40.1568 154.612 40.418C154.934 40.775 155.095 41.3758 155.095 42.2205C155.095 43.9358 154.472 46.6439 153.226 50.3445C152.32 53.4009 151.867 55.5603 151.867 56.8229C151.867 57.2409 151.906 57.6109 151.984 57.9331C152.028 57.9679 152.071 57.9853 152.115 57.9853C152.385 57.9853 152.834 57.6632 153.461 57.0188C154.943 55.4079 156.159 53.6708 157.108 51.8074C158.128 49.9701 159.178 47.5712 160.259 44.6107C161.636 40.8229 162.56 37.0918 163.03 33.4172C163.109 32.9993 163.178 32.7903 163.239 32.7903C163.335 32.738 163.431 32.7119 163.527 32.7119C163.867 32.7119 164.22 32.9252 164.586 33.3519C165.117 34.1269 165.383 34.6754 165.383 34.9976C165.401 34.9976 165.409 35.1369 165.409 35.4156C165.409 35.9554 165.218 37.1397 164.834 38.9682C164.364 40.9709 163.814 42.7865 163.187 44.4148C162.438 46.3565 161.575 48.2373 160.599 50.0572C159.117 52.7913 157.479 55.1467 155.684 57.1233C154.124 58.769 152.856 59.5919 151.88 59.5919Z" fill="white"/>
<path d="M100.86 57.7668C100.584 57.7668 100.239 57.5839 99.825 57.2182C99.4845 56.8342 99.2544 56.4274 99.1348 55.9977C99.1072 55.8148 99.0934 55.5954 99.0934 55.3394C99.0934 54.7908 99.121 54.3108 99.1762 53.8994H99.1486C99.0106 54.0365 98.7851 54.3245 98.4723 54.7634C97.9202 55.5405 97.3772 56.2125 96.8435 56.7794C96.3834 57.2548 95.9831 57.4925 95.6426 57.4925H95.5598C95.2838 57.4925 94.9433 57.3142 94.5384 56.9577C94.1059 56.5188 93.8896 55.9291 93.8896 55.1885C93.8896 54.2468 94.3221 52.432 95.1871 49.744C95.4632 48.9577 95.6748 48.5325 95.8221 48.4685C95.8957 48.432 95.9923 48.4137 96.1119 48.4137C96.6273 48.4137 97.1288 48.6834 97.6165 49.2228C97.8097 49.4331 97.9063 49.6845 97.9063 49.9771C97.9063 50.3977 97.6579 51.2845 97.161 52.6377C96.3972 54.8137 96.0153 56.0022 96.0153 56.2034C96.1718 56.2034 96.7515 55.6411 97.7545 54.5165C98.4447 53.6662 99.0658 52.8205 99.6179 51.9794C99.8756 51.5588 100.092 51.0971 100.267 50.5942C100.708 49.3417 101.086 48.7154 101.399 48.7154C101.785 48.7154 102.199 48.9302 102.641 49.36C102.871 49.6342 102.986 49.9725 102.986 50.3748C102.986 50.9142 102.655 52.2628 101.992 54.4205C101.716 55.3897 101.578 55.9154 101.578 55.9977C101.578 56.0068 101.583 56.0114 101.592 56.0114C101.721 55.9291 101.941 55.7005 102.254 55.3257C102.714 54.7862 103.625 53.6571 104.987 51.9382C105.53 51.2617 105.88 50.9234 106.036 50.9234H106.092C106.184 50.9234 106.289 51.0102 106.409 51.184V51.2388C106.409 51.3577 105.94 52.0205 105.001 53.2274C103.878 54.7177 102.889 55.9519 102.033 56.9302C101.509 57.4879 101.118 57.7668 100.86 57.7668Z" fill="white"/>
<path d="M113.973 57.9588C113.688 57.9588 113.324 57.7668 112.883 57.3828C112.478 56.9257 112.275 56.4274 112.275 55.8879C112.275 55.2571 112.551 54.16 113.104 52.5965C113.242 52.1577 113.311 51.9108 113.311 51.856C113.301 51.856 113.297 51.8514 113.297 51.8422C113.131 51.888 112.699 52.2811 111.999 53.0217L111.019 54.16C110.688 55.2205 110.449 56.0159 110.302 56.5462C110.302 56.7199 110.214 56.9988 110.039 57.3828C109.837 57.7211 109.621 57.8902 109.391 57.8902C109.188 57.8902 108.898 57.7302 108.521 57.4102C108.088 56.9439 107.872 56.4137 107.872 55.8194C107.872 55.1977 108.18 53.9908 108.797 52.1988C109.045 51.4857 109.17 51.0834 109.17 50.992C109.041 50.992 108.604 51.3805 107.858 52.1577C107.039 53.1268 106.575 53.776 106.464 54.1051C106.317 54.4525 106.096 55.1748 105.802 56.2719C105.526 57.1862 105.314 57.6662 105.167 57.7119C105.047 57.8125 104.937 57.8628 104.835 57.8628C104.578 57.8262 104.283 57.6754 103.952 57.4102C103.538 56.9988 103.331 56.5371 103.331 56.0251C103.331 55.7051 103.602 54.4617 104.145 52.2948C104.633 50.384 105.01 49.1085 105.277 48.4685C105.406 48.2034 105.562 48.0708 105.747 48.0708C106.087 48.0708 106.506 48.3817 107.003 49.0034C107.242 49.3234 107.361 49.6617 107.361 50.0182C107.361 50.1828 107.283 50.5805 107.127 51.2114L107.113 51.3348C107.122 51.3531 107.131 51.3622 107.141 51.3622C107.325 51.1977 107.555 50.9371 107.831 50.5805C108.641 49.6937 109.239 49.2502 109.625 49.2502C110.021 49.2502 110.476 49.488 110.992 49.9634C111.387 50.3657 111.585 50.8274 111.585 51.3485C111.585 51.5588 111.571 51.76 111.544 51.952C112.565 50.7177 113.306 50.1005 113.766 50.1005C114.162 50.1005 114.613 50.3337 115.119 50.8C115.551 51.2297 115.768 51.7417 115.768 52.336V52.4594C115.768 52.9531 115.478 54.0548 114.898 55.7645C114.806 56.0754 114.737 56.3314 114.691 56.5325C114.801 56.5325 115.123 56.2674 115.657 55.7371L116.168 55.1748C116.748 54.4891 117.263 53.8308 117.714 53.2C118.073 52.6971 118.491 52.1897 118.97 51.6777C119.071 51.5954 119.154 51.5542 119.218 51.5542C119.329 51.6274 119.384 51.696 119.384 51.76C119.384 51.8971 119.016 52.464 118.28 53.4605C116.09 56.4594 114.654 57.9588 113.973 57.9588Z" fill="white"/>
<path d="M118.708 57.4925C118.367 57.4925 117.981 57.2685 117.548 56.8205C117.263 56.4548 117.12 56.0525 117.12 55.6137C117.12 55.3577 117.396 54.1417 117.948 51.9657C118.409 50.1462 118.758 48.8388 118.997 48.0434C119.108 47.7417 119.232 47.5908 119.37 47.5908C119.554 47.5908 119.78 47.6731 120.047 47.8377C120.58 48.2491 120.911 48.6788 121.04 49.1268C121.068 49.2548 121.082 49.4102 121.082 49.5931C121.082 50.0594 121.031 50.4708 120.93 50.8274C120.93 50.9462 120.934 51.0057 120.944 51.0057C121.155 50.8045 121.395 50.5348 121.661 50.1965C122.729 49.0994 123.437 48.5508 123.787 48.5508H123.884C124.169 48.5508 124.537 48.7245 124.988 49.072C125.347 49.4102 125.559 49.6708 125.623 49.8537C125.743 50.064 125.802 50.3337 125.802 50.6628C125.802 51.1108 125.687 51.7737 125.457 52.6514C125.347 53.0811 125.112 53.296 124.753 53.296C124.533 53.296 124.261 53.2091 123.939 53.0354C123.313 52.7062 123 52.2857 123 51.7737C123 51.6 123.037 51.4171 123.111 51.2251C123.286 50.6857 123.373 50.3702 123.373 50.2788C123.217 50.3062 122.628 50.8365 121.606 51.8697C120.833 52.7748 120.382 53.4102 120.254 53.776C120.116 54.1051 119.899 54.8274 119.605 55.9428C119.366 56.7382 119.159 57.2091 118.984 57.3554C118.846 57.4468 118.754 57.4925 118.708 57.4925Z" fill="white"/>
<path d="M132.47 60.0708H132.457C132.144 60.0708 131.684 59.8468 131.076 59.3988C130.423 58.8319 130.096 58.2971 130.096 57.7942C130.096 57.3554 130.253 56.5417 130.566 55.3531C130.271 55.7188 129.949 56.0937 129.599 56.4777C129.001 57.0719 128.629 57.4057 128.481 57.4788C128.242 57.6251 127.984 57.6982 127.708 57.6982C127.211 57.6982 126.761 57.4422 126.356 56.9302C125.785 56.2902 125.5 55.5405 125.5 54.6811C125.5 53.6571 125.905 52.4731 126.714 51.1291C126.963 50.7085 127.322 50.2514 127.791 49.7577C128.84 48.6331 129.848 48.0708 130.814 48.0708H130.966C131.868 48.0708 132.668 48.5325 133.368 49.456C133.561 49.7577 133.657 49.9908 133.657 50.1554C133.657 50.3657 133.492 50.5485 133.161 50.704H133.078C133.023 50.704 132.963 50.6354 132.898 50.4982C132.815 50.4068 132.691 50.3611 132.526 50.3611C131.973 50.3611 131.311 50.6857 130.538 51.3348C129.839 51.984 129.263 52.7337 128.813 53.584C128.5 54.1508 128.205 54.8365 127.929 55.6411C127.8 56.0434 127.736 56.3039 127.736 56.4228C127.92 56.4228 128.417 56.0525 129.227 55.3119C129.788 54.7359 130.234 54.2148 130.566 53.7485C130.906 53.2365 131.224 52.6834 131.518 52.0891C131.757 51.3668 131.969 50.9371 132.153 50.8C132.245 50.7451 132.342 50.7177 132.443 50.7177C132.765 50.7177 133.174 50.9371 133.671 51.376C134.03 51.6777 134.21 52.0114 134.21 52.3771C134.21 52.4411 134.187 52.528 134.141 52.6377C134.067 53.1222 133.869 53.9314 133.547 55.0651C133.032 56.8571 132.774 58.1371 132.774 58.9051L132.788 59.4125C132.788 59.8057 132.746 60.0068 132.664 60.0159C132.627 60.0525 132.562 60.0708 132.47 60.0708Z" fill="white"/>
<g filter="url(#filter3_dd)">
<path d="M86.8566 34.375H87.4473C88.3548 34.4111 89.2633 34.5793 90.1046 34.9264C90.6749 35.1611 91.2372 35.4587 91.6578 35.9193C91.9022 36.1865 92.0947 36.5025 92.219 36.843C92.3606 37.2382 92.4135 37.6629 92.3932 38.0813C92.3718 38.4729 92.2862 38.8644 92.1182 39.2198C91.9858 39.4818 91.8544 39.7462 91.6822 39.9851C91.4663 40.2886 91.1903 40.5555 90.8583 40.728C90.4611 40.9329 89.9925 41.0134 89.5536 40.9154C88.9812 40.7975 88.4903 40.3612 88.2957 39.8124C88.2601 39.6439 88.2835 39.4616 88.3568 39.306C88.4016 39.2056 88.5188 39.1772 88.6176 39.1646C88.8335 39.1396 89.0382 39.229 89.2501 39.2485C89.3926 39.2673 89.5098 39.1542 89.577 39.0402C89.6524 38.9257 89.6666 38.7859 89.6676 38.6525C89.6676 38.4266 89.6717 38.1981 89.6238 37.9758C89.5862 37.7874 89.4863 37.6193 89.3825 37.4605C89.2215 37.2195 88.9771 37.0524 88.7276 36.9139C88.3303 36.6817 87.869 36.5884 87.4147 36.5566C87.0256 36.5255 86.6325 36.545 86.2495 36.6253C85.5386 36.7817 84.901 37.193 84.4091 37.7226C83.9966 38.1553 83.6575 38.6766 83.521 39.264C83.3886 39.8299 83.4466 40.4416 83.6992 40.9668C83.9131 41.4155 84.2482 41.7972 84.6372 42.1034C85.2066 42.5752 85.8238 42.9854 86.4665 43.3497C86.8525 43.5737 87.2619 43.7528 87.6642 43.9455C88.0686 44.1412 88.4678 44.3468 88.863 44.5607C89.1064 44.6965 89.356 44.8242 89.5964 44.967C89.9467 45.1773 90.2798 45.4176 90.5894 45.6853C90.8206 45.8806 91.0253 46.1047 91.2494 46.3082C91.5498 46.5936 91.8238 46.905 92.0774 47.232C92.2373 47.441 92.3942 47.6534 92.5307 47.8795C92.882 48.4587 93.1194 49.1075 93.2202 49.7778C93.2558 50.0027 93.2701 50.2303 93.2833 50.4574V50.824C93.264 51.3292 93.2192 51.8352 93.1132 52.3304C92.9544 53.1043 92.6661 53.8535 92.2475 54.5247C91.8849 55.1081 91.4286 55.6302 90.9112 56.0809C90.4152 56.5063 89.8754 56.8805 89.3101 57.2088C88.5952 57.6211 87.8313 57.9511 87.0348 58.1713C86.3891 58.3545 85.722 58.4437 85.0569 58.516C84.9744 58.6455 84.898 58.7792 84.8206 58.912C84.6342 59.2424 84.4824 59.5997 84.2227 59.8822C83.9569 60.1839 83.5872 60.4147 83.1788 60.4448C82.8437 60.4731 82.5055 60.3513 82.2468 60.1389C81.9199 59.8627 81.7284 59.4449 81.6846 59.0226C81.6632 58.8943 81.7478 58.7515 81.8812 58.7301C82.2682 58.6535 82.6512 58.5386 83.0046 58.3618C83.0545 58.3359 83.1075 58.3155 83.1502 58.2793C83.1716 58.2176 83.0973 58.1872 83.0504 58.1742C82.7306 58.0929 82.4057 58.0255 82.089 57.9301C81.6653 57.8075 81.2497 57.6596 80.8423 57.4906C80.5337 57.361 80.2251 57.226 79.9419 57.0459C79.4785 56.7018 79.0355 56.3176 78.6963 55.8473C78.3633 55.3833 78.2543 54.8042 78.2095 54.246V53.8997C78.2237 53.7663 78.2421 53.6329 78.2747 53.5025C78.4091 52.9309 78.7513 52.4219 79.1944 52.0422C79.7943 51.5254 80.5948 51.2341 81.3892 51.2893C82.0319 51.3306 82.6481 51.5896 83.1614 51.9723C83.6911 52.3652 84.1239 52.8786 84.4631 53.442C84.8348 54.0623 85.1047 54.7443 85.2504 55.4529C85.2647 55.52 85.2708 55.5894 85.2962 55.654C85.6008 55.5878 85.8941 55.4806 86.1833 55.3686C86.8087 55.1164 87.4005 54.7799 87.925 54.3554C88.3477 54.0122 88.7286 53.6131 89.027 53.1566C89.3356 52.6838 89.5607 52.1505 89.6463 51.5906C89.6717 51.4068 89.7074 51.2221 89.6941 51.0359C89.6758 50.8181 89.632 50.6028 89.5648 50.3953C89.3702 49.8043 88.9975 49.2896 88.5666 48.8481C88.0166 48.2737 87.3862 47.7789 86.7058 47.3685C85.6751 46.7741 84.6413 46.1839 83.6035 45.6026C82.589 45.0485 81.6571 44.3354 80.8922 43.467C80.4451 42.974 80.0937 42.3894 79.9012 41.751C79.6761 41.0154 79.6833 40.229 79.8034 39.4755C79.9582 38.5217 80.3891 37.6143 81.0358 36.8958C81.4544 36.425 81.9525 36.0305 82.4862 35.6976C83.0779 35.3304 83.7084 35.0232 84.3724 34.8097C85.174 34.5463 86.0143 34.4092 86.8566 34.375ZM80.2057 53.6651C80.111 53.8309 80.0907 54.0274 80.0968 54.215C80.112 54.4986 80.2607 54.7626 80.4685 54.9516C80.7506 55.2122 81.1061 55.3723 81.4626 55.5037C81.65 55.569 81.8343 55.6448 82.0258 55.6974C82.3446 55.7882 82.6715 55.8416 82.9964 55.8995C83.1054 55.9174 83.2124 55.9445 83.3234 55.9435C83.1207 55.2301 82.7602 54.5611 82.2753 54.001C82.1185 53.8174 81.9443 53.6469 81.7427 53.5129C81.5165 53.3605 81.2548 53.2501 80.9798 53.2369C80.6692 53.224 80.3656 53.4021 80.2057 53.6651Z" fill="white"/>
</g>
<defs>
<filter id="filter0_dd" x="0" y="10" width="90.08" height="96.8441" filterUnits="userSpaceOnUse" color-interpolation-filters="sRGB">
<feFlood flood-opacity="0" result="BackgroundImageFix"/>
<feColorMatrix in="SourceAlpha" type="matrix" values="0 0 0 0 0 0 0 0 0 0 0 0 0 0 0 0 0 0 127 0"/>
<feOffset dy="15"/>
<feGaussianBlur stdDeviation="5"/>
<feColorMatrix type="matrix" values="0 0 0 0 0.466667 0 0 0 0 0.423529 0 0 0 0 0.941176 0 0 0 0.1 0"/>
<feBlend mode="normal" in2="BackgroundImageFix" result="effect1_dropShadow"/>
<feColorMatrix in="SourceAlpha" type="matrix" values="0 0 0 0 0 0 0 0 0 0 0 0 0 0 0 0 0 0 127 0"/>
<feOffset dy="15"/>
<feGaussianBlur stdDeviation="12.5"/>
<feColorMatrix type="matrix" values="0 0 0 0 0.490196 0 0 0 0 0.431373 0 0 0 0 0.941176 0 0 0 0.2 0"/>
<feBlend mode="normal" in2="effect1_dropShadow" result="effect2_dropShadow"/>
<feBlend mode="normal" in="SourceGraphic" in2="effect2_dropShadow" result="shape"/>
</filter>
<filter id="filter1_f" x="-54.4795" y="-50.2891" width="185.888" height="166.227" filterUnits="userSpaceOnUse" color-interpolation-filters="sRGB">
<feFlood flood-opacity="0" result="BackgroundImageFix"/>
<feBlend mode="normal" in="SourceGraphic" in2="BackgroundImageFix" result="shape"/>
<feGaussianBlur stdDeviation="37" result="effect1_foregroundBlur"/>
</filter>
<filter id="filter2_dd" x="17.0239" y="23.48" width="56.032" height="67.7312" filterUnits="userSpaceOnUse" color-interpolation-filters="sRGB">
<feFlood flood-opacity="0" result="BackgroundImageFix"/>
<feColorMatrix in="SourceAlpha" type="matrix" values="0 0 0 0 0 0 0 0 0 0 0 0 0 0 0 0 0 0 127 0"/>
<feOffset dy="10"/>
<feGaussianBlur stdDeviation="10"/>
<feColorMatrix type="matrix" values="0 0 0 0 0.415502 0 0 0 0 0.3675 0 0 0 0 0.816667 0 0 0 0.1 0"/>
<feBlend mode="normal" in2="BackgroundImageFix" result="effect1_dropShadow"/>
<feColorMatrix in="SourceAlpha" type="matrix" values="0 0 0 0 0 0 0 0 0 0 0 0 0 0 0 0 0 0 127 0"/>
<feOffset dy="10"/>
<feGaussianBlur stdDeviation="10"/>
<feColorMatrix type="matrix" values="0 0 0 0 0.415686 0 0 0 0 0.368627 0 0 0 0 0.815686 0 0 0 0.1 0"/>
<feBlend mode="normal" in2="effect1_dropShadow" result="effect2_dropShadow"/>
<feBlend mode="normal" in="SourceGraphic" in2="effect2_dropShadow" result="shape"/>
</filter>
<filter id="filter3_dd" x="58.2095" y="24.375" width="55.0739" height="66.0739" filterUnits="userSpaceOnUse" color-interpolation-filters="sRGB">
<feFlood flood-opacity="0" result="BackgroundImageFix"/>
<feColorMatrix in="SourceAlpha" type="matrix" values="0 0 0 0 0 0 0 0 0 0 0 0 0 0 0 0 0 0 127 0"/>
<feOffset dy="10"/>
<feGaussianBlur stdDeviation="10"/>
<feColorMatrix type="matrix" values="0 0 0 0 0.415502 0 0 0 0 0.3675 0 0 0 0 0.816667 0 0 0 0.1 0"/>
<feBlend mode="normal" in2="BackgroundImageFix" result="effect1_dropShadow"/>
<feColorMatrix in="SourceAlpha" type="matrix" values="0 0 0 0 0 0 0 0 0 0 0 0 0 0 0 0 0 0 127 0"/>
<feOffset dy="10"/>
<feGaussianBlur stdDeviation="10"/>
<feColorMatrix type="matrix" values="0 0 0 0 0.415686 0 0 0 0 0.368627 0 0 0 0 0.815686 0 0 0 0.1 0"/>
<feBlend mode="normal" in2="effect1_dropShadow" result="effect2_dropShadow"/>
<feBlend mode="normal" in="SourceGraphic" in2="effect2_dropShadow" result="shape"/>
</filter>
<linearGradient id="paint0_linear" x1="26.6704" y1="21.7268" x2="77.1516" y2="44.9911" gradientUnits="userSpaceOnUse">
<stop offset="0.146779" stop-color="#545BE9"/>
<stop offset="0.832983" stop-color="#B782F8"/>
</linearGradient>
<linearGradient id="paint1_linear" x1="62.8886" y1="27.4322" x2="45.8188" y2="72.4481" gradientUnits="userSpaceOnUse">
<stop stop-color="#55C0F7"/>
<stop offset="1" stop-color="#A8E8FA"/>
</linearGradient>
<linearGradient id="paint2_linear" x1="26.2522" y1="27.3368" x2="42.9667" y2="74.3448" gradientUnits="userSpaceOnUse">
<stop stop-color="#1B5CF6"/>
<stop offset="0.503297" stop-color="#429EFF"/>
<stop offset="0.890632" stop-color="#D33BA7"/>
</linearGradient>
</defs>
</svg>
