<svg width="220" height="80" viewBox="0 0 220 80" fill="none" xmlns="http://www.w3.org/2000/svg">
<path d="M0.110752 16.4386C0.136509 13.1653 2.59242 9.59332 5.59566 8.46034L26.1354 0.710477C29.1387 -0.422513 31.5508 1.31253 31.525 4.5858L31.4143 18.4151L0 30.2677L0.110752 16.4386Z" fill="#8A6EE6"/>
<path d="M39.923 8.58838H7.72704C3.45951 8.58838 0 12.1265 0 16.491V49.4188C0 53.7833 3.45951 57.3214 7.72704 57.3214H39.923C44.1905 57.3214 47.6501 53.7833 47.6501 49.4188V16.491C47.6501 12.1265 44.1905 8.58838 39.923 8.58838Z" fill="url(#paint0_linear)"/>
<mask id="mask0" mask-type="alpha" maskUnits="userSpaceOnUse" x="0" y="8" width="48" height="50">
<path d="M39.923 8.58838H7.72704C3.45951 8.58838 0 12.1265 0 16.491V49.4188C0 53.7833 3.45951 57.3214 7.72704 57.3214H39.923C44.1905 57.3214 47.6501 53.7833 47.6501 49.4188V16.491C47.6501 12.1265 44.1905 8.58838 39.923 8.58838Z" fill="url(#paint1_linear)" fill-opacity="0.8"/>
<path d="M39.923 8.58838H7.72704C3.45951 8.58838 0 12.1265 0 16.491V49.4188C0 53.7833 3.45951 57.3214 7.72704 57.3214H39.923C44.1905 57.3214 47.6501 53.7833 47.6501 49.4188V16.491C47.6501 12.1265 44.1905 8.58838 39.923 8.58838Z" fill="url(#paint2_linear)"/>
</mask>
<g mask="url(#mask0)">
<g opacity="0.75" filter="url(#filter0_f)">
<path opacity="0.75" d="M16.0085 27.0379C28.4471 27.0379 38.5306 22.0768 38.5306 15.9569C38.5306 9.83709 28.4471 4.87598 16.0085 4.87598C3.56983 4.87598 -6.51367 9.83709 -6.51367 15.9569C-6.51367 22.0768 3.56983 27.0379 16.0085 27.0379Z" fill="#1C5AF6"/>
</g>
<g style="mix-blend-mode:soft-light">
<path d="M39.923 8.58838H7.72704C3.45951 8.58838 0 12.1265 0 16.491V49.4188C0 53.7833 3.45951 57.3214 7.72704 57.3214H39.923C44.1905 57.3214 47.6501 53.7833 47.6501 49.4188V16.491C47.6501 12.1265 44.1905 8.58838 39.923 8.58838Z" fill="white" fill-opacity="0.07"/>
</g>
<g filter="url(#filter1_dd)">
<path d="M25.2297 16.7539H25.9766C27.1241 16.8005 28.2728 17.0181 29.3366 17.467C30.0578 17.7705 30.7687 18.1553 31.3005 18.7509C31.6096 19.0965 31.853 19.5051 32.0101 19.9455C32.1891 20.4566 32.2561 21.0058 32.2304 21.5469C32.2033 22.0532 32.0951 22.5595 31.8826 23.0191C31.7152 23.3579 31.5491 23.6998 31.3314 24.0088C31.0584 24.4013 30.7094 24.7464 30.2896 24.9695C29.7873 25.2345 29.1949 25.3386 28.6399 25.2119C27.9161 25.0593 27.2954 24.4951 27.0494 23.7854C27.0043 23.5676 27.0339 23.3318 27.1266 23.1306C27.1833 23.0007 27.3314 22.9641 27.4563 22.9477C27.7293 22.9153 27.9882 23.031 28.2561 23.0563C28.4364 23.0805 28.5845 22.9343 28.6695 22.7868C28.7648 22.6387 28.7828 22.458 28.7841 22.2855C28.7841 21.9934 28.7892 21.6978 28.7287 21.4104C28.6811 21.1667 28.5549 20.9494 28.4235 20.744C28.22 20.4323 27.9109 20.2163 27.5954 20.0372C27.0932 19.7369 26.5098 19.6162 25.9354 19.5752C25.4434 19.5348 24.9463 19.5601 24.4621 19.6639C23.5632 19.8662 22.757 20.3981 22.135 21.083C21.6134 21.6425 21.1846 22.3166 21.012 23.0763C20.8446 23.8081 20.918 24.5991 21.2374 25.2782C21.5078 25.8586 21.9315 26.3522 22.4235 26.7481C23.1434 27.3582 23.9238 27.8887 24.7364 28.3597C25.2245 28.6495 25.7422 28.8811 26.2509 29.1303C26.7622 29.3834 27.267 29.6492 27.7667 29.9258C28.0745 30.1015 28.39 30.2667 28.694 30.4513C29.137 30.7232 29.5581 31.034 29.9496 31.3801C30.2419 31.6328 30.5008 31.9225 30.7841 32.1857C31.164 32.5547 31.5105 32.9575 31.8311 33.3803C32.0333 33.6506 32.2316 33.9253 32.4042 34.2177C32.8485 34.9666 33.1486 35.8056 33.2761 36.6725C33.3212 36.9634 33.3392 37.2576 33.3559 37.5513V38.0255C33.3315 38.6788 33.2748 39.3331 33.1409 39.9735C32.9399 40.9742 32.5755 41.9431 32.0462 42.8111C31.5877 43.5655 31.0108 44.2406 30.3565 44.8236C29.7294 45.3736 29.0468 45.8575 28.3321 46.2822C27.428 46.8153 26.4621 47.2421 25.455 47.5268C24.6385 47.7637 23.795 47.879 22.954 47.9725C22.8497 48.1401 22.7531 48.3129 22.6553 48.4846C22.4196 48.9119 22.2277 49.3739 21.8993 49.7393C21.5632 50.1294 21.0957 50.4279 20.5793 50.4669C20.1556 50.5035 19.728 50.346 19.4009 50.0712C18.9875 49.714 18.7454 49.1737 18.69 48.6277C18.663 48.4617 18.7699 48.2771 18.9386 48.2494C19.4279 48.1504 19.9122 48.0018 20.359 47.7731C20.4221 47.7397 20.4891 47.7133 20.5432 47.6664C20.5703 47.5866 20.4762 47.5474 20.417 47.5305C20.0126 47.4254 19.6018 47.3382 19.2013 47.2149C18.6655 47.0564 18.1401 46.8651 17.625 46.6465C17.2347 46.4789 16.8445 46.3043 16.4865 46.0714C15.9005 45.6265 15.3403 45.1297 14.9115 44.5215C14.4904 43.9214 14.3526 43.1725 14.2959 42.4507V42.0029C14.3139 41.8303 14.3371 41.6578 14.3783 41.4892C14.5483 40.75 14.981 40.0918 15.5412 39.6007C16.2998 38.9324 17.312 38.5557 18.3165 38.6271C19.1292 38.6806 19.9083 39.0154 20.5574 39.5104C21.2271 40.0185 21.7744 40.6823 22.2032 41.411C22.6733 42.2131 23.0146 43.095 23.1987 44.0115C23.2168 44.0981 23.2245 44.188 23.2567 44.2715C23.6417 44.1859 24.0127 44.0473 24.3784 43.9024C25.1691 43.5763 25.9174 43.1411 26.5806 42.5922C27.1151 42.1483 27.5967 41.6322 27.974 41.0419C28.3643 40.4305 28.6489 39.7409 28.7571 39.0167C28.7893 38.7791 28.8343 38.5402 28.8176 38.2994C28.7944 38.0178 28.739 37.7394 28.654 37.471C28.408 36.7068 27.9367 36.0411 27.3919 35.4703C26.6965 34.7274 25.8993 34.0876 25.0391 33.5568C23.7358 32.7881 22.4286 32.025 21.1163 31.2732C19.8336 30.5567 18.6552 29.6344 17.6881 28.5115C17.1227 27.874 16.6784 27.118 16.435 26.2924C16.1504 25.3412 16.1594 24.3241 16.3114 23.3497C16.5071 22.1164 17.0519 20.9428 17.8697 20.0138C18.399 19.405 19.0287 18.8947 19.7035 18.4643C20.4518 17.9894 21.2489 17.5921 22.0886 17.316C23.1021 16.9754 24.1646 16.7982 25.2297 16.7539ZM16.8201 41.6994C16.7003 41.9138 16.6745 42.168 16.6823 42.4107C16.7016 42.7773 16.8896 43.1187 17.1523 43.3632C17.5091 43.7001 17.9585 43.9072 18.4093 44.0771C18.6462 44.1616 18.8793 44.2596 19.1214 44.3276C19.5245 44.4451 19.9379 44.5141 20.3487 44.5889C20.4865 44.6121 20.6218 44.6471 20.7621 44.6458C20.5059 43.7233 20.05 42.8582 19.437 42.1338C19.2386 41.8965 19.0184 41.676 18.7634 41.5026C18.4775 41.3056 18.1465 41.1628 17.7988 41.1457C17.406 41.1291 17.0223 41.3593 16.8201 41.6994Z" fill="white"/>
</g>
</g>
<path d="M163.3 46.3874C162.704 46.3874 162.163 46.071 161.678 45.4382C160.993 44.6472 160.651 43.7205 160.651 42.6583C160.651 41.3926 161.137 39.9292 162.108 38.268C162.406 37.7482 162.837 37.1832 163.399 36.5729C164.658 35.183 165.866 34.488 167.025 34.488H167.207C168.289 34.488 169.249 35.0587 170.088 36.2C170.319 36.5729 170.435 36.8611 170.435 37.0645C170.435 37.3244 170.237 37.5504 169.839 37.7425H169.74C169.674 37.7425 169.602 37.6578 169.525 37.4883C169.425 37.3753 169.276 37.3188 169.078 37.3188C168.416 37.3188 167.621 37.7199 166.694 38.5223C165.855 39.3246 165.165 40.2513 164.624 41.3022C164.249 42.0028 163.896 42.8504 163.565 43.8448C163.41 44.342 163.333 44.6641 163.333 44.811C163.554 44.811 164.15 44.3533 165.121 43.438C165.794 42.7261 166.33 42.0819 166.727 41.5056C167.157 40.8389 167.461 40.2795 167.637 39.8275C167.946 38.8782 168.233 38.268 168.498 37.9968C168.664 37.8612 168.829 37.7934 168.995 37.7934H169.127C169.492 37.7934 169.933 38.0364 170.452 38.5223C170.882 38.9969 171.097 39.4263 171.097 39.8105C171.097 40.3756 170.65 41.6356 169.756 43.5906C169.392 44.3251 169.199 44.7658 169.177 44.9127C169.332 44.9127 169.889 44.3816 170.849 43.3194C171.754 42.2571 172.549 41.2457 173.233 40.2852C173.674 39.5958 174.116 38.9743 174.557 38.4206C174.822 38.0816 175.021 37.9121 175.153 37.9121C175.352 37.9121 175.451 37.9799 175.451 38.1155V38.2002C175.451 38.6748 174.199 40.5451 171.693 43.8109C170.435 45.4156 169.481 46.2179 168.829 46.2179C168.454 46.2179 168.018 45.9919 167.522 45.5399C167.091 45.0879 166.876 44.5285 166.876 43.8618C166.876 43.7149 166.892 43.5002 166.926 43.2176C166.528 43.7601 166.076 44.3138 165.568 44.8788C164.851 45.6134 164.404 46.0258 164.227 46.1162C163.94 46.297 163.631 46.3874 163.3 46.3874Z" fill="white"/>
<path d="M180.351 46.4722C180.009 46.4722 179.557 46.2066 178.994 45.6755C178.497 45.0314 178.249 44.3533 178.249 43.6414C178.249 43.4154 178.282 43.0933 178.348 42.6752C177.962 43.1837 177.543 43.7205 177.09 44.2855C176.582 44.8732 176.091 45.3817 175.617 45.8111C175.175 46.2518 174.778 46.4722 174.425 46.4722C174.083 46.4722 173.625 46.2066 173.051 45.6755C172.565 45.0314 172.322 44.3533 172.322 43.6414C172.322 42.6357 173.007 39.5563 174.375 34.4032C175.391 30.1768 176.108 27.3235 176.527 25.8431C176.847 24.7808 177.129 23.9559 177.372 23.3683C177.526 23.0293 177.725 22.8598 177.968 22.8598C178.255 22.8598 178.63 23.0406 179.093 23.4022C179.733 24.0011 180.053 24.5492 180.053 25.0464C180.053 25.4306 179.816 26.668 179.342 28.7586C177.355 36.5786 176.036 41.839 175.385 44.5398C175.374 44.5398 175.368 44.5794 175.368 44.6585C176.02 44.2516 176.82 43.4211 177.769 42.1667C178.045 41.8164 178.348 41.4209 178.679 40.9801C179.022 39.3981 179.562 37.2058 180.302 34.4032C181.582 29.3971 182.437 26.1426 182.868 24.6396C183.188 23.5773 183.469 22.7524 183.712 22.1648C183.878 21.8258 184.076 21.6562 184.308 21.6562C184.606 21.6562 184.981 21.8371 185.434 22.1987C186.074 22.7976 186.394 23.3457 186.394 23.8429C186.394 24.2271 186.019 25.8657 185.268 28.7586C183.282 36.5786 181.963 41.839 181.312 44.5398C181.301 44.5398 181.295 44.5794 181.295 44.6585C181.946 44.2516 182.746 43.4211 183.695 42.1667C184.225 41.5 184.843 40.6694 185.55 39.6749C185.881 39.2342 186.245 38.8161 186.642 38.4206C186.697 38.3754 186.753 38.3471 186.808 38.3358C186.973 38.4375 187.056 38.5392 187.056 38.6409C187.056 38.7991 186.659 39.4207 185.864 40.5055C185.114 41.5904 184.165 42.8504 183.017 44.2855C182.509 44.8732 182.023 45.3873 181.56 45.8281C181.107 46.2575 180.705 46.4722 180.351 46.4722Z" fill="white"/>
<path d="M187.652 46.4552C186.526 46.4552 185.577 45.7433 184.805 44.3194C184.496 43.6979 184.341 43.082 184.341 42.4718C184.341 40.9688 185.191 39.2342 186.891 37.2679C187.52 36.6012 187.939 36.2057 188.149 36.0814C189.054 35.3807 189.804 35.0304 190.4 35.0304H190.533C191.129 35.0304 191.769 35.3638 192.453 36.0305C192.972 36.5955 193.231 37.1606 193.231 37.7256C193.231 38.3584 192.916 39.0534 192.287 39.8105C191.471 40.7033 190.593 41.1497 189.655 41.1497C189.092 41.1497 188.502 40.9801 187.884 40.6411C187.575 41.0592 187.326 41.4378 187.139 41.7768C186.565 42.8391 186.278 43.6697 186.278 44.2686C186.278 44.7771 186.692 45.0314 187.52 45.0314C188.403 45.0314 189.302 44.6811 190.218 43.9804C190.825 43.5736 191.769 42.7713 193.049 41.5734C193.877 40.7485 194.793 39.8218 195.797 38.7935C196.172 38.4432 196.409 38.2398 196.509 38.1833C196.641 38.2624 196.713 38.3415 196.724 38.4206C196.724 38.5675 196.238 39.1438 195.267 40.1496C194.263 41.2344 193.413 42.1893 192.718 43.0142C191.802 44.0539 191.073 44.7941 190.533 45.2348C189.628 45.9693 188.888 46.3592 188.314 46.4044C188.127 46.4383 187.906 46.4552 187.652 46.4552ZM188.827 39.9292C188.894 39.9292 189.048 39.9009 189.291 39.8444C189.876 39.6862 190.439 39.302 190.98 38.6918C191.355 38.2285 191.592 37.7821 191.691 37.3527C191.162 37.4657 190.499 37.8555 189.705 38.5223C189.131 39.0873 188.723 39.528 188.48 39.8444C188.579 39.9009 188.695 39.9292 188.827 39.9292Z" fill="white"/>
<path d="M206.077 56.3206C208.848 56.2076 210.525 56.0889 211.11 55.9646C212.159 55.8064 213.014 55.6256 213.676 55.4222C214.846 55.0719 215.784 54.6933 216.49 54.2865C216.954 54.0153 217.428 53.665 217.914 53.2356C218.444 52.614 218.709 52.1959 218.709 51.9812C218.709 51.8004 218.449 51.5744 217.931 51.3032C217.324 50.9868 216.628 50.6929 215.845 50.4217C215.238 50.2296 214.465 50.0375 213.527 49.8454C212.754 49.6872 211.242 49.6081 208.991 49.6081C206.662 49.6081 204.709 49.7493 203.131 50.0319C202.093 50.1788 199.605 50.5517 195.665 51.1506C195.742 51.693 195.935 52.2355 196.244 52.7779C196.652 53.4785 197.541 54.1961 198.909 54.9306C199.505 55.2132 200.09 55.4392 200.664 55.6087C201.304 55.8008 202.336 55.9872 203.76 56.168C204.753 56.2697 205.526 56.3206 206.077 56.3206ZM206.624 59.5921H206.061C201.999 59.5921 198.6 58.2982 195.863 55.7104C194.627 54.4673 193.794 53.0661 193.363 51.5066C190.748 51.8569 187.84 52.1846 184.639 52.4897C183.271 52.6479 181.792 52.727 180.202 52.727C176.472 52.727 173.928 52.5575 172.571 52.2185C171.953 52.0829 171.384 51.9303 170.866 51.7608C170.06 51.5122 168.862 50.9303 167.273 50.0149C166.346 49.4725 165.706 48.8397 165.353 48.1164C165.276 47.9582 165.237 47.8057 165.237 47.6588C165.237 47.4666 165.298 47.3706 165.419 47.3706C165.507 47.3706 166.274 47.6814 167.72 48.3029C168.548 48.6532 169.63 48.9809 170.965 49.286C172.532 49.6137 174.679 49.7776 177.405 49.7776C180.318 49.7776 184.738 49.4951 190.665 48.9301L192.933 48.6588C192.922 48.4893 192.916 48.2012 192.916 47.7944L192.933 46.2349C193.01 45.2856 193.104 44.3873 193.214 43.5397C193.259 42.4436 193.943 39.3981 195.267 34.4032L195.681 32.8099C195.24 32.7873 194.826 32.776 194.439 32.776C193.225 32.776 192.469 32.9342 192.171 33.2506C192.094 33.3636 192.056 33.454 192.056 33.5218C192.056 33.5557 192.094 33.6857 192.171 33.9117C192.171 34.0021 192.16 34.0473 192.138 34.0473C192.006 34.0473 191.857 33.8213 191.691 33.3692C191.614 33.1319 191.576 32.8607 191.576 32.5556C191.576 31.4369 192.856 30.8775 195.416 30.8775H196.178C196.961 27.8376 197.513 25.7583 197.833 24.6396C198.153 23.5773 198.435 22.7524 198.677 22.1648C198.832 21.8258 199.031 21.6562 199.273 21.6562C199.56 21.6562 199.936 21.8371 200.399 22.1987C201.039 22.7976 201.359 23.3457 201.359 23.8429C201.359 24.2271 200.984 25.8657 200.234 28.7586L199.638 31.1148L200.465 31.1995C201.359 31.256 202.121 31.2843 202.75 31.2843C204.968 31.2843 206.337 30.9453 206.855 30.2672L206.971 30.2164C207.126 30.2164 207.253 30.6176 207.352 31.4199V31.6403C207.352 32.2279 206.982 32.7025 206.243 33.0641C205.581 33.3466 204.621 33.4879 203.362 33.4879C202.623 33.4879 201.21 33.3692 199.124 33.1319C197.745 38.5788 196.79 42.404 196.26 44.6076C195.852 46.4722 195.648 47.6136 195.648 48.0317C195.648 48.0656 195.648 48.0938 195.648 48.1164C195.659 48.1503 195.665 48.1842 195.665 48.2181C195.676 48.2633 195.692 48.2859 195.714 48.2859C200.736 47.6531 203.478 47.3367 203.942 47.3367C205.178 47.2237 206.315 47.1672 207.352 47.1672C210.2 47.1672 212.892 47.557 215.431 48.3368C216.369 48.6532 217.153 48.9922 217.782 49.3538C218.576 49.8059 219.145 50.3709 219.487 51.0489C219.829 51.7382 220 52.3993 220 53.0322C220 54.1396 219.332 55.2358 217.997 56.3206C216.485 57.4507 214.443 58.3377 211.872 58.9819C209.995 59.3887 208.246 59.5921 206.624 59.5921Z" fill="white"/>
<path d="M150.843 48.503C150.294 48.503 149.677 48.143 148.994 47.4231C148.102 46.3855 147.657 44.9033 147.657 42.9764C147.657 41.7165 147.828 40.3296 148.17 38.8156C148.17 38.805 148.165 38.7997 148.154 38.7997C147.616 39.6255 147.154 40.2925 146.771 40.8007C145.497 42.6641 144.108 44.5751 142.606 46.5338C141.912 47.349 141.404 47.8519 141.083 48.0425C140.824 48.1907 140.57 48.2648 140.322 48.2648C139.69 48.2648 138.995 47.7937 138.239 46.8514C137.69 46.1738 137.415 45.2156 137.415 43.9769V43.7387C137.415 41.3671 138.384 37.4286 140.322 31.9232C141.161 29.6575 142.285 26.7513 143.694 23.2045C144.16 22.0399 144.569 20.8753 144.922 19.7107C145.005 19.4672 145.046 19.2819 145.046 19.1548C145.046 19.1019 145.02 19.0754 144.968 19.0754C144.45 19.139 143.72 19.4566 142.777 20.0283C142.269 20.3565 141.7 20.8065 141.068 21.3782C140.332 22.0875 139.85 22.5957 139.622 22.9028C137.933 25.0097 136.835 27.2171 136.327 29.5252C136.193 29.991 136.125 30.7533 136.125 31.812C136.125 33.2413 136.219 34.1465 136.405 34.5277C136.519 34.7289 136.737 34.9406 137.058 35.1629C137.182 35.29 137.244 35.3906 137.244 35.4647C137.244 35.5282 137.146 35.56 136.949 35.56C136.214 35.56 135.571 34.8718 135.022 33.4954C134.608 32.2673 134.4 31.0392 134.4 29.811V29.3505C134.4 26.7566 135.369 24.0515 137.307 21.2353C137.711 20.6318 138.301 19.9118 139.078 19.0754C139.928 18.2284 140.596 17.6409 141.083 17.3126C142.42 16.328 143.528 15.8357 144.409 15.8357C145.673 15.8357 146.673 16.8997 147.408 19.0278C147.533 19.4407 147.595 19.8642 147.595 20.2983C147.595 21.5158 146.994 23.808 145.792 27.1748C144.725 30.2345 143.88 32.6802 143.259 34.5118C142.544 36.5869 141.917 38.5826 141.378 40.499C140.84 42.5317 140.477 44.2522 140.29 45.6603C141.202 45.0039 142.326 43.871 143.663 42.2618C145.082 40.5572 146.429 38.7838 147.704 36.9416C148.429 35.904 149.019 35.02 149.475 34.2895L151.527 27.8259C152.003 26.3754 152.33 25.502 152.506 25.2055C152.713 24.8773 152.946 24.7132 153.205 24.7132C153.475 24.7132 153.77 24.872 154.091 25.1896C154.474 25.6237 154.666 26.3542 154.666 27.3812C154.666 29.4669 153.925 32.7596 152.444 37.2592C151.366 40.9754 150.827 43.6011 150.827 45.1362C150.827 45.6444 150.874 46.0944 150.967 46.4861C151.019 46.5285 151.071 46.5496 151.123 46.5496C151.444 46.5496 151.977 46.1579 152.723 45.3744C154.485 43.4158 155.93 41.3036 157.059 39.0379C158.272 36.804 159.52 33.8872 160.805 30.2875C162.442 25.682 163.54 21.1453 164.099 16.6774C164.193 16.1692 164.276 15.9151 164.348 15.9151C164.462 15.8516 164.576 15.8198 164.69 15.8198C165.094 15.8198 165.514 16.0792 165.949 16.598C166.581 17.5403 166.897 18.2073 166.897 18.599C166.918 18.599 166.928 18.7684 166.928 19.1072C166.928 19.7636 166.7 21.2035 166.244 23.4268C165.685 25.8619 165.032 28.0694 164.286 30.0492C163.395 32.4102 162.369 34.6971 161.209 36.9098C159.448 40.2343 157.5 43.0982 155.365 45.5015C153.511 47.5025 152.003 48.503 150.843 48.503Z" fill="white"/>
<path d="M90.1875 46.284C89.8593 46.284 89.4491 46.0617 88.9568 45.617C88.552 45.1501 88.2785 44.6554 88.1362 44.133C88.1034 43.9106 88.087 43.6438 88.087 43.3326C88.087 42.6656 88.1198 42.0819 88.1855 41.5817H88.1527C87.9886 41.7484 87.7205 42.0986 87.3486 42.6322C86.6922 43.5771 86.0467 44.3942 85.4122 45.0834C84.8652 45.6615 84.3893 45.9505 83.9845 45.9505H83.886C83.5578 45.9505 83.153 45.7338 82.6717 45.3002C82.1575 44.7666 81.9004 44.0496 81.9004 43.1491C81.9004 42.0041 82.4146 39.7974 83.4429 36.5291C83.7711 35.5731 84.0228 35.0562 84.1978 34.9783C84.2853 34.9339 84.4002 34.9116 84.5424 34.9116C85.1551 34.9116 85.7513 35.2396 86.3311 35.8955C86.5609 36.1512 86.6757 36.4569 86.6757 36.8126C86.6757 37.324 86.3804 38.4023 85.7896 40.0476C84.8816 42.6933 84.4276 44.1385 84.4276 44.3831C84.6135 44.3831 85.3028 43.6994 86.4952 42.3321C87.3157 41.2982 88.0542 40.2699 88.7106 39.2472C89.0169 38.7358 89.274 38.1744 89.4819 37.563C90.007 36.04 90.4555 35.2785 90.8275 35.2785C91.287 35.2785 91.7793 35.5397 92.3044 36.0622C92.5779 36.3957 92.7147 36.807 92.7147 37.2962C92.7147 37.9521 92.3208 39.5918 91.5331 42.2153C91.2049 43.3937 91.0408 44.0329 91.0408 44.133C91.0408 44.1441 91.0463 44.1496 91.0572 44.1496C91.2104 44.0496 91.473 43.7717 91.8449 43.3159C92.3919 42.66 93.475 41.2871 95.0941 39.1971C95.7396 38.3745 96.1553 37.9632 96.3413 37.9632H96.407C96.5164 37.9632 96.6422 38.0688 96.7844 38.28V38.3467C96.7844 38.4912 96.2264 39.2972 95.1106 40.7646C93.7759 42.5766 92.5998 44.0774 91.5824 45.2669C90.9588 45.945 90.4938 46.284 90.1875 46.284Z" fill="white"/>
<path d="M105.777 46.5175C105.438 46.5175 105.006 46.284 104.481 45.8171C103.999 45.2613 103.759 44.6554 103.759 43.9996C103.759 43.2325 104.087 41.8985 104.743 39.9975C104.907 39.4639 104.989 39.1638 104.989 39.0971C104.979 39.0971 104.973 39.0915 104.973 39.0804C104.776 39.136 104.262 39.614 103.43 40.5145L102.265 41.8985C101.872 43.188 101.587 44.1552 101.412 44.8C101.412 45.0112 101.308 45.3502 101.1 45.8171C100.86 46.2285 100.602 46.4341 100.329 46.4341C100.088 46.4341 99.7437 46.2396 99.2951 45.8505C98.781 45.2835 98.5239 44.6388 98.5239 43.9162C98.5239 43.1602 98.8904 41.6928 99.6233 39.514C99.9187 38.6469 100.066 38.1577 100.066 38.0466C99.9133 38.0466 99.3936 38.519 98.5075 39.4639C97.5338 40.6423 96.9813 41.4316 96.85 41.8318C96.675 42.2542 96.4124 43.1325 96.0623 44.4665C95.7341 45.5781 95.4825 46.1618 95.3075 46.2173C95.1653 46.3396 95.034 46.4008 94.9136 46.4008C94.6073 46.3563 94.2572 46.1729 93.8634 45.8505C93.3711 45.3502 93.1249 44.7888 93.1249 44.1663C93.1249 43.7772 93.4477 42.2654 94.0931 39.6307C94.6729 37.3073 95.1215 35.7565 95.4388 34.9783C95.5919 34.656 95.7779 34.4948 95.9967 34.4948C96.4015 34.4948 96.8993 34.8727 97.49 35.6287C97.7745 36.0178 97.9167 36.4291 97.9167 36.8626C97.9167 37.0627 97.8237 37.5463 97.6377 38.3134L97.6213 38.4634C97.6322 38.4857 97.6432 38.4968 97.6541 38.4968C97.8729 38.2967 98.1464 37.9799 98.4746 37.5463C99.4374 36.468 100.148 35.9288 100.608 35.9288C101.078 35.9288 101.62 36.2179 102.233 36.7959C102.703 37.2851 102.938 37.8465 102.938 38.4801C102.938 38.7358 102.922 38.9804 102.889 39.2138C104.103 37.7131 104.984 36.9627 105.531 36.9627C106.001 36.9627 106.537 37.2462 107.139 37.8131C107.653 38.3356 107.91 38.9581 107.91 39.6807V39.8308C107.91 40.4311 107.566 41.7707 106.877 43.8495C106.767 44.2275 106.685 44.5387 106.63 44.7833C106.762 44.7833 107.145 44.4609 107.779 43.8161L108.386 43.1325C109.076 42.2987 109.688 41.4983 110.224 40.7312C110.651 40.1198 111.149 39.5028 111.718 38.8803C111.838 38.7803 111.936 38.7302 112.013 38.7302C112.144 38.8192 112.21 38.9025 112.21 38.9804C112.21 39.1471 111.772 39.8363 110.897 41.0481C108.293 44.6944 106.587 46.5175 105.777 46.5175Z" fill="white"/>
<path d="M111.406 45.9505C111.001 45.9505 110.542 45.6782 110.027 45.1335C109.688 44.6888 109.519 44.1997 109.519 43.6661C109.519 43.3548 109.847 41.8763 110.503 39.2305C111.05 37.0183 111.466 35.4286 111.75 34.4614C111.882 34.0946 112.029 33.9111 112.194 33.9111C112.412 33.9111 112.68 34.0112 112.998 34.2113C113.632 34.7115 114.026 35.234 114.179 35.7787C114.212 35.9344 114.228 36.1234 114.228 36.3457C114.228 36.9126 114.168 37.4129 114.048 37.8465C114.048 37.991 114.053 38.0632 114.064 38.0632C114.316 37.8187 114.6 37.4907 114.918 37.0794C116.187 35.7454 117.029 35.0784 117.445 35.0784H117.56C117.899 35.0784 118.336 35.2896 118.872 35.712C119.299 36.1234 119.551 36.4402 119.627 36.6625C119.77 36.9182 119.841 37.2462 119.841 37.6464C119.841 38.1911 119.704 38.997 119.43 40.0642C119.299 40.5867 119.02 40.848 118.593 40.848C118.331 40.848 118.008 40.7424 117.625 40.5311C116.881 40.1309 116.509 39.6196 116.509 38.997C116.509 38.7858 116.553 38.5635 116.641 38.33C116.849 37.6741 116.952 37.2906 116.952 37.1795C116.766 37.2128 116.066 37.8576 114.852 39.1138C113.933 40.2143 113.397 40.9869 113.244 41.4316C113.08 41.8318 112.823 42.71 112.472 44.0663C112.188 45.0334 111.942 45.6059 111.734 45.7838C111.57 45.895 111.461 45.9505 111.406 45.9505Z" fill="white"/>
<path d="M127.768 49.0855H127.752C127.38 49.0855 126.833 48.8131 126.111 48.2684C125.334 47.5791 124.945 46.9288 124.945 46.3174C124.945 45.7838 125.131 44.7944 125.503 43.3492C125.153 43.7939 124.77 44.2497 124.355 44.7166C123.644 45.4392 123.201 45.8449 123.026 45.9339C122.741 46.1117 122.435 46.2007 122.107 46.2007C121.516 46.2007 120.98 45.8894 120.498 45.2669C119.82 44.4887 119.481 43.5771 119.481 42.5322C119.481 41.2871 119.962 39.8475 120.925 38.2133C121.22 37.7019 121.647 37.1461 122.205 36.5458C123.452 35.1784 124.65 34.4948 125.799 34.4948H125.979C127.051 34.4948 128.003 35.0562 128.835 36.1789C129.064 36.5458 129.179 36.8293 129.179 37.0294C129.179 37.2851 128.982 37.5074 128.589 37.6964H128.49C128.424 37.6964 128.353 37.613 128.277 37.4463C128.178 37.3351 128.031 37.2795 127.834 37.2795C127.177 37.2795 126.39 37.6741 125.471 38.4634C124.639 39.2527 123.955 40.1643 123.419 41.1981C123.047 41.8874 122.697 42.7211 122.369 43.6994C122.216 44.1885 122.139 44.5054 122.139 44.6499C122.358 44.6499 122.949 44.1997 123.912 43.2992C124.579 42.5989 125.11 41.9652 125.503 41.3982C125.908 40.7757 126.286 40.1031 126.636 39.3806C126.92 38.5023 127.172 37.9799 127.391 37.8131C127.5 37.7464 127.615 37.7131 127.735 37.7131C128.118 37.7131 128.605 37.9799 129.196 38.5135C129.622 38.8803 129.836 39.2861 129.836 39.7307C129.836 39.8086 129.808 39.9142 129.754 40.0476C129.666 40.6368 129.431 41.6206 129.048 42.9991C128.435 45.1779 128.129 46.7343 128.129 47.6681L128.145 48.2851C128.145 48.7631 128.096 49.0076 127.998 49.0188C127.954 49.0632 127.877 49.0855 127.768 49.0855Z" fill="white"/>
<g filter="url(#filter2_dd)">
<path d="M73.5391 17.8423H74.2414C75.3203 17.8861 76.4004 18.0907 77.4006 18.5128C78.0787 18.7981 78.7471 19.1599 79.2472 19.7199C79.5378 20.0449 79.7666 20.429 79.9144 20.8432C80.0827 21.3237 80.1456 21.8401 80.1214 22.3488C80.096 22.8248 79.9943 23.3009 79.7945 23.7331C79.6371 24.0516 79.4809 24.3731 79.2762 24.6636C79.0195 25.0326 78.6914 25.3571 78.2966 25.5669C77.8244 25.8161 77.2674 25.9139 76.7455 25.7948C76.065 25.6514 75.4814 25.1208 75.2501 24.4536C75.2077 24.2487 75.2355 24.0271 75.3227 23.8378C75.376 23.7157 75.5152 23.6813 75.6327 23.666C75.8894 23.6355 76.1328 23.7442 76.3847 23.768C76.5542 23.7908 76.6934 23.6533 76.7733 23.5146C76.863 23.3754 76.8799 23.2055 76.8811 23.0433C76.8811 22.7686 76.886 22.4907 76.829 22.2205C76.7842 21.9914 76.6656 21.7871 76.5421 21.5939C76.3507 21.3009 76.0601 21.0978 75.7635 20.9294C75.2912 20.647 74.7427 20.5336 74.2027 20.4949C73.7401 20.457 73.2727 20.4808 72.8174 20.5784C71.9722 20.7686 71.2142 21.2687 70.6294 21.9126C70.139 22.4387 69.7358 23.0725 69.5735 23.7868C69.4161 24.4749 69.4851 25.2187 69.7854 25.8572C70.0397 26.4028 70.4381 26.867 70.9006 27.2392C71.5775 27.8128 72.3113 28.3117 73.0753 28.7545C73.5343 29.027 74.021 29.2447 74.4993 29.479C74.98 29.717 75.4547 29.9669 75.9245 30.227C76.2139 30.3922 76.5106 30.5475 76.7964 30.7211C77.2129 30.9767 77.6089 31.269 77.977 31.5944C78.2518 31.8319 78.4952 32.1044 78.7616 32.3518C79.1188 32.6988 79.4445 33.0775 79.746 33.475C79.9362 33.7291 80.1226 33.9875 80.2849 34.2624C80.7026 34.9666 80.9848 35.7554 81.1046 36.5705C81.147 36.844 81.164 37.1206 81.1797 37.3968V37.8426C81.1567 38.4568 81.1034 39.0721 80.9775 39.6742C80.7886 40.6151 80.4459 41.5261 79.9483 42.3422C79.5172 43.0515 78.9747 43.6863 78.3596 44.2344C77.7699 44.7516 77.1281 45.2066 76.4561 45.6058C75.6061 46.1071 74.6979 46.5084 73.751 46.7761C72.9833 46.9988 72.1902 47.1073 71.3995 47.1952C71.3014 47.3527 71.2106 47.5152 71.1186 47.6767C70.897 48.0784 70.7166 48.5128 70.4078 48.8564C70.0918 49.2232 69.6522 49.5038 69.1666 49.5405C68.7683 49.5749 68.3663 49.4268 68.0587 49.1685C67.67 48.8326 67.4424 48.3246 67.3903 47.8112C67.3649 47.6551 67.4654 47.4815 67.624 47.4555C68.0841 47.3624 68.5394 47.2227 68.9596 47.0077C69.0189 46.9763 69.0819 46.9515 69.1327 46.9074C69.1582 46.8324 69.0698 46.7954 69.0141 46.7796C68.6339 46.6808 68.2476 46.5988 67.871 46.4829C67.3673 46.3338 66.8732 46.154 66.3889 45.9484C66.022 45.7909 65.6551 45.6266 65.3185 45.4077C64.7675 44.9894 64.2408 44.5222 63.8376 43.9504C63.4416 43.3861 63.3121 42.682 63.2588 42.0034V41.5823C63.2757 41.4201 63.2975 41.2578 63.3363 41.0993C63.4961 40.4043 63.903 39.7854 64.4297 39.3237C65.1429 38.6954 66.0947 38.3412 67.0391 38.4083C67.8032 38.4586 68.5358 38.7734 69.1461 39.2388C69.7757 39.7165 70.2903 40.3407 70.6936 41.0258C71.1355 41.7799 71.4564 42.6092 71.6296 43.4709C71.6465 43.5523 71.6538 43.6368 71.684 43.7153C72.0461 43.6348 72.3948 43.5045 72.7387 43.3683C73.4822 43.0617 74.1857 42.6525 74.8093 42.1364C75.3118 41.719 75.7647 41.2338 76.1195 40.6788C76.4864 40.1039 76.754 39.4555 76.8557 38.7746C76.886 38.5512 76.9283 38.3266 76.9126 38.1002C76.8908 37.8354 76.8387 37.5736 76.7588 37.3212C76.5275 36.6027 76.0844 35.9768 75.5722 35.4401C74.9183 34.7417 74.1688 34.14 73.3599 33.641C72.1345 32.9182 70.9055 32.2007 69.6716 31.4938C68.4655 30.8202 67.3576 29.953 66.4482 28.8972C65.9167 28.2978 65.4989 27.587 65.27 26.8107C65.0024 25.9164 65.0109 24.9601 65.1538 24.0439C65.3379 22.8843 65.8501 21.7809 66.619 20.9073C67.1166 20.3349 67.7087 19.8552 68.3432 19.4505C69.0468 19.0039 69.7963 18.6304 70.5858 18.3708C71.5387 18.0506 72.5377 17.8839 73.5391 17.8423ZM65.6321 41.297C65.5195 41.4986 65.4953 41.7376 65.5025 41.9657C65.5207 42.3105 65.6975 42.6315 65.9445 42.8613C66.2799 43.1781 66.7025 43.3728 67.1263 43.5325C67.3491 43.612 67.5683 43.7042 67.7959 43.7681C68.1749 43.8785 68.5636 43.9434 68.9499 44.0138C69.0795 44.0356 69.2066 44.0685 69.3386 44.0673C69.0976 43.1999 68.669 42.3865 68.0926 41.7054C67.9061 41.4822 67.6991 41.2749 67.4593 41.112C67.1905 40.9267 66.8793 40.7925 66.5524 40.7764C66.183 40.7607 65.8222 40.9772 65.6321 41.297Z" fill="white"/>
</g>
<defs>
<filter id="filter0_f" x="-80.5137" y="-69.124" width="193.044" height="170.162" filterUnits="userSpaceOnUse" color-interpolation-filters="sRGB">
<feFlood flood-opacity="0" result="BackgroundImageFix"/>
<feBlend mode="normal" in="SourceGraphic" in2="BackgroundImageFix" result="shape"/>
<feGaussianBlur stdDeviation="37" result="effect1_foregroundBlur"/>
</filter>
<filter id="filter1_dd" x="-5.7041" y="6.75391" width="59.06" height="73.7182" filterUnits="userSpaceOnUse" color-interpolation-filters="sRGB">
<feFlood flood-opacity="0" result="BackgroundImageFix"/>
<feColorMatrix in="SourceAlpha" type="matrix" values="0 0 0 0 0 0 0 0 0 0 0 0 0 0 0 0 0 0 127 0"/>
<feOffset dy="10"/>
<feGaussianBlur stdDeviation="10"/>
<feColorMatrix type="matrix" values="0 0 0 0 0.415502 0 0 0 0 0.3675 0 0 0 0 0.816667 0 0 0 0.1 0"/>
<feBlend mode="normal" in2="BackgroundImageFix" result="effect1_dropShadow"/>
<feColorMatrix in="SourceAlpha" type="matrix" values="0 0 0 0 0 0 0 0 0 0 0 0 0 0 0 0 0 0 127 0"/>
<feOffset dy="10"/>
<feGaussianBlur stdDeviation="10"/>
<feColorMatrix type="matrix" values="0 0 0 0 0.415686 0 0 0 0 0.368627 0 0 0 0 0.815686 0 0 0 0.1 0"/>
<feBlend mode="normal" in2="effect1_dropShadow" result="effect2_dropShadow"/>
<feBlend mode="normal" in="SourceGraphic" in2="effect2_dropShadow" result="shape"/>
</filter>
<filter id="filter2_dd" x="43.2588" y="7.84229" width="57.9209" height="71.7031" filterUnits="userSpaceOnUse" color-interpolation-filters="sRGB">
<feFlood flood-opacity="0" result="BackgroundImageFix"/>
<feColorMatrix in="SourceAlpha" type="matrix" values="0 0 0 0 0 0 0 0 0 0 0 0 0 0 0 0 0 0 127 0"/>
<feOffset dy="10"/>
<feGaussianBlur stdDeviation="10"/>
<feColorMatrix type="matrix" values="0 0 0 0 0.415502 0 0 0 0 0.3675 0 0 0 0 0.816667 0 0 0 0.1 0"/>
<feBlend mode="normal" in2="BackgroundImageFix" result="effect1_dropShadow"/>
<feColorMatrix in="SourceAlpha" type="matrix" values="0 0 0 0 0 0 0 0 0 0 0 0 0 0 0 0 0 0 127 0"/>
<feOffset dy="10"/>
<feGaussianBlur stdDeviation="10"/>
<feColorMatrix type="matrix" values="0 0 0 0 0.415686 0 0 0 0 0.368627 0 0 0 0 0.815686 0 0 0 0.1 0"/>
<feBlend mode="normal" in2="effect1_dropShadow" result="effect2_dropShadow"/>
<feBlend mode="normal" in="SourceGraphic" in2="effect2_dropShadow" result="shape"/>
</filter>
<linearGradient id="paint0_linear" x1="1.98585" y1="2.46343" x2="62.4674" y2="29.717" gradientUnits="userSpaceOnUse">
<stop offset="0.146779" stop-color="#545BE9"/>
<stop offset="0.832983" stop-color="#B782F8"/>
</linearGradient>
<linearGradient id="paint1_linear" x1="45.0448" y1="9.40064" x2="23.94" y2="63.8207" gradientUnits="userSpaceOnUse">
<stop stop-color="#55C0F7"/>
<stop offset="1" stop-color="#A8E8FA"/>
</linearGradient>
<linearGradient id="paint2_linear" x1="1.48874" y1="9.2846" x2="22.1669" y2="66.1481" gradientUnits="userSpaceOnUse">
<stop stop-color="#1B5CF6"/>
<stop offset="0.503297" stop-color="#429EFF"/>
<stop offset="0.890632" stop-color="#D33BA7"/>
</linearGradient>
</defs>
</svg>
