<svg width="33" height="33" viewBox="0 0 33 33" fill="none" xmlns="http://www.w3.org/2000/svg">
<g opacity="0.35">
<g opacity="0.4">
<path d="M22.7225 3.16675H10.2781C5.73884 3.16675 3.16699 5.7386 3.16699 10.2779V22.7223C3.16699 27.2497 5.72699 29.8334 10.2781 29.8334H22.7225C27.2618 29.8334 29.8337 27.2497 29.8337 22.7223V10.2779C29.8337 5.7386 27.2618 3.16675 22.7225 3.16675Z" fill="url(#paint0_linear)" fill-opacity="0.75"/>
<path d="M22.7225 3.16675H10.2781C5.73884 3.16675 3.16699 5.7386 3.16699 10.2779V22.7223C3.16699 27.2497 5.72699 29.8334 10.2781 29.8334H22.7225C27.2618 29.8334 29.8337 27.2497 29.8337 22.7223V10.2779C29.8337 5.7386 27.2618 3.16675 22.7225 3.16675Z" fill="#7165E3"/>
<path d="M22.7225 3.16675H10.2781C5.73884 3.16675 3.16699 5.7386 3.16699 10.2779V22.7223C3.16699 27.2497 5.72699 29.8334 10.2781 29.8334H22.7225C27.2618 29.8334 29.8337 27.2497 29.8337 22.7223V10.2779C29.8337 5.7386 27.2618 3.16675 22.7225 3.16675Z" fill="url(#paint1_linear)" fill-opacity="0.5"/>
</g>
</g>
<rect x="12.5" y="15.5" width="8" height="1.75" rx="0.875" fill="url(#paint2_linear)"/>
<defs>
<linearGradient id="paint0_linear" x1="3.16699" y1="16.5001" x2="29.8337" y2="16.5001" gradientUnits="userSpaceOnUse">
<stop stop-color="#7165E3" stop-opacity="0.2"/>
<stop offset="1" stop-color="#A465E3" stop-opacity="0.1"/>
</linearGradient>
<linearGradient id="paint1_linear" x1="34.4713" y1="25.5775" x2="21.0498" y2="-1.40999" gradientUnits="userSpaceOnUse">
<stop stop-color="#5E52D2"/>
<stop offset="1" stop-color="#B697F9"/>
</linearGradient>
<linearGradient id="paint2_linear" x1="21.8913" y1="16.9707" x2="21.6538" y2="14.7875" gradientUnits="userSpaceOnUse">
<stop stop-color="#5E52D2"/>
<stop offset="1" stop-color="#B697F9"/>
</linearGradient>
</defs>
</svg>
