<svg width="27" height="28" viewBox="0 0 27 28" fill="none" xmlns="http://www.w3.org/2000/svg">
<path opacity="0.35" d="M19.7225 0.666748H7.2781C2.73884 0.666748 0.166992 3.2386 0.166992 7.77786V20.2223C0.166992 24.7497 2.72699 27.3334 7.2781 27.3334H19.7225C24.2618 27.3334 26.8337 24.7497 26.8337 20.2223V7.77786C26.8337 3.2386 24.2618 0.666748 19.7225 0.666748Z" fill="url(#paint0_linear)"/>
<path d="M17.9276 14.9445H14.4997V18.3427C14.4997 18.8899 14.0523 19.3334 13.5003 19.3334C12.9484 19.3334 12.501 18.8899 12.501 18.3427V14.9445H9.07305C8.55822 14.8917 8.16699 14.4616 8.16699 13.9485C8.16699 13.4354 8.55822 13.0053 9.07305 12.9525H12.4902V9.56495C12.5435 9.05459 12.9774 8.66675 13.495 8.66675C14.0125 8.66675 14.4464 9.05459 14.4997 9.56495V12.9525H17.9276C18.4424 13.0053 18.8337 13.4354 18.8337 13.9485C18.8337 14.4616 18.4424 14.8917 17.9276 14.9445Z" fill="url(#paint1_linear)"/>
<defs>
<linearGradient id="paint0_linear" x1="0.166992" y1="27.3334" x2="26.8337" y2="27.3334" gradientUnits="userSpaceOnUse">
<stop stop-color="#BB9BF1"/>
<stop offset="1" stop-color="#887BF2"/>
</linearGradient>
<linearGradient id="paint1_linear" x1="20.6887" y1="17.631" x2="15.3201" y2="6.83605" gradientUnits="userSpaceOnUse">
<stop stop-color="#5E52D2"/>
<stop offset="1" stop-color="#B697F9"/>
</linearGradient>
</defs>
</svg>
