<svg width="21" height="15" viewBox="0 0 21 15" fill="none" xmlns="http://www.w3.org/2000/svg">
<path fill-rule="evenodd" clip-rule="evenodd" d="M2.6774 4.26009C2.6774 2.39342 4.14992 0.926758 6.02402 0.926758C7.89813 0.926758 9.37064 2.39342 9.37064 4.26009C9.37064 6.12676 7.89813 7.59342 6.02402 7.59342C4.14992 7.59342 2.6774 6.12676 2.6774 4.26009ZM12.0478 12.2601V13.5934C12.0478 13.9934 11.7801 14.2601 11.3785 14.2601C10.9769 14.2601 10.7092 13.9934 10.7092 13.5934V12.2601C10.7092 11.1268 9.83906 10.2601 8.70121 10.2601H3.34662C2.20877 10.2601 1.33865 11.1268 1.33865 12.2601V13.5934C1.33865 13.9934 1.07092 14.2601 0.669324 14.2601C0.26773 14.2601 0 13.9934 0 13.5934V12.2601C0 10.3934 1.47251 8.92676 3.34662 8.92676H8.70121C10.5753 8.92676 12.0478 10.3934 12.0478 12.2601ZM6.02408 6.26009C4.88623 6.26009 4.0161 5.39342 4.0161 4.26009C4.0161 3.12676 4.88623 2.26009 6.02408 2.26009C7.16193 2.26009 8.03205 3.12676 8.03205 4.26009C8.03205 5.39342 7.16193 6.26009 6.02408 6.26009ZM13.5203 9.06007C13.1856 8.9934 12.784 9.1934 12.7171 9.52673C12.6502 9.86007 12.851 10.2601 13.1856 10.3267C14.0558 10.5267 14.6581 11.3267 14.6581 12.2601V13.5934C14.6581 13.9934 14.9259 14.2601 15.3275 14.2601C15.7291 14.2601 15.9968 13.9934 15.9968 13.5934V12.2601C16.0637 10.7267 15.0597 9.3934 13.5203 9.06007ZM10.0399 1.5268C10.1738 1.1268 10.5084 0.926795 10.8431 1.06013C12.6503 1.46013 13.7212 3.32679 13.2527 5.19346C12.9849 6.39346 12.0479 7.26013 10.8431 7.59346H10.7092C10.3746 7.59346 10.1068 7.39346 10.0399 7.06013C9.90605 6.72679 10.1738 6.32679 10.5084 6.26013C11.2447 6.06013 11.7802 5.52679 11.981 4.79346C12.2487 3.66013 11.5794 2.59346 10.5084 2.32679C10.1738 2.26013 9.97298 1.86013 10.0399 1.5268Z" fill="white"/>
<path d="M20.25 6.09351H18.75V4.59351C18.75 4.14351 18.45 3.84351 18 3.84351C17.55 3.84351 17.25 4.14351 17.25 4.59351V6.09351H15.75C15.3 6.09351 15 6.39351 15 6.84351C15 7.29351 15.3 7.59351 15.75 7.59351H17.25V9.09351C17.25 9.54351 17.55 9.84351 18 9.84351C18.45 9.84351 18.75 9.54351 18.75 9.09351V7.59351H20.25C20.7 7.59351 21 7.29351 21 6.84351C21 6.39351 20.7 6.09351 20.25 6.09351Z" fill="#7165E3"/>
<mask id="mask0" mask-type="alpha" maskUnits="userSpaceOnUse" x="0" y="0" width="16" height="15">
<path fill-rule="evenodd" clip-rule="evenodd" d="M2.6774 4.26009C2.6774 2.39342 4.14992 0.926758 6.02402 0.926758C7.89813 0.926758 9.37064 2.39342 9.37064 4.26009C9.37064 6.12676 7.89813 7.59342 6.02402 7.59342C4.14992 7.59342 2.6774 6.12676 2.6774 4.26009ZM12.0478 12.2601V13.5934C12.0478 13.9934 11.7801 14.2601 11.3785 14.2601C10.9769 14.2601 10.7092 13.9934 10.7092 13.5934V12.2601C10.7092 11.1268 9.83906 10.2601 8.70121 10.2601H3.34662C2.20877 10.2601 1.33865 11.1268 1.33865 12.2601V13.5934C1.33865 13.9934 1.07092 14.2601 0.669324 14.2601C0.26773 14.2601 0 13.9934 0 13.5934V12.2601C0 10.3934 1.47251 8.92676 3.34662 8.92676H8.70121C10.5753 8.92676 12.0478 10.3934 12.0478 12.2601ZM6.02408 6.26009C4.88623 6.26009 4.0161 5.39342 4.0161 4.26009C4.0161 3.12676 4.88623 2.26009 6.02408 2.26009C7.16193 2.26009 8.03205 3.12676 8.03205 4.26009C8.03205 5.39342 7.16193 6.26009 6.02408 6.26009ZM13.5203 9.06007C13.1856 8.9934 12.784 9.1934 12.7171 9.52673C12.6502 9.86007 12.851 10.2601 13.1856 10.3267C14.0558 10.5267 14.6581 11.3267 14.6581 12.2601V13.5934C14.6581 13.9934 14.9259 14.2601 15.3275 14.2601C15.7291 14.2601 15.9968 13.9934 15.9968 13.5934V12.2601C16.0637 10.7267 15.0597 9.3934 13.5203 9.06007ZM10.0399 1.5268C10.1738 1.1268 10.5084 0.926795 10.8431 1.06013C12.6503 1.46013 13.7212 3.32679 13.2527 5.19346C12.9849 6.39346 12.0479 7.26013 10.8431 7.59346H10.7092C10.3746 7.59346 10.1068 7.39346 10.0399 7.06013C9.90605 6.72679 10.1738 6.32679 10.5084 6.26013C11.2447 6.06013 11.7802 5.52679 11.981 4.79346C12.2487 3.66013 11.5794 2.59346 10.5084 2.32679C10.1738 2.26013 9.97298 1.86013 10.0399 1.5268Z" fill="white"/>
</mask>
<g mask="url(#mask0)">
<rect y="-0.406494" width="16" height="16" fill="#7165E3"/>
</g>
</svg>
